<svg aria-hidden="true" width="0" height="0" > 
  <defs>
    <clipPath id="profileClipOutline" clipPathUnits="userSpaceOnUse">
      <path d="M28.2 105c-7.9-1-16.7-2.5-21.8-9.1-1.3-2.4-5.4-6.4-2.3-8.6 1.5-.9 7.4-4.6 2.5-2.9-6 .6 3.6-2.6 5.3-3.4 6.4-.3 6-7 6-11.6-1.3-4-2.6-8.2-2.7-12.5-1.2-4.2-3.3-8.1-3.3-12.6-1-3-2.2-8 2-8.3 1.5-4.1 1.5-8.6 2.7-12.8.7-4 2.2-8 5.2-10.8 3.5-3 7-6.4 11.3-8.5C36.8 2 40.8.4 45 .4c0 2.9 2.9 2 4.2 4Q55 5.6 59.4 9.7c3.8 1.8 5.3 6.7 6.3 10.5q0 10.2-.2 20.2c4.7-2.6.6 6.5-.1 8.7-1 4.5-3.7 8.1-4 12.7-1.1 4.6-4.2 8.5-5.2 13-1.2 4-.7 8 3.8 9.4 2.5 2.7 10.1 1.9 9.5 6a22 22 0 0 1-16.7 13.5q-6.7 1.6-13.3 1.4zM5.8 94.2c.4-.6-1 .7 0 0" />
    </clipPath>
  </defs>
</svg>