
<svg aria-hidden="true" width="0" height="0" style="display:block" > 
  <defs>
    <clipPath id="profileOutline" clipPathUnits="objectBoundingBox">
        <path d="M.73.99C.69.99.78.95.73.97S.68.93.65.97h-.1C.57.97.52.98.54.96.5.95.53.92.54.91.53.91.6.89.54.9Q.49.92.43.92.38.89.34.9C.3.9.36.88.33.9.3.9.33.86.3.87.3.87.23.88.26.86H.23L.2.84Q.13.87.1.86C.13.84.05.87.1.86.14.82.05.85.05.83V.81C.04.8.1.77.1.78.11.77.18.74.12.75l.1-.03Q.27.7.26.64L.24.56.2.42C.2.4.15.33.21.33L.25.2Q.27.14.33.1L.45.05.58 0l.05.02c.03.05.1.01.13.05q.07.03.1.09v.2C.93.35.88.42.87.44.86.5.81.51.81.56L.74.68q0 .07.06.07L.93.8Q.9.83.94.83h.01C.96.85.92.86.95.86.95.87.9.88.95.87q0 .04-.06.06L.77.98zM.1.75q.02 0 0 0"/>
    </clipPath>
  </defs>
</svg>