<svg xmlns="http://www.w3.org/2000/svg" viewBox="0 0 96 96"><path fill="#1572B6" d="M48 84c19.882 0 36-16.118 36-36S67.882 12 48 12 12 28.118 12 48s16.118 36 36 36Z"/><path fill="#fff" d="M48 35.344a4.862 4.862 0 1 0 0-9.723 4.862 4.862 0 0 0 0 9.723ZM53.075 44.305l10.659-2.937c1.385-.383 2.194-1.803 1.808-3.171-.386-1.371-1.823-2.172-3.205-1.789l-11.693 3.255a8.643 8.643 0 0 1-5.29 0l-11.69-3.255c-1.386-.383-2.82.42-3.206 1.789a2.57 2.57 0 0 0 1.809 3.17l10.659 2.938a1.943 1.943 0 0 1 1.434 1.87v3.507c0 1.71-.386 3.401-1.135 4.945l-5.72 11.837a2.561 2.561 0 0 0 1.227 3.433 2.616 2.616 0 0 0 3.47-1.213l5.775-11.952 5.818 11.952c.619 1.285 2.174 1.826 3.47 1.213a2.564 2.564 0 0 0 1.227-3.433l-5.72-11.837a11.368 11.368 0 0 1-1.134-4.945v-3.508c.003-.87.59-1.633 1.437-1.869Z"/></svg>