<svg xmlns="http://www.w3.org/2000/svg" viewBox="0 0 96 96"><path fill="#003DFF" d="M47.23 23.998c-13.107 0-23.793 10.568-23.982 23.633-.193 13.267 10.571 24.261 23.84 24.338a23.796 23.796 0 0 0 11.549-2.882.562.562 0 0 0 .103-.915l-2.244-1.99a1.586 1.586 0 0 0-1.667-.28 19.39 19.39 0 0 1-7.845 1.539c-10.722-.132-19.385-9.052-19.213-19.773.168-10.586 8.833-19.145 19.457-19.145h19.46V63.11l-11.04-9.81a.814.814 0 0 0-1.193.127 9.044 9.044 0 0 1-7.866 3.584c-4.448-.307-8.051-3.888-8.385-8.334-.398-5.303 3.804-9.747 9.026-9.747 4.722 0 8.61 3.634 9.015 8.252.037.41.221.795.53 1.067l2.876 2.55c.326.289.844.111.924-.317.207-1.109.281-2.263.199-3.45-.463-6.753-5.933-12.185-12.69-12.601-7.745-.477-14.22 5.582-14.426 13.177-.2 7.401 5.864 13.783 13.267 13.946 3.09.068 5.955-.904 8.27-2.586L69.62 71.755c.617.548 1.595.11 1.595-.717v-46.13a.91.91 0 0 0-.911-.91H47.23Z"/></svg>