<svg xmlns="http://www.w3.org/2000/svg" viewBox="0 0 96 96"><path fill="#384341" d="M64.232 58.325 62.52 53.46l-2.255-6.408-1.631-4.637-2.136-6.07-2.48-7.048H41.983l-1.92 5.458-1.712 4.867-8.505 24.168h7.936l2.49-7.055h12.034l-2.136-6.069H42.4l1.631-4.637 3.408-9.683.563-1.603.563 1.603 9.653 27.438.002.006h7.936l-1.923-5.464Z"/><path fill="transparent" stroke="#384341" stroke-linecap="round" stroke-miterlimit="10" stroke-width="3.061" d="M79.379 30.345A35.83 35.83 0 0 1 84 48.003c0 19.882-16.118 36-36 36s-36-16.118-36-36 16.118-36 36-36a35.829 35.829 0 0 1 18.353 5.023"/><path fill="#384341" d="M68.503 23.12a4.656 4.656 0 1 0 0-9.312 4.656 4.656 0 0 0 0 9.313Z"/></svg>