<svg xmlns="http://www.w3.org/2000/svg"  viewBox="0 0 96 96"><path fill="url(#astro-a)" d="M58.502 15.28c.584.725.882 1.702 1.475 3.655L72.97 61.616a54.045 54.045 0 0 0-15.534-5.259L48.977 27.77a1.1 1.1 0 0 0-2.112.002l-8.357 28.571a54.061 54.061 0 0 0-15.602 5.267l13.055-42.684c.598-1.95.895-2.926 1.478-3.65a4.814 4.814 0 0 1 1.946-1.439c.86-.345 1.882-.345 3.921-.345h9.326c2.041 0 3.063 0 3.926.348a4.79 4.79 0 0 1 1.944 1.44Z"/><path fill="#FF5D01" d="M60.056 63.646c-2.142 1.833-6.417 3.082-11.342 3.082-6.042 0-11.109-1.882-12.452-4.413-.48 1.45-.588 3.11-.588 4.172 0 0-.316 5.205 3.305 8.826a3.403 3.403 0 0 1 3.403-3.403c3.222 0 3.22 2.81 3.218 5.093v.202a8.319 8.319 0 0 0 5.126 7.683c-.464-.953-.705-2-.704-3.06 0-3.304 1.938-4.532 4.193-5.962 1.794-1.136 3.786-2.4 5.157-4.933a9.308 9.308 0 0 0 1.125-4.446c0-.964-.148-1.923-.44-2.841Z"/><path fill="url(#astro-b)" d="M60.056 63.646c-2.142 1.833-6.417 3.082-11.342 3.082-6.042 0-11.109-1.882-12.452-4.413-.48 1.45-.588 3.11-.588 4.172 0 0-.316 5.205 3.305 8.826a3.403 3.403 0 0 1 3.403-3.403c3.222 0 3.22 2.81 3.218 5.093v.202a8.319 8.319 0 0 0 5.126 7.683c-.464-.953-.705-2-.704-3.06 0-3.304 1.938-4.532 4.193-5.962 1.794-1.136 3.786-2.4 5.157-4.933a9.308 9.308 0 0 0 1.125-4.446c0-.964-.148-1.923-.44-2.841Z"/><defs><linearGradient id="astro-a" x1="62.58" x2="47.937" y1="11.229" y2="61.616" gradientUnits="userSpaceOnUse"><stop stop-color="#000014"/><stop offset="1" stop-color="#150426"/></linearGradient><linearGradient id="astro-b" x1="69.701" x2="57.019" y1="48.748" y2="75.296" gradientUnits="userSpaceOnUse"><stop stop-color="#FF1639"/><stop offset="1" stop-color="#FF1639" stop-opacity="0"/></linearGradient></defs></svg>