<svg xmlns="http://www.w3.org/2000/svg"  viewBox="0 0 96 96"><path fill="#2A3238" d="M74.576 26.707 51.878 13.222a8.673 8.673 0 0 0-4.393-1.22c-1.526 0-3.051.427-4.393 1.22L20.393 26.707A9.091 9.091 0 0 0 16 34.517v26.97c0 3.234 1.648 6.162 4.393 7.81l22.699 13.485a8.673 8.673 0 0 0 4.393 1.22c1.525 0 3.05-.427 4.393-1.22l22.698-13.485c2.685-1.587 4.394-4.576 4.394-7.81v-27.03c0-3.174-1.648-6.163-4.394-7.75Zm-30.691 54.61L21.187 67.833a7.567 7.567 0 0 1-3.6-6.407v-26.97c0-2.624 1.403-5.125 3.6-6.407l22.698-13.484c1.098-.671 2.318-.977 3.6-.977 1.281 0 2.502.367 3.6.977l22.698 13.484c1.892 1.099 3.112 3.051 3.478 5.187-.732-1.587-2.44-2.075-4.454-.915L51.39 45.622c-2.685 1.587-4.637 3.295-4.637 6.53v26.48c0 1.953.793 3.173 1.952 3.54l-1.22.121c-1.22.061-2.502-.305-3.6-.976Z"/><path fill="#4DA925" d="m68.657 64.052-5.675 3.356a.412.412 0 0 0-.244.366v1.465c0 .183.122.244.244.183l5.736-3.478c.122-.061.183-.244.183-.427v-1.282c0-.183-.122-.244-.244-.183Z"/><path fill="#fff" d="M56.577 51.605c.183-.122.305 0 .366.244V53.8c.793-.305 1.525-.427 2.197-.244.122.061.183.244.122.427l-.428 1.709-.183.366-.122.06h-.183c-.305-.06-.976-.243-2.074.367-1.16.61-1.587 1.586-1.526 2.319 0 .915.488 1.159 2.014 1.159 2.075.06 2.99.976 3.05 3.05 0 2.075-1.098 4.333-2.806 5.675l.061 1.953a.751.751 0 0 1-.305.61l-1.16.671c-.182.122-.304 0-.366-.244v-1.891a3.66 3.66 0 0 1-2.623.244c-.122-.061-.183-.244-.122-.427l.427-1.77.183-.366.122-.061h.183a3.052 3.052 0 0 0 2.38-.305 3.113 3.113 0 0 0 1.77-2.746c0-.976-.55-1.403-1.831-1.403-1.648 0-3.173-.305-3.234-2.746 0-2.014 1.037-4.088 2.684-5.37v-1.952c0-.244.123-.488.306-.61l1.098-.672Z"/></svg>