<svg xmlns="http://www.w3.org/2000/svg" viewBox="0 0 96 96"><path fill="#1572B6" d="M24.976 73.6 19.855 16h56.447l-5.12 57.6L48.015 80l-23.04-6.4Z"/><path fill="#33A9DC" d="M71.056 20.736h-23.04v54.4l18.688-5.12 4.352-49.28Z"/><path fill="#fff" d="M58 34.304h-9.984v-7.04H65.68L63.76 48.64H47.888V41.6h9.344L58 34.304Z"/><path fill="#EBEBEB" d="M39.695 52.227h-7.04l1.024 11.136 14.464 3.968.039-.01v-7.295l-.026.009-7.808-2.176-.653-5.632Z"/><path fill="#fff" d="m62.608 62.08 1.28-13.695h-7.04l-.896 9.472-7.936 2.176v7.296L62.48 63.36l.128-1.28Z"/><path fill="#EBEBEB" d="M48.016 34.304v.013H30.992l-.512-5.12-.128-1.92h17.664v7.027ZM48.015 48.639v.012h-7.808l-.512-5.12-.128-1.92h8.448v7.027Z"/></svg>