<svg xmlns="http://www.w3.org/2000/svg"  viewBox="0 0 96 96"><g clip-path="url(#a)"><path fill="#0091E2" d="M96 .001H0v96h96v-96Z"/><path fill="#fff" d="M86.476 41.671c-.2-.163-2.02-1.53-5.858-1.53a16.45 16.45 0 0 0-3.036.263c-.74-5.106-4.956-7.59-5.144-7.703L71.41 32.1l-.677.979a13.692 13.692 0 0 0-1.832 4.29c-.69 2.91-.276 5.645 1.205 7.979-1.782.99-4.655 1.242-5.232 1.254H17.44a2.243 2.243 0 0 0-2.245 2.246c-.05 4.152.652 8.28 2.07 12.181 1.63 4.29 4.065 7.44 7.226 9.372 3.538 2.17 9.296 3.412 15.832 3.412a47.01 47.01 0 0 0 8.794-.803 36.702 36.702 0 0 0 11.467-4.165 31.586 31.586 0 0 0 7.828-6.41c3.751-4.253 5.997-8.995 7.665-13.198h.665c4.115 0 6.65-1.644 8.042-3.024a8.632 8.632 0 0 0 2.12-3.136l.288-.865-.715-.54ZM21.83 45.234h6.36c.302 0 .553-.251.553-.552v-5.658a.577.577 0 0 0-.552-.565h-6.36a.557.557 0 0 0-.553.552v5.67c0 .315.251.553.552.553Zm8.77 0h6.36c.301 0 .552-.251.552-.552v-5.658a.577.577 0 0 0-.552-.565H30.6a.562.562 0 0 0-.565.565v5.658c0 .313.25.552.564.552Zm8.882.012h6.36c.301 0 .552-.25.552-.552v-5.658a.576.576 0 0 0-.552-.564h-6.36a.557.557 0 0 0-.552.552v5.67c0 .301.25.54.552.552Zm8.794 0h6.36c.301 0 .552-.25.565-.552v-5.658a.562.562 0 0 0-.565-.564h-6.36a.557.557 0 0 0-.552.552v5.67c0 .301.238.552.552.552Zm-17.689-8.154h6.36a.56.56 0 0 0 .552-.564v-5.659a.557.557 0 0 0-.552-.552h-6.36a.568.568 0 0 0-.564.552v5.659a.579.579 0 0 0 .564.564Zm8.895 0h6.36a.56.56 0 0 0 .552-.564v-5.659a.557.557 0 0 0-.552-.552h-6.36a.557.557 0 0 0-.552.552v5.659c0 .313.25.564.552.564Zm8.794 0h6.36a.57.57 0 0 0 .565-.564v-5.659a.552.552 0 0 0-.565-.552h-6.36a.557.557 0 0 0-.552.552v5.659c0 .313.238.564.552.564Zm0-8.142h6.36c.314 0 .565-.25.565-.564v-5.67a.56.56 0 0 0-.565-.553h-6.36a.557.557 0 0 0-.552.552v5.67c0 .314.238.565.552.565Zm8.857 16.296h6.36c.301 0 .552-.25.552-.552v-5.658a.568.568 0 0 0-.552-.564h-6.36a.557.557 0 0 0-.552.552v5.67c0 .301.25.552.552.552Z"/></g><defs><clipPath id="a"><path fill="#fff" d="M0 .001h96v96H0z"/></clipPath></defs></svg>