<svg xmlns="http://www.w3.org/2000/svg"  viewBox="0 0 96 96"><path fill="#0ACF83" d="M36.004 84c6.624 0 12-5.376 12-12V59.998h-12c-6.624 0-12 5.376-12 12 0 6.625 5.376 12 12 12Z"/><path fill="#A259FF" d="M24.004 48.001c0-6.624 5.376-12 12-12h12v24h-12c-6.624 0-12-5.376-12-12Z"/><path fill="#F24E1E" d="M24.004 24c0-6.625 5.376-12.001 12-12.001h12v24h-12c-6.624 0-12-5.376-12-12Z"/><path fill="#FF7262" d="M48.005 11.999h12c6.624 0 12 5.376 12 12 0 6.625-5.376 12-12 12h-12V12Z"/><path fill="#1ABCFE" d="M72.005 48.001c0 6.624-5.376 12-12 12s-12-5.376-12-12 5.376-12 12-12 12 5.376 12 12Z"/></svg>