<svg xmlns="http://www.w3.org/2000/svg"  viewBox="0 0 96 96"><path fill="#fff" d="M76.286 48.002h-18v5.142H70.63c-1.8 7.715-7.457 14.143-14.914 16.715L26.143 40.287c3.086-9 11.829-15.428 21.858-15.428 7.714 0 14.657 3.857 19.028 9.771l3.857-3.343c-5.143-6.943-13.371-11.571-22.885-11.571-13.372 0-24.686 9.514-27.515 22.114L54.43 75.773c12.343-3.086 21.857-14.4 21.857-27.771Zm-56.571.257c0 7.2 2.828 14.142 8.228 19.543 5.4 5.4 12.6 8.228 19.543 8.228L19.715 48.26Z"/><path fill="#639" d="M48 12.001c-19.8 0-36 16.2-36 36s16.2 36 36 36 36-16.2 36-36-16.2-36-36-36ZM27.943 68.058c-5.4-5.4-8.229-12.6-8.229-19.543l28.029 27.772c-7.2-.258-14.4-2.829-19.8-8.229Zm26.228 7.457L20.486 41.83C23.314 29.23 34.629 19.715 48 19.715c9.514 0 17.743 4.629 22.886 11.572l-3.857 3.343C62.657 28.715 55.714 24.858 48 24.858c-10.029 0-18.514 6.429-21.857 15.429l29.571 29.571c7.457-2.571 13.115-9 14.915-16.714H58.286V48h18c0 13.371-9.515 24.686-22.115 27.514Z"/></svg>