<svg xmlns="http://www.w3.org/2000/svg"  viewBox="0 0 96 96"><path fill="#E24329" d="m48.028 81.255 13.257-40.8H34.771l13.257 40.8Z"/><path fill="#FC6D26" d="m48.028 81.255-13.257-40.8H16.19l31.837 40.8Z"/><path fill="#FCA326" d="m16.191 40.454-4.028 12.4a2.745 2.745 0 0 0 .997 3.068l34.868 25.334-31.837-40.802Z"/><path fill="#E24329" d="M16.191 40.453h18.58L26.786 15.88c-.41-1.265-2.2-1.264-2.61 0l-7.985 24.574Z"/><path fill="#FC6D26" d="m48.029 81.255 13.257-40.8h18.58l-31.837 40.8Z"/><path fill="#FCA326" d="m79.865 40.454 4.029 12.4a2.745 2.745 0 0 1-.997 3.068L48.028 81.256l31.837-40.802Z"/><path fill="#E24329" d="M79.865 40.453h-18.58L69.27 15.88c.41-1.265 2.2-1.264 2.61 0l7.985 24.574Z"/></svg>