<svg xmlns="http://www.w3.org/2000/svg"  viewBox="0 0 96 96"><path fill="#E535AB" d="M48 12.081a6.44 6.44 0 0 0-6.467 6.467c0 .575.086 1.294.287 1.868l-14.802 8.48c-.431-.432-.863-.863-1.437-1.15-3.018-1.725-7.042-.719-8.767 2.3-1.724 3.017-.718 7.041 2.3 8.766.574.287 1.15.574 1.724.718v17.102c-.575.144-1.15.431-1.725.718-3.017 1.725-4.167 5.749-2.299 8.767a6.332 6.332 0 0 0 8.767 2.3c.574-.288 1.006-.72 1.437-1.15l14.802 8.479c-.144.575-.287 1.15-.287 1.868A6.44 6.44 0 0 0 48 84.081a6.44 6.44 0 0 0 6.467-6.467c0-.719-.115-1.437-.288-2.012l14.66-8.479c.43.431 1.005 1.006 1.58 1.293 3.018 1.725 7.042.719 8.766-2.299 1.725-3.018.719-7.042-2.299-8.767-.575-.287-1.15-.574-1.725-.718V39.53c.575-.144 1.15-.431 1.725-.718 3.018-1.725 4.168-5.749 2.3-8.767-1.725-3.018-5.75-4.168-8.767-2.3-.575.288-1.006.72-1.437 1.15l-14.803-8.479c.144-.575.288-1.15.288-1.868A6.44 6.44 0 0 0 48 12.081Zm-4.6 10.922.145.144-19.402 33.485a2.043 2.043 0 0 0-.287-.072V39.458c1.58-.43 3.162-1.437 4.024-3.018.862-1.58 1.006-3.305.575-5.03L43.4 23.003Zm9.199.007L67.4 31.633c-.431 1.581-.287 3.45.575 4.886.862 1.581 2.3 2.587 4.024 3.018V56.64c-.087.014-.144.043-.288.072l-19.4-33.485.143-.144.144-.072Zm-2.875 1.725L69.126 58.22c-.432.431-.863.862-1.15 1.437-.288.575-.575 1.15-.719 1.725H28.598c-.143-.575-.43-1.15-.718-1.725-.287-.575-.719-1.006-1.15-1.437l19.402-33.485c.574.144 1.15.287 1.724.287a5.17 5.17 0 0 0 1.725-.287h.143ZM28.6 64.4h38.658c.029.143.072.287.115.43l-14.658 8.48c-1.15-1.294-2.875-2.156-4.743-2.156-1.868 0-3.45.719-4.599 2.012L28.57 64.687c.029-.086.043-.144.072-.287h-.043Z"/></svg>