<svg xmlns="http://www.w3.org/2000/svg"  viewBox="0 0 96 96"><path fill="url(#graph-code-a)" fill-rule="evenodd" d="M12 29.967c0 2.158 1.08 4.008 2.93 5.088.308.154.77.308 1.079.462.077.031.154.046.308.077h.123c.124.124.309.124.463.124h1.696c.061 0 .154-.031.308-.062.093-.03.154-.062.308-.062h.124c.061 0 .154-.03.308-.061.093-.031.154-.062.309-.062 2.158-.925 3.854-2.93 3.854-5.396 0-.154-.031-.308-.062-.463a2.376 2.376 0 0 1-.062-.462l23.898-13.722c.308-.123.77-.308 1.079-.308.309 0 .771 0 1.08.308l20.196 11.717c.771-1.85 1.85-3.237 3.392-4.316L52.518 10.803c-1.08-.617-2.467-1.08-3.855-1.08-1.233 0-2.62.309-3.854 1.08l-24.514 14.03c-.617-.308-1.388-.463-2.313-.463a5.856 5.856 0 0 0-5.858 5.859L12 29.967Zm69.996 4.317C83.229 33.204 84 31.817 84 29.967c0-3.238-2.621-5.859-6.013-5.859-.616 0-1.233.124-1.85.309-.123.061-.154.092-.308.123-.093.03-.154.062-.309.123 0 .124-.123.124-.123.124-.093.046-.154.077-.308.108-.108.046-.154.077-.309.154 0 .123-.123.123-.123.123-.308.308-.617.463-1.08.925a.575.575 0 0 0-.153.308c-.062.093-.124.155-.155.309-.77 1.079-1.079 2.158-1.079 3.392 0 2.62 1.85 4.78 4.163 5.55V62.02c0 .925-.308 1.696-1.08 2.004l-19.888 11.41c1.08 1.387 1.85 3.237 1.85 5.241L78.05 68.804c2.313-1.388 3.854-4.009 3.854-6.784l.093-27.736ZM54.244 80.69c0-.309 0-.309.123-.309v-.925c-.123-.124-.123-.124-.123-.309 0-.061-.031-.092-.062-.123-.03-.03-.062-.062-.062-.123-.077-.078-.107-.108-.123-.14-.01-.03-.01-.06-.01-.107 0 0-.123-.123-.123-.308-.123 0-.123-.124-.123-.124s-.123-.123-.123-.308c-.123 0-.123-.124-.123-.124-.062-.061-.093-.123-.124-.154-.03-.061-.062-.123-.123-.154v-.123c-1.08-1.542-2.775-2.467-4.625-2.467s-3.392.77-4.471 2.004L21.487 63.792c-.617-.308-1.08-1.079-1.08-2.004V38.353c-.77.309-1.696.309-2.466.309-.925 0-1.85-.309-2.776-.463v23.435c0 2.775 1.388 5.396 3.855 6.784l24.205 14.03c.771 2.312 2.93 4.008 5.397 4.008 2.929 0 5.242-2.158 5.704-4.78v-.123c.123-.308.123-.616.123-.925l-.206.063ZM64.728 34.13c0 .123 0 .123.123.308 0 .123 0 .308.309.123v21.122c0 .463-.309.925-.771 1.08L43.267 68.172c-.123.123-.123.123-.309.123H41.88c-.123-.123-.308-.123-.308-.123l-14.647-8.017c-.308-.309-.616-.617-.616-1.08V53.68c.123 0 .123-.123.123-.123l.308-.309c0-.123.123-.123.123-.123 0-.123.124-.123.124-.123l5.704-2.775v-15.88c.124-.124.124-.309.124-.309l.308-.308c0-.124.123-.124.123-.124l.124-.123 10.33-5.704-.309-1.08c-.462-.308-.77-1.079-.77-1.696v-.123c0-.123 0-.308.123-.462.462-1.696 2.929-2.776 6.167-2.776 3.237 0 5.704 1.08 6.167 2.776.123.123.123.308.123.462v.123c0 .617-.308 1.08-.77 1.696l-.31 1.08 10.33 5.704.124.123c0 .124.123.124.123.124l.124.123c.123 0 .123.123.123.123l-.216.155Zm-17.73-5.397.308.463 1.08 2.621h.77l1.388-3.084c-.463.124-1.08.124-1.85.124h-.001c-.617 0-1.233 0-1.85-.123h.155Zm5.396-3.391c-.462-.309-1.696-.771-3.392-.771-1.85 0-3.083.462-3.392.77.463.309 1.696.771 3.392.771 1.85 0 3.084-.462 3.392-.77Zm-6.475 7.554-1.08-2.312-7.863 4.317 11.718 6.475L60.41 34.9l-7.863-4.317-1.079 2.312c-.308 1.08-1.388 1.85-2.93 1.85-1.541 0-2.62-.77-2.929-1.85h.309Zm1.541 11.1L35.59 37.368v13.105l11.871 6.63V43.997Zm-18.5 14.648 11.87 6.63v-1.851l-11.87-6.63v1.85Zm6.475-1.234 6.938 3.855 3.546-1.85L34.2 52.938l-3.546 1.85 4.78 2.621Zm8.325 8.017 18.347-9.867V37.676l-11.871 6.63v15.88c-.124 0-.124.123-.124.123-.123 0-.123.123-.123.123l-.123.123c0 .124-.124.124-.124.124 0 .123-.123.123-.123.123l-5.705 2.775-.154 1.85Z" clip-rule="evenodd"/><defs><linearGradient id="graph-code-a" x1="43.914" x2="73.053" y1="21.641" y2="72.982" gradientUnits="userSpaceOnUse"><stop stop-color="#E535AB"/><stop offset="1" stop-color="#1BCBE2"/></linearGradient></defs></svg>