<svg xmlns="http://www.w3.org/2000/svg"  viewBox="0 0 96 96"><path fill="#E34C26" d="m75.707 16-4.683 57.756L47.609 80l-23.414-6.244L19.512 16h56.195Z"/><path fill="#F06529" d="m47.61 75.318 18.731-6.244 4.683-48.39H47.609v54.634Z"/><path fill="#fff" d="m55.414 58.147-7.805 1.561-7.805-1.56v-6.245H32L33.56 62.83l14.05 4.683 14.048-4.683 3.122-21.853H38.243v-6.244H64.78v-7.805H30.439l1.56 21.853h24.976l-1.56 9.366Z"/><path fill="#EBEBEB" d="M47.61 34.733v-7.805H30.438l1.56 21.853h15.61v-7.804h-9.366v-6.244h9.366ZM47.609 67.512v-7.805l-7.805-1.56v-6.245h-7.805L33.56 62.83l14.049 4.683Z"/></svg>