<svg xmlns="http://www.w3.org/2000/svg"  viewBox="0 0 96 96"><path fill="#000" d="M41.359 14.912 14.779 42.11c-8.98 11.121 6.112 9.828 12.582 13.03 2.32 2.373-8.895 4.124-6.574 6.498 2.32 2.372 14.033 4.57 16.358 6.943 2.32 2.372-4.75 4.888-2.43 7.26 2.32 2.373 7.688.125 8.694 5.602.716 3.913 9.672 1.681 14.053-1.524 2.32-2.374-4.44-2.15-2.12-4.523 5.772-5.901 11.146-2.144 13.12-8.058.975-2.922-8.495-4.505-6.17-6.877 6.677-3.9 29.756-6.438 18.805-17.39l-27.55-28.159c-3.37-3.235-8.993-3.27-12.188 0Zm30.53 52.426c0 1.35 9.942 2.234 9.942-.319-1.417-4.099-8.767-3.822-9.942.319Zm-44.785 7.17c2.354 2.036 5.99-.506 7.08-3.347-2.28-3.032-10.82.108-7.08 3.347Zm43.538-4.398c-3.035 2.722.34 5.484 3.332 3.725.667-.676-.018-3.048-3.332-3.725Z"/><path fill="#fff" d="M34.998 56.611c.71.442 11.454 2.624 14.08 3.06.91.191.264 1.129-.99 1.762-2.829.752-16.552-4.822-13.09-4.822ZM51.94 16.819l10.516 10.68c.997 1.019.983 2.993.425 3.561l-5.22-4.176-1.028 6.184-4.362-2.303-6.986 4.414-2.313-9.305-3.753 6.494H33.48c-2.338 0-2.613-2.968-.489-5.093 3.712-4.006 7.972-8.09 10.287-10.456 2.326-2.378 6.38-2.31 8.661 0Z"/></svg>