<svg xmlns="http://www.w3.org/2000/svg" viewBox="0 0 96 96"><path fill="#F7DF1E" d="M96 0H0v96h96V0Z"/><path d="M58.88 66.24c1.6 2.72 3.84 4.64 7.52 4.64 3.2 0 5.28-1.6 5.28-3.84 0-2.56-2.08-3.52-5.6-5.12l-1.92-.8c-5.6-2.4-9.28-5.28-9.28-11.52 0-5.76 4.32-10.24 11.2-10.24 4.96 0 8.48 1.76 10.88 6.24l-5.92 3.84c-1.28-2.4-2.72-3.36-4.96-3.36-2.24 0-3.68 1.44-3.68 3.36 0 2.24 1.44 3.2 4.8 4.64l1.92.8c6.56 2.88 10.24 5.6 10.24 12.16 0 6.88-5.44 10.72-12.8 10.72-7.2 0-11.84-3.36-14.08-7.84l6.4-3.68Zm-27.2.64c1.28 2.08 2.24 4 4.96 4 2.56 0 4.16-.96 4.16-4.8V39.52h7.68v26.24c0 8-4.64 11.52-11.52 11.52-6.24 0-9.76-3.2-11.52-7.04l6.24-3.36Z"/></svg>