<svg xmlns="http://www.w3.org/2000/svg"  viewBox="0 0 96 96"><path fill="#15C213" d="M78.754 47.459c0-4.336-2.981-7.984-6.983-9.026L80.734 12H36.313l8.984 26.515c-3.877 1.126-6.733 4.711-6.733 8.964 0 3.127 1.563 5.9 3.94 7.608a24.842 24.842 0 0 1-3.252 3.732c-2.314 2.168-4.878 3.835-7.65 4.94-2.502-1.688-3.586-4.67-2.606-7.337a9.34 9.34 0 0 0 6.587-8.922c0-5.15-4.19-9.318-9.318-9.318-5.149 0-9.339 4.19-9.339 9.339a9.267 9.267 0 0 0 2.71 6.545c-.146.292-.292.584-.438.896-1.396 2.877-2.98 6.129-3.585 9.777-1.209 7.296.771 13.153 5.545 16.468C23.847 83.063 26.808 84 29.996 84c5.483 0 11.049-2.752 16.427-5.42 3.835-1.897 7.796-3.877 11.694-4.836 1.438-.354 2.94-.563 4.523-.792 3.21-.459 6.525-.938 9.506-2.668 3.481-2.022 5.857-5.4 6.545-9.276.521-2.981 0-5.983-1.334-8.61a9.287 9.287 0 0 0 1.397-4.94Zm-4.065 0a5.258 5.258 0 0 1-5.253 5.253 5.258 5.258 0 0 1-4.565-7.859c.166-.291.375-.583.583-.834.209-.25.459-.479.73-.687l.02-.021c.168-.125.355-.25.543-.376 0 0 .02 0 .02-.02.084-.042.168-.105.25-.146.022 0 .043-.021.063-.021.084-.042.188-.083.292-.125.104-.042.209-.084.292-.125.02 0 .042-.021.063-.021.083-.02.166-.063.25-.083.02 0 .062-.021.083-.021.104-.021.188-.042.292-.063h.02l.314-.062c.02 0 .062 0 .083-.021.083 0 .167-.021.25-.021h.104c.104 0 .209-.02.334-.02h.27c.084 0 .147 0 .23.02h.042c.166.02.333.042.5.083 2.376.5 4.19 2.627 4.19 5.17ZM42.129 16.17h32.79l-7.526 22.2c-.313.063-.625.167-.938.271l-7.921-16.155-7.942 16.051a7.432 7.432 0 0 0-.98-.23L42.128 16.17Zm14.904 29.475a9.25 9.25 0 0 0-2.814-5.002l4.315-8.714 4.356 8.901c-1.292 1.293-2.23 2.94-2.605 4.815h-3.252Zm-10.444-3.293c.105-.021.188-.042.292-.063h.063c.083-.02.166-.02.25-.041h.083c.084 0 .146-.021.23-.021h.813c.083 0 .145.02.208.02.042 0 .063 0 .104.022.084.02.146.02.23.041.02 0 .041 0 .083.021.104.02.208.042.292.063h.02c.084.02.167.041.25.083.022 0 .042.02.084.02.063.022.146.042.209.084.02 0 .041.021.062.021.084.042.167.063.25.104h.021c.104.042.188.084.271.146h.02c.084.042.168.104.251.146.02 0 .02.02.042.02.083.043.146.105.229.147l.02.02c.251.188.48.397.71.605l.02.021c.209.23.417.48.584.75a5.258 5.258 0 0 1-4.398 8.13 5.258 5.258 0 0 1-5.253-5.253c-.021-2.439 1.667-4.503 3.96-5.086Zm-20.511-.146a5.258 5.258 0 0 1 5.253 5.253 5.258 5.258 0 0 1-5.253 5.253 5.258 5.258 0 0 1-5.254-5.253 5.258 5.258 0 0 1 5.253-5.253Zm48.486 18.073c-.459 2.668-2.105 5.003-4.524 6.4-2.272 1.313-5.065 1.73-8.004 2.147-1.605.229-3.294.479-4.92.875-4.336 1.063-8.505 3.148-12.549 5.149-5.17 2.564-10.047 4.982-14.57 4.982-2.356 0-4.462-.667-6.463-2.064-4.586-3.168-4.356-9.11-3.814-12.361.5-3.044 1.897-5.9 3.23-8.63.084-.167.147-.313.23-.48a8.09 8.09 0 0 0 1.438.376c-.792 4.419 1.46 8.984 5.837 11.235l.792.417.855-.313c3.648-1.292 7.025-3.397 10.006-6.211a27.998 27.998 0 0 0 4.335-5.15c.48.084.96.105 1.439.105 4.336 0 7.983-2.98 9.026-6.983h3.502c1.042 4.023 4.69 6.983 9.026 6.983 1.73 0 3.335-.48 4.711-1.292.542 1.563.709 3.189.417 4.815Z"/></svg>