<svg xmlns="http://www.w3.org/2000/svg"  viewBox="0 0 96 96"><path fill="#339AF0" d="M83.568 48.001c0-19.882-16.034-36-35.814-36s-35.816 16.118-35.816 36 16.035 36 35.815 36c19.78 0 35.815-16.118 35.815-36Z"/><path fill="#fff" d="M41.084 31.017a2.754 2.754 0 0 0-.149 3.041c.184.308.427.576.715.79 4.172 3.107 6.567 7.859 6.567 13.039s-2.395 9.931-6.567 13.04c-.287.212-.53.48-.714.788a2.743 2.743 0 0 0 1.418 3.985 2.718 2.718 0 0 0 2.544-.38 22.13 22.13 0 0 0 3.51-3.263h7.727a2.732 2.732 0 0 0 2.727-2.736 2.73 2.73 0 0 0-2.727-2.736H51.87a21.717 21.717 0 0 0 1.799-8.698 21.719 21.719 0 0 0-1.798-8.698h4.267a2.732 2.732 0 0 0 2.726-2.736 2.73 2.73 0 0 0-2.726-2.736h-7.725A22.133 22.133 0 0 0 44.9 30.45a2.716 2.716 0 0 0-3.813.567h-.003Z"/><path fill="#fff" fill-rule="evenodd" d="M36.779 47.07a4.127 4.127 0 0 1 1.147-2.953c.376-.389.826-.699 1.323-.911a4.003 4.003 0 0 1 4.46.911c.377.391.673.853.87 1.36a4.126 4.126 0 0 1-.94 4.418 4.017 4.017 0 0 1-2.821 1.162 4.017 4.017 0 0 1-2.822-1.162 4.108 4.108 0 0 1-1.218-2.825Z" clip-rule="evenodd"/></svg>