<svg xmlns="http://www.w3.org/2000/svg"  viewBox="0 0 96 96"><mask id="a" width="72" height="73" x="12" y="12" maskUnits="userSpaceOnUse" style="mask-type:alpha"><path fill="#000" d="M48 84.001c19.882 0 36-16.118 36-36s-16.118-36-36-36-36 16.118-36 36 16.118 36 36 36Z"/></mask><g mask="url(#a)"><path fill="#000" d="M48 84.001c19.882 0 36-16.118 36-36s-16.118-36-36-36-36 16.118-36 36 16.118 36 36 36Z"/><path fill="url(#b)" d="M71.803 75.01 39.656 33.602H33.6v28.789h4.845V39.755L68 77.94a36.122 36.122 0 0 0 3.804-2.93Z"/><path fill="url(#c)" d="M62.8 33.602H58v28.8h4.8v-28.8Z"/></g><defs><linearGradient id="b" x1="55.6" x2="69.8" y1="58.602" y2="76.203" gradientUnits="userSpaceOnUse"><stop stop-color="#fff"/><stop offset="1" stop-color="#fff" stop-opacity="0"/></linearGradient><linearGradient id="c" x1="60.4" x2="60.32" y1="33.602" y2="54.752" gradientUnits="userSpaceOnUse"><stop stop-color="#fff"/><stop offset="1" stop-color="#fff" stop-opacity="0"/></linearGradient></defs></svg>