<svg xmlns="http://www.w3.org/2000/svg" viewBox="0 0 96 96">
  <path fill="#83cd29" d="M77.3 28 51 12.8a5.66 5.66 0 0 0-5.48 0L19.02 28a5.7 5.7 0 0 0-2.92 4.81v30.5a5.74 5.74 0 0 0 2.95 4.81l7.01 3.98c3.35 1.65 4.54 1.65 6.06 1.65 4.96 0 7.8-3 7.8-8.23v-30.1c0-.42-.22-1.06-.64-1.06h-3.35c-.42 0-1.37.63-1.37 1.06v30.1c0 2.32-2.1 4.63-6.02 2.67l-7.24-4.18a.82.82 0 0 1-.43-.7V32.8c0-.29.33-.58.59-.72l26.5-15.2a.93.93 0 0 1 .85 0l26.1 15.2c.25.15.17.43.17.72v30.5c0 .3.1.57-.14.71l-26.3 15.2a.75.75 0 0 1-.75 0l-6.73-4.02c-.2-.11-.45-.16-.64-.05a17.53 17.53 0 0 1-3.98 1.81c-.43.15-1.07.41.24 1.15l8.81 5.21a5.53 5.53 0 0 0 2.77.74c.98 0 1.94-.25 2.78-.74l26.1-15.2c1.71-1 2.52-2.84 2.52-4.8v-30.5c0-1.99-.8-3.83-2.52-4.82zM56.5 58.4c-6.98 0-8.52-1.93-9.03-5.4-.06-.37-.38-.82-.76-.82h-3.4c-.43 0-.77.51-.77.93 0 4.45 2.42 9.83 14 9.83 8.36 0 13.2-3.25 13.2-9 0-5.7-3.85-7.2-12-8.27-8.19-1.08-9.03-1.63-9.03-3.55 0-1.58.7-3.69 6.77-3.69 5.42 0 7.42 1.16 8.24 4.82.07.35.38.6.74.6h3.43c.21 0 .41-.1.56-.24a.77.77 0 0 0 .2-.59c-.53-6.29-4.71-9.23-13.2-9.23-7.52 0-12 3.18-12 8.5 0 5.77 4.46 7.37 11.7 8.08 8.64.85 9.3 2.11 9.3 3.81 0 2.95-2.36 4.21-7.91 4.21z"/>
</svg>
