<svg xmlns="http://www.w3.org/2000/svg"  viewBox="0 0 96 96"><path fill="#2D4552" d="M34.594 52.648c-2.687.763-4.45 2.1-5.612 3.437 1.112-.974 2.603-1.867 4.613-2.437 2.056-.583 3.81-.579 5.26-.3v-1.133c-1.237-.113-2.654-.023-4.26.433ZM28.86 43.12l-9.982 2.63s.182.257.519.6l8.463-2.23s-.12 1.545-1.161 2.928c1.97-1.49 2.161-3.928 2.161-3.928Zm8.355 23.46c-14.047 3.783-21.479-12.496-23.729-20.946-1.04-3.9-1.493-6.854-1.614-8.76a3.228 3.228 0 0 1 .007-.518c-.729.044-1.078.423-1.007 1.517.121 1.906.575 4.86 1.615 8.76 2.249 8.45 9.682 24.728 23.729 20.945 3.058-.824 5.355-2.324 7.079-4.24-1.59 1.436-3.579 2.567-6.08 3.241Zm2.64-33.423v1h5.51c-.113-.354-.227-.673-.34-1h-5.17Z"/><path fill="#2D4552" d="M46.595 41.39c2.478.703 3.789 2.44 4.481 3.978l2.763.785s-.377-5.381-5.244-6.764c-4.553-1.293-7.355 2.53-7.696 3.025 1.325-.944 3.26-1.716 5.696-1.024Zm21.993 4.003c-4.557-1.3-7.358 2.532-7.694 3.02 1.326-.943 3.259-1.716 5.695-1.02 2.474.704 3.783 2.439 4.478 3.977l2.767.788s-.383-5.382-5.246-6.765ZM65.843 59.58 42.86 53.155s.248 1.261 1.203 2.895l19.351 5.41c1.593-.922 2.43-1.88 2.43-1.88ZM49.91 73.41C31.71 68.531 33.91 45.344 36.855 34.357c1.213-4.529 2.459-7.894 3.493-10.15-.617-.127-1.128.198-1.633 1.224-1.097 2.226-2.5 5.85-3.859 10.925-2.944 10.987-5.144 34.173 13.054 39.053 8.577 2.297 15.26-1.195 20.24-6.68-4.728 4.282-10.764 6.683-18.241 4.681Z"/><path fill="#E2574C" d="M39.855 61.147v-4.68l-13.001 3.687s.96-5.581 7.74-7.505c2.057-.583 3.811-.579 5.26-.299V33.158h6.51c-.709-2.19-1.394-3.876-1.97-5.048-.953-1.939-1.93-.653-4.146 1.201-1.562 1.305-5.508 4.087-11.447 5.688-5.938 1.6-10.74 1.176-12.742.83-2.84-.49-4.326-1.114-4.187 1.046.121 1.905.575 4.859 1.614 8.76 2.25 8.449 9.683 24.728 23.73 20.944 3.67-.988 6.26-2.942 8.054-5.433h-5.415ZM18.876 45.75l9.983-2.63s-.29 3.84-4.033 4.827c-3.744.986-5.95-2.197-5.95-2.197Z"/><path fill="#2EAD33" d="M77.424 33.38c-2.595.455-8.82 1.021-16.514-1.04-7.696-2.062-12.802-5.666-14.825-7.36-2.868-2.403-4.13-4.072-5.37-1.547-1.098 2.227-2.502 5.852-3.86 10.926C33.91 45.346 31.71 68.532 49.908 73.41c18.194 4.875 27.88-16.306 30.824-27.294 1.358-5.073 1.954-8.915 2.118-11.392.187-2.805-1.74-1.99-5.426-1.345Zm-36.562 9.09s2.868-4.46 7.732-3.078c4.867 1.383 5.244 6.764 5.244 6.764L40.862 42.47Zm11.873 20.015c-8.555-2.506-9.874-9.328-9.874-9.328l22.982 6.425s-4.64 5.378-13.108 2.903Zm8.126-14.02s2.864-4.458 7.727-3.071c4.863 1.384 5.246 6.765 5.246 6.765L60.86 48.465Z"/><path fill="#D65348" d="m35.313 57.76-8.458 2.396s.919-5.233 7.15-7.307l-4.79-17.973-.414.126c-5.938 1.601-10.74 1.176-12.742.83-2.84-.49-4.326-1.114-4.187 1.046.121 1.905.575 4.859 1.614 8.76 2.25 8.449 9.683 24.728 23.73 20.945l.414-.13-2.318-8.694ZM18.877 45.754l9.983-2.63s-.29 3.84-4.033 4.826c-3.744.986-5.95-2.197-5.95-2.197Z"/><path fill="#1D8D22" d="m53.121 62.579-.387-.094c-8.555-2.506-9.875-9.328-9.875-9.328l11.852 3.312 6.274-24.11-.076-.02c-7.696-2.06-12.802-5.665-14.825-7.36-2.868-2.402-4.13-4.07-5.37-1.546-1.097 2.227-2.5 5.852-3.86 10.926-2.943 10.987-5.143 34.173 13.054 39.052l.373.084 2.84-10.916ZM40.862 42.47s2.868-4.46 7.732-3.078c4.867 1.383 5.244 6.764 5.244 6.764L40.862 42.47Z"/><path fill="#C04B41" d="m35.743 57.631-2.268.644c.535 3.02 1.48 5.92 2.962 8.48.258-.056.514-.105.777-.177a16.445 16.445 0 0 0 1.942-.667c-1.656-2.458-2.752-5.289-3.413-8.28Zm-.886-21.275c-1.166 4.35-2.208 10.612-1.921 16.892.514-.223 1.056-.43 1.66-.602l.419-.093c-.512-6.709.595-13.545 1.841-18.196a90.86 90.86 0 0 1 .949-3.292c-.509.324-1.057.656-1.68.998a86.244 86.244 0 0 0-1.268 4.293Z"/></svg>