<svg xmlns="http://www.w3.org/2000/svg"  viewBox="0 0 96 96"><path fill="#087ea4" d="M70.773 36.897c-.72-.289-1.587-.433-2.308-.722.13-.577.288-1.01.288-1.587 1.732-8.369.578-15.15-3.318-17.315-3.752-2.164-9.812.087-15.872 5.483-.577.578-1.154 1.01-1.731 1.587l-1.155-1.154c-6.348-5.627-12.841-8.08-16.737-5.916-3.751 2.165-4.762 8.513-3.174 16.45.144.72.288 1.586.577 2.308l-2.597.866c-7.503 2.597-12.986 6.781-12.986 10.965 0 4.329 5.771 8.802 13.563 11.543.577.145 1.298.433 1.876.578-.145.865-.433 1.731-.578 2.597-1.442 7.791-.288 13.996 3.319 16.16 3.751 2.164 10.244-.058 16.449-5.483.433-.433 1.01-.866 1.443-1.299.577.578 1.298 1.155 1.876 1.732 6.06 5.194 11.975 7.214 15.727 5.194 3.751-2.164 5.05-8.801 3.463-17.026-.13-.577-.289-1.298-.433-1.875.433-.13.866-.29 1.298-.433 8.08-2.742 13.996-7.07 13.996-11.543 0-4.329-5.483-8.369-13.274-11.11h.288ZM51.728 24.92c5.194-4.617 10.1-6.349 12.408-5.05 2.453 1.298 3.319 6.925 1.732 14.14-.101.433-.145 1.01-.289 1.443-3.174-.722-6.348-1.155-9.523-1.443-1.876-2.597-3.896-5.195-6.06-7.503.577-.577 1.154-1.01 1.587-1.443l.145-.144Zm-16.305 30.3c.721 1.154 1.443 2.453 2.164 3.607-2.164-.288-4.328-.577-6.493-1.01.578-2.02 1.443-4.184 2.309-6.204.577 1.298 1.299 2.453 2.02 3.607Zm-4.329-16.882c2.02-.432 4.185-.865 6.493-1.154-.721 1.154-1.443 2.309-2.164 3.607-.721 1.155-1.299 2.453-2.02 3.608-.866-2.165-1.587-4.185-2.309-6.205v.144Zm3.896 9.668c.866-1.876 1.876-3.896 3.03-5.772 1.01-1.876 2.164-3.751 3.463-5.483 2.164-.144 4.329-.288 6.493-.288 2.164 0 4.329.086 6.493.288 1.154 1.732 2.309 3.607 3.463 5.483a53.606 53.606 0 0 1 3.03 5.627c-1.01 1.876-2.02 3.896-3.03 5.772-1.01 1.876-2.164 3.751-3.463 5.483-2.164.144-4.329.288-6.493.288-2.164 0-4.329-.072-6.493-.144-1.154-1.731-2.453-3.607-3.463-5.483-1.154-1.876-2.02-3.751-3.03-5.771Zm25.395 7.214c.721-1.299 1.443-2.453 2.02-3.751.866 2.02 1.731 4.184 2.453 6.204-2.165.433-4.329.866-6.638 1.154.722-1.154 1.443-2.453 2.165-3.607Zm2.02-10.821c-.722-1.3-1.299-2.453-2.02-3.752-.722-1.154-1.443-2.453-2.164-3.607 2.308.288 4.472.721 6.492 1.154-.577 2.02-1.442 4.184-2.308 6.06v.145ZM47.832 28.528a70.602 70.602 0 0 1 4.184 5.05 89.976 89.976 0 0 0-8.369 0c1.443-1.876 2.742-3.463 4.185-5.05ZM31.527 19.87c2.309-1.443 7.648.577 13.13 5.483.289.288.722.577 1.01 1.01-2.164 2.308-4.184 4.905-6.06 7.503-3.174.288-6.348.72-9.523 1.442l-.433-2.164c-1.298-6.781-.432-11.976 1.732-13.274h.144Zm-3.463 37.082c-.577-.145-1.154-.29-1.731-.578-3.03-1.01-6.349-2.453-8.946-4.328-1.443-1.01-2.453-2.453-2.597-4.185 0-2.597 4.473-5.915 10.821-8.08.866-.288 1.588-.577 2.453-.721 1.01 3.03 2.165 6.06 3.463 8.946-1.298 2.885-2.453 6.06-3.463 9.09v-.145Zm16.45 13.851c-2.31 2.164-5.051 3.751-7.937 4.906-1.587.721-3.318.866-4.905.144-2.31-1.299-3.175-6.204-1.876-12.986.144-.721.288-1.587.577-2.308 3.174.721 6.349 1.154 9.523 1.442 1.876 2.598 3.896 5.195 6.06 7.503l-1.299 1.3h-.144Zm3.462-3.463c-1.443-1.587-2.886-3.318-4.329-5.05 1.299.058 2.742.087 4.185.087 1.443 0 2.886-.03 4.328-.101-1.298 1.731-2.741 3.463-4.184 5.194v-.13Zm18.469 4.184c-.13 1.732-1.01 3.32-2.309 4.473-2.308 1.299-7.07-.433-12.12-4.761-.577-.577-1.154-1.01-1.731-1.587 2.164-2.453 4.184-4.906 5.915-7.503 3.175-.289 6.493-.722 9.668-1.443l.433 1.731c.721 3.03.865 6.205.288 9.38l-.144-.29Zm2.597-15.15c-.433.13-.721.289-1.154.433-1.01-3.03-2.165-6.06-3.607-8.946a92.852 92.852 0 0 0 3.462-8.801c.722.144 1.443.433 2.165.721 6.637 2.309 11.11 5.628 11.11 8.225 0 2.741-4.906 6.348-11.976 8.657v-.289Zm-21.066-2.164a6.466 6.466 0 0 0 6.493-6.493 6.466 6.466 0 0 0-6.493-6.493 6.466 6.466 0 0 0-6.493 6.493 6.466 6.466 0 0 0 6.493 6.493Z"/></svg>