<svg xmlns="http://www.w3.org/2000/svg"  viewBox="0 0 96 96"><path fill="url(#react-test-a)" d="M82.339 41.233c1.8 6.911-5.831 14.974-15.406 12.742 12.166-8.855 6.623-20.157.144-25.556-6.983-5.904-.216-7.775 2.016-5.616-.073-4.319-15.19-3.311-1.944 10.511 6.767 7.127-1.224 22.75-10.799 10.87-.072-.071-.144-.215-.216-.36 2.808-1.223 3.384-5.183 2.232-8.206 5.76-11.879-1.296-23.613-10.367-23.613-9.07 0-16.126 11.662-10.438 23.469-1.152 2.52-.72 6.983 2.231 8.207-.072.144-.144.216-.216.36-9.574 11.95-17.565-3.744-10.798-10.87 13.246-13.751-1.872-14.687-1.944-10.367 2.232-2.16 8.999-.216 2.016 5.615-6.407 5.399-11.95 16.701.216 25.556-9.575 2.304-17.206-5.759-15.406-12.67-3.096 5.687-.792 16.414 11.446 18.502-13.03 3.023-9.143 21.093.072 18.213-7.847-.504-6.983-9.575-3.815-12.31 3.527-3.024 7.99-.864 16.126-2.232-.072 7.343 7.127 11.23 3.311 15.478-3.96 4.463-9.43-.36-8.567-4.751-3.815 7.847 6.984 14.11 11.735 4.967 3.671-6.983-5.975-19.653 4.031-19.653 10.007 0 .36 12.67 3.96 19.653 4.751 9.143 15.55 2.88 11.734-4.967.864 4.391-4.607 9.142-8.567 4.751-3.743-4.175 3.384-8.135 3.312-15.478 8.135 1.368 12.598-.792 16.126 2.232 3.167 2.736 4.103 11.806-3.816 12.31 9.215 2.88 13.175-15.19.072-18.141 12.31-2.16 14.614-12.887 11.519-18.646Z"/><path fill="url(#react-test-b)" d="M21.507 66.286c3.528-3.024 7.56-.36 15.982-2.808 0 0 .144-2.231.216-3.887-2.592 1.944-7.271 1.656-11.158 2.231-12.815 1.872-10.007 17.35-1.368 16.198-6.335-1.08-6.84-8.998-3.672-11.734Z"/><path fill="url(#react-test-c)" d="M38.28 55.198c1.44-2.232 1.584-5.76-1.295-2.52-9.719 10.87-26.637 2.016-23.325-11.374-3.528 4.823-1.872 17.493 11.446 18.573 3.384-1.152 10.295-.288 13.175-4.68Z"/><path fill="url(#react-test-d)" d="M29.066 53.974s3.383-.36 5.615-2.952c-8.999 3.384-16.414-11.158-5.111-21.021 8.782-7.631-.145-10.655-2.736-7.271.936-.936 8.567-.432 1.656 5.471-6.407 5.471-13.247 16.774.576 25.773Z"/><path fill="url(#react-test-e)" d="M54.478 80.397c-3.743-4.175 0-7.99.72-14.614.432-4.463-1.224-9.43-7.199-9.43s-7.63 4.967-7.199 9.43c.648 6.623 4.464 10.439.72 14.614-3.96 4.464-11.375-.216-9.215-6.19-5.255 8.782 8.135 14.181 12.815 5.11 3.671-6.983-7.128-19.293 2.88-19.293 10.006 0-.793 12.31 2.879 19.293 4.751 9.071 18.141 3.672 12.814-5.11 2.16 5.974-5.255 10.654-9.215 6.19Z"/><path fill="url(#react-test-f)" d="M69.38 61.75c-3.887-.576-8.639-.36-11.158-2.231.144 1.655.216 3.887.216 3.887 8.422 2.448 12.454-.216 15.981 2.808 3.168 2.735 2.736 10.726-3.671 11.734 8.71 1.224 11.518-14.254-1.368-16.198Z"/><path fill="url(#react-test-g)" d="M82.339 41.233c3.311 13.39-13.606 22.245-23.325 11.375-2.88-3.24-2.736.36-1.296 2.52 2.88 4.391 9.79 3.527 13.102 4.679 13.39-1.08 15.046-13.678 11.519-18.574Z"/><path fill="url(#react-test-h)" d="M61.317 51.022c2.232 2.592 5.616 2.952 5.616 2.952 13.75-9 6.983-20.302.576-25.773-6.983-5.903.647-6.407 1.583-5.471-2.591-3.384-11.518-.36-2.735 7.27 11.374 9.864 3.96 24.406-5.04 21.022Z"/><path fill="#4B1313" d="M48 22.01c0 2.232 3.67 2.232 3.67 0 0-2.231-3.67-2.231-3.67 0Zm-4.68 2.016c0 1.512 2.52 1.512 2.52 0s-2.52-1.512-2.52 0Zm4.175-6.983c0-1.512-2.52-1.512-2.52 0s2.52 1.512 2.52 0Zm-6.55 10.799c0 .792 1.295.792 1.295 0-.072-.72-1.296-.72-1.296 0Zm-.289-7.487c0 1.08 1.728 1.08 1.728 0 .072-1.08-1.728-1.08-1.728 0Zm5.112 9.286c0 1.08 1.727 1.08 1.727 0 0-1.007-1.727-1.007-1.727 0Z" opacity=".3"/><path fill="#302C3B" d="M38.929 38.497c0 4.032 4.607 4.032 4.607 0-.072-4.031-4.607-4.031-4.607 0Zm13.606 0c0 4.032 4.607 4.032 4.607 0 0-4.031-4.607-4.031-4.607 0Z"/><path fill="#fff" d="M39.72 37.489c0 1.008 1.44 1.08 1.44.072 0-1.08-1.44-1.152-1.44-.072Zm13.607 0c0 .648.576.936 1.08.72 1.296-1.296-1.08-2.232-1.08-.72Z"/><path fill="#9E1C20" d="M47.783 46.56c0 6.335.576 6.695.576 0 0-6.335-.576-6.695-.576 0Zm-2.735 0c0 6.047.792 5.111.792 0 .144-5.255-.792-5.831-.792 0Zm5.471-4.103c-.432 0-.576 8.063-.072 8.063s.648-8.063.072-8.063Z"/><defs><linearGradient id="react-test-b" x1="37.853" x2="17.841" y1="68.836" y2="68.836" gradientUnits="userSpaceOnUse"><stop stop-color="#DC6780"/><stop offset="1" stop-color="#FFC6D3"/></linearGradient><linearGradient id="react-test-c" x1="39.383" x2="12.08" y1="50.59" y2="50.59" gradientUnits="userSpaceOnUse"><stop stop-color="#DC6780"/><stop offset="1" stop-color="#FFC6D3"/></linearGradient><linearGradient id="react-test-d" x1="27.85" x2="27.85" y1="53.974" y2="21.278" gradientUnits="userSpaceOnUse"><stop stop-color="#D95F7A"/><stop offset=".556" stop-color="#FAB7C6"/><stop offset="1" stop-color="#D95F7A"/></linearGradient><linearGradient id="react-test-e" x1="48.014" x2="48.014" y1="56.384" y2="83.997" gradientUnits="userSpaceOnUse"><stop stop-color="#E68399"/><stop offset=".542" stop-color="#FCBDCB"/><stop offset="1" stop-color="#D95F7A"/></linearGradient><linearGradient id="react-test-f" x1="78.267" x2="58.257" y1="68.768" y2="68.768" gradientUnits="userSpaceOnUse"><stop stop-color="#FFC6D3"/><stop offset="1" stop-color="#DC6780"/></linearGradient><linearGradient id="react-test-g" x1="84.07" x2="56.761" y1="50.52" y2="50.52" gradientUnits="userSpaceOnUse"><stop stop-color="#FFC6D3"/><stop offset="1" stop-color="#DC6780"/></linearGradient><linearGradient id="react-test-h" x1="68.133" x2="68.133" y1="53.974" y2="21.278" gradientUnits="userSpaceOnUse"><stop stop-color="#D95F7A"/><stop offset=".556" stop-color="#FAB7C6"/><stop offset="1" stop-color="#D95F7A"/></linearGradient><radialGradient id="react-test-a" cx="0" cy="0" r="1" gradientTransform="matrix(0 -40.024 40.024 0 47.996 48.8)" gradientUnits="userSpaceOnUse"><stop offset=".318" stop-color="#FE4646"/><stop offset="1" stop-color="#9B0403"/></radialGradient></defs></svg>