<svg xmlns="http://www.w3.org/2000/svg"  viewBox="0 0 96 96"><path fill="#764ABC" d="M61.883 61.558a5.14 5.14 0 1 0-.547-10.268h-.173a5.127 5.127 0 0 0-3.485 8.713c-3.125 6.134-7.877 10.627-15.034 14.386a24.77 24.77 0 0 1-14.934 2.837c-4.118-.547-7.33-2.376-9.346-5.4a13.466 13.466 0 0 1-.72-14.214c1.728-3.47 4.479-6.048 6.221-7.33-.374-1.18-.921-3.197-1.195-4.666-13.263 9.62-11.91 22.624-7.877 28.773 3.024 4.58 9.159 7.416 15.942 7.416 1.828 0 3.672-.187 5.5-.633a35.166 35.166 0 0 0 25.648-19.614Z"/><path fill="#764ABC" d="M78.012 50.195c-6.955-8.15-17.223-12.643-28.945-12.643h-1.47a5.04 5.04 0 0 0-4.492-2.737h-.187a5.128 5.128 0 0 0 .187 10.254h.187a5.208 5.208 0 0 0 4.493-3.125h1.642c6.97 0 13.565 2.016 19.513 5.962 4.594 3.024 7.891 6.955 9.72 11.722 1.556 3.86 1.47 7.603-.187 10.815a13.45 13.45 0 0 1-12.557 7.517c-3.658 0-7.143-1.094-8.972-1.93-1.008.922-2.837 2.39-4.119 3.313a28.284 28.284 0 0 0 11.809 2.837c8.799 0 15.308-4.868 17.785-9.721 2.65-5.314 2.477-14.473-4.407-22.264Z"/><path fill="#764ABC" d="M31.469 63.113c.086 2.75 2.376 4.954 5.126 4.954h.188a5.135 5.135 0 1 0-.188-10.268h-.172c-.188 0-.461 0-.648.087a33.568 33.568 0 0 1-4.753-20.334 24.583 24.583 0 0 1 5.4-14.2c2.65-3.398 7.777-5.04 11.262-5.14 9.72-.173 13.839 11.923 14.113 16.776 1.195.274 3.211.908 4.579 1.368C65.282 21.524 56.123 13.82 47.324 13.82c-8.252 0-15.841 5.962-18.865 14.747-4.248 11.75-1.483 22.998 3.643 31.912-.46.633-.734 1.641-.648 2.65l.015-.015Z"/></svg>