<svg xmlns="http://www.w3.org/2000/svg"  viewBox="0 0 96 96"><path fill="#FF4785" d="M72.286 11.661c-.311.005-.655.015-.983.032l-2.292.114.136 4.367c.12 3.82.104 4.367-.158 4.476-.185.07-.819-.317-1.746-1.037l-1.474-1.146-1.638 1.255c-.873.71-1.746 1.255-1.965 1.255-.316 0-.327-.273-.202-4.312l.137-4.312-.54.002c-.295 0-1.693.082-3.112.185-1.42.099-4.148.279-6.004.393-18.559 1.147-30.567 1.965-31.113 2.13-.6.234-1.529 1.036-1.856 1.637-.442.818-.47 1.855-.218 8.187.142 3.767.655 17.467 1.146 30.021.983 26.2.819 24.563 2.238 25.655.928.71 1.965.819 7.642 1.092 4.42.18 37.117 1.637 40.392 1.8.71.036 1.583.083 2.02.1 1.692.081 3.11-.765 3.766-2.184.338-.764.355-2.184.355-33.842 0-31.659-.015-33.297-.355-33.842-.426-.928-1.31-1.747-2.238-2.02-.295-.082-1.092-.12-2.02-.104l.082.098ZM47.723 23.124c2.62-.017 5.295 1.037 7.096 2.074 3.985 1.965 6.55 6.004 6.55 11.462l.115 2.02-.655.235c-1.801.655-7.642.982-8.734.491-.458-.197-.507-.338-.6-1.747-.224-2.674-.764-3.93-1.965-4.42-1.528-.656-3.712-.011-4.367 1.255-.458.927-.436 2.729.049 3.82.655 1.42 2.183 2.675 6.004 5.077 5.076 3.056 6.55 4.476 8.188 7.096 1.583 2.347 2.128 4.203 2.292 7.641.11 2.893-.174 4.367-1.31 6.55-1.856 3.821-5.458 6.005-10.917 6.55-2.238.252-3.002.24-5.24-.081-3.438-.497-6.004-1.583-7.642-3.548-2.401-2.402-3.384-5.077-3.602-9.825l-.12-2.73.764-.338c.655-.284 1.365-.339 4.421-.339 4.094-.002 5.404.224 5.459.928.045.224.12 1.201.164 2.184.147 3.166 1.146 4.367 3.602 4.367 2.129 0 3.057-1.038 3.057-3.385 0-1.528-.535-2.62-1.91-3.984-.983-.983-2.075-1.747-6.55-4.53-3.549-2.293-6.005-4.75-7.097-7.097-1.037-2.02-1.364-3.548-1.364-6.55.005-1.801.103-2.947.338-3.82 1.146-4.367 4.258-7.642 8.734-8.734 1.419-.404 3.002-.6 4.585-.6l.655-.022Z"/></svg>