<svg xmlns="http://www.w3.org/2000/svg"  viewBox="0 0 96 96"><path fill="#4945FF" d="M24 40.641c0-7.844 0-11.766 2.437-14.203C28.874 24 32.796 24 40.64 24h14.72c7.844 0 11.766 0 14.203 2.437C72 28.875 72 32.797 72 40.64v14.72c0 7.844 0 11.766-2.437 14.203-2.437 2.437-6.359 2.437-14.203 2.437H40.64c-7.844 0-11.766 0-14.203-2.437C24 67.127 24 63.205 24 55.361v-14.72Z"/><path fill="#fff" fill-rule="evenodd" d="M57.12 38.56H40.96v8.24h8.24v8.24h8.24V38.88a.32.32 0 0 0-.32-.32Z" clip-rule="evenodd"/><path fill="#fff" d="M49.2 46.804h-.32v.32h.32v-.32Z"/><path fill="#9593FF" d="M40.96 46.804h7.92a.32.32 0 0 1 .32.32v7.92h-7.92a.32.32 0 0 1-.32-.32v-7.92ZM49.2 55.04h8.24l-7.967 7.967a.16.16 0 0 1-.273-.113V55.04ZM40.96 46.8h-7.853a.16.16 0 0 1-.114-.273l7.967-7.967v8.24Z"/></svg>