<svg xmlns="http://www.w3.org/2000/svg"  viewBox="0 0 96 96"><path fill="#FFB13B" stroke="#000" stroke-width="4.868" d="M51.584 27.693a5.28 5.28 0 0 0 1.388-2.677 5.38 5.38 0 0 0-.289-3.021 5.197 5.197 0 0 0-1.867-2.346A4.961 4.961 0 0 0 48 18.768a4.96 4.96 0 0 0-2.817.88 5.197 5.197 0 0 0-1.867 2.347 5.38 5.38 0 0 0-.288 3.02 5.28 5.28 0 0 0 1.387 2.678v39.25a5.28 5.28 0 0 0-1.387 2.677 5.38 5.38 0 0 0 .288 3.02 5.197 5.197 0 0 0 1.867 2.347 4.96 4.96 0 0 0 2.817.881 4.961 4.961 0 0 0 2.816-.88 5.197 5.197 0 0 0 1.867-2.347 5.38 5.38 0 0 0 .289-3.02 5.28 5.28 0 0 0-1.388-2.678v-39.25Z"/><path fill="#FFB13B" stroke="#000" stroke-width="4.869" d="M63.99 36.054a4.96 4.96 0 0 0 2.817-.88 5.197 5.197 0 0 0 1.867-2.347 5.38 5.38 0 0 0 .289-3.02 5.28 5.28 0 0 0-1.388-2.678 5.023 5.023 0 0 0-2.595-1.43 4.927 4.927 0 0 0-2.93.297 5.106 5.106 0 0 0-2.274 1.926 5.344 5.344 0 0 0-.855 2.904L32.008 58.581a4.96 4.96 0 0 0-2.816.88 5.197 5.197 0 0 0-1.867 2.347 5.38 5.38 0 0 0-.289 3.02 5.28 5.28 0 0 0 1.388 2.678 5.023 5.023 0 0 0 2.595 1.43 4.926 4.926 0 0 0 2.93-.297 5.107 5.107 0 0 0 2.275-1.926c.557-.86.854-1.87.854-2.904l26.913-27.755Z"/><path fill="#FFB13B" stroke="#000" stroke-width="4.866" d="M28.966 43.61a5.022 5.022 0 0 0-2.594-1.43 4.924 4.924 0 0 0-2.928.298 5.104 5.104 0 0 0-2.274 1.925 5.342 5.342 0 0 0-.855 2.903c0 1.034.298 2.044.854 2.904a5.104 5.104 0 0 0 2.275 1.924c.926.396 1.945.5 2.928.298a5.022 5.022 0 0 0 2.594-1.43h38.045a5.021 5.021 0 0 0 2.595 1.43 4.924 4.924 0 0 0 2.928-.298 5.104 5.104 0 0 0 2.274-1.924c.557-.86.854-1.87.854-2.904a5.343 5.343 0 0 0-.854-2.903 5.104 5.104 0 0 0-2.274-1.925 4.924 4.924 0 0 0-2.928-.297c-.983.201-1.886.699-2.595 1.43H28.966Z"/><path fill="#FFB13B" stroke="#000" stroke-width="4.869" d="M37.078 30.827a5.345 5.345 0 0 0-.854-2.904 5.107 5.107 0 0 0-2.275-1.926 4.927 4.927 0 0 0-2.93-.297c-.983.201-1.886.7-2.595 1.43a5.28 5.28 0 0 0-1.387 2.677 5.38 5.38 0 0 0 .288 3.021 5.197 5.197 0 0 0 1.867 2.346 4.96 4.96 0 0 0 2.817.882L58.92 63.81c0 1.034.298 2.045.855 2.904a5.106 5.106 0 0 0 2.275 1.926c.926.396 1.946.5 2.929.298a5.023 5.023 0 0 0 2.596-1.431 5.281 5.281 0 0 0 1.387-2.677 5.38 5.38 0 0 0-.288-3.02 5.196 5.196 0 0 0-1.867-2.347 4.96 4.96 0 0 0-2.817-.881L37.078 30.827Z"/><path fill="#FFB13B" d="M37.068 30.831a5.346 5.346 0 0 0-.855-2.904A5.108 5.108 0 0 0 33.938 26a4.927 4.927 0 0 0-2.929-.298c-.983.202-1.887.7-2.596 1.431a5.28 5.28 0 0 0-1.387 2.677 5.38 5.38 0 0 0 .288 3.021 5.197 5.197 0 0 0 1.867 2.346 4.96 4.96 0 0 0 2.817.881l26.913 27.755c0 1.034.297 2.045.854 2.904a5.107 5.107 0 0 0 2.275 1.926c.927.396 1.946.5 2.93.297a5.023 5.023 0 0 0 2.595-1.43 5.28 5.28 0 0 0 1.387-2.677 5.38 5.38 0 0 0-.288-3.02 5.196 5.196 0 0 0-1.867-2.347 4.962 4.962 0 0 0-2.817-.881L37.068 30.83Z"/><path fill="#FFB13B" d="M51.562 27.693a5.28 5.28 0 0 0 1.388-2.677 5.38 5.38 0 0 0-.289-3.021 5.197 5.197 0 0 0-1.867-2.346 4.96 4.96 0 0 0-2.817-.881 4.96 4.96 0 0 0-2.816.88 5.197 5.197 0 0 0-1.867 2.347 5.38 5.38 0 0 0-.289 3.02 5.28 5.28 0 0 0 1.387 2.678v39.25a5.28 5.28 0 0 0-1.387 2.677 5.38 5.38 0 0 0 .289 3.02 5.197 5.197 0 0 0 1.867 2.347 4.96 4.96 0 0 0 2.816.881 4.96 4.96 0 0 0 2.817-.88 5.197 5.197 0 0 0 1.867-2.347 5.38 5.38 0 0 0 .288-3.02 5.28 5.28 0 0 0-1.387-2.678v-39.25Z"/><path fill="#FFB13B" d="M63.964 36.045a4.961 4.961 0 0 0 2.817-.882 5.197 5.197 0 0 0 1.867-2.346 5.38 5.38 0 0 0 .288-3.02 5.281 5.281 0 0 0-1.387-2.678 5.024 5.024 0 0 0-2.596-1.43 4.927 4.927 0 0 0-2.929.297 5.106 5.106 0 0 0-2.275 1.926 5.345 5.345 0 0 0-.854 2.904L31.982 58.571a4.96 4.96 0 0 0-2.816.88 5.197 5.197 0 0 0-1.868 2.347 5.38 5.38 0 0 0-.288 3.02 5.28 5.28 0 0 0 1.387 2.678 5.024 5.024 0 0 0 2.596 1.43 4.927 4.927 0 0 0 2.93-.297 5.106 5.106 0 0 0 2.274-1.925c.557-.86.855-1.871.855-2.905l26.912-27.754Z"/><path fill="#FFB13B" d="M28.97 43.621a5.024 5.024 0 0 0-2.596-1.43 4.927 4.927 0 0 0-2.929.297 5.107 5.107 0 0 0-2.275 1.925 5.346 5.346 0 0 0-.855 2.905c0 1.034.298 2.045.855 2.905a5.107 5.107 0 0 0 2.275 1.925c.926.396 1.946.5 2.929.298a5.024 5.024 0 0 0 2.596-1.431h38.06a5.024 5.024 0 0 0 2.596 1.43 4.927 4.927 0 0 0 2.929-.297 5.107 5.107 0 0 0 2.275-1.925c.557-.86.854-1.871.854-2.905a5.345 5.345 0 0 0-.854-2.905 5.107 5.107 0 0 0-2.275-1.925 4.927 4.927 0 0 0-2.93-.298c-.983.202-1.886.7-2.595 1.431H28.97Z"/><path fill="#000" d="M16 47.316h64V70.64c0 5.48-4.07 9.678-9.385 9.678h-45.23C20.071 80.317 16 76.12 16 70.64V47.316Z"/><path fill="#fff" d="M25.603 63.793a8.658 8.658 0 0 1-2.43-6.046c0-4.723 3.715-8.552 8.292-8.552 4.58 0 8.295 3.829 8.295 8.552h-4.858c0-1.956-1.54-3.542-3.437-3.542-1.897 0-3.434 1.586-3.434 3.542 0 .977.385 1.863 1.004 2.502h.002c.622.643 1.14.83 2.428 1.04 2.292.246 4.364.958 5.865 2.506a8.66 8.66 0 0 1 2.43 6.046c0 4.723-3.715 8.554-8.295 8.554-4.577 0-8.292-3.83-8.292-8.554h4.858c0 1.956 1.537 3.544 3.434 3.544 1.898 0 3.437-1.588 3.437-3.544a3.59 3.59 0 0 0-1.004-2.501h-.003c-.622-.642-1.514-.863-2.43-1.039V66.3c-2.22-.351-4.361-.958-5.862-2.506ZM56.346 49.195l-5.867 29.2h-4.858l-5.861-29.2h4.857l3.438 17.102 3.433-17.102h4.858ZM64.64 61.289h8.293v8.552h.002c0 4.723-3.715 8.554-8.295 8.554s-8.292-3.83-8.292-8.554V57.747h-.002c0-4.723 3.714-8.552 8.294-8.552 4.578 0 8.293 3.829 8.293 8.552h-4.858c0-1.954-1.54-3.542-3.435-3.542-1.897 0-3.434 1.588-3.434 3.542v12.094c0 1.956 1.537 3.542 3.434 3.542 1.895 0 3.432-1.586 3.435-3.54V66.3H64.64V61.29Z"/></svg>