<svg xmlns="http://www.w3.org/2000/svg"  viewBox="0 0 96 96"><path fill="#38BDF8" fill-rule="evenodd" d="M47.108 26.008c-9.6 0-15.6 4.771-18 14.314 3.6-4.771 7.8-6.56 12.6-5.368 2.738.68 4.696 2.655 6.862 4.842 3.53 3.561 7.615 7.682 16.538 7.682 9.6 0 15.6-4.771 18-14.313-3.6 4.772-7.8 6.56-12.6 5.367-2.74-.68-4.698-2.655-6.863-4.84-3.53-3.564-7.615-7.684-16.537-7.684Zm-18 21.47c-9.6 0-15.6 4.772-18 14.315 3.6-4.772 7.8-6.56 12.598-5.369 2.74.68 4.698 2.656 6.864 4.842 3.53 3.561 7.614 7.682 16.538 7.682 9.6 0 15.6-4.77 18-14.313-3.6 4.772-7.8 6.56-12.6 5.369-2.739-.682-4.697-2.657-6.863-4.842-3.53-3.561-7.616-7.684-16.538-7.684Z" clip-rule="evenodd"/></svg>