<svg xmlns="http://www.w3.org/2000/svg" viewBox="0 0 76 76"><defs><linearGradient id="a" x1="41.443" x2="10.557" y1="11.537" y2="42.424" gradientTransform="translate(3.006 3.028) scale(.90832)" gradientUnits="userSpaceOnUse"><stop stop-color="#0096FF"/><stop offset="1" stop-color="#FF1E56"/></linearGradient></defs><path fill="#fff" d="M37.978 19.465c-10.22 0-18.535 8.315-18.535 18.535s8.314 18.535 18.535 18.535c10.22 0 18.535-8.315 18.535-18.535s-8.315-18.535-18.535-18.535zm0 28.127A9.591 9.591 0 0 1 28.386 38a9.591 9.591 0 0 1 9.592-9.592A9.591 9.591 0 0 1 47.57 38a9.591 9.591 0 0 1-9.592 9.592z"/><path fill="url(#a)" d="M39.53 16.42V9.5c15.043.804 26.992 13.258 26.992 28.5s-11.95 27.692-26.991 28.5v-6.92C50.74 58.779 59.619 49.41 59.619 38c0-11.411-8.877-20.779-20.088-21.58zm-17.9 35.732a21.551 21.551 0 0 1-5.228-12.599H9.478c.359 6.714 3.044 12.806 7.251 17.496l4.898-4.897zM36.425 66.5v-6.92a21.53 21.53 0 0 1-12.601-5.23l-4.898 4.898A28.418 28.418 0 0 0 36.42 66.5Z" /><path d="M47.564 38.072a9.674 9.674 0 0 1-9.64 9.673 9.674 9.674 0 0 1-9.708-9.605 9.674 9.674 0 0 1 9.571-9.741 9.674 9.674 0 0 1 9.776 9.536" fill="#000" /></svg>

