<svg xmlns="http://www.w3.org/2000/svg" viewBox="0 0 96 96"><path fill="#3178C6" d="M96 0H0v96h96V0Z"/><path fill="#fff" d="M57.76 72.16v8c1.296.673 2.88 1.169 4.64 1.505 1.76.336 3.68.496 5.6.496 1.92 0 3.68-.176 5.44-.544 1.76-.368 3.2-.976 4.48-1.76 1.296-.848 2.4-1.92 3.04-3.36.64-1.44 1.136-3.04 1.136-5.12 0-1.456-.224-2.72-.656-3.84-.432-1.12-1.056-2.08-1.92-2.88-.816-.848-1.76-1.6-2.88-2.24-1.12-.64-2.4-1.312-3.84-1.92-1.056-.432-1.92-.848-2.88-1.264-.832-.416-1.552-.832-2.08-1.248-.592-.432-1.04-.88-1.36-1.344a2.81 2.81 0 0 1-.48-1.6c0-.544.142-1.04.432-1.488.29-.448.688-.816 1.2-1.136.512-.32 1.152-.56 1.92-.736.752-.176 1.584-.256 2.56-.256.672 0 1.376.05 2.08.15.736.101 1.488.256 2.24.464.752.208 1.488.464 2.24.784.704.32 1.36.688 1.92 1.104v-7.52a19.765 19.765 0 0 0-4-1.04c-1.44-.224-3.04-.336-4.96-.336s-3.68.208-5.44.608c-1.76.4-3.2 1.04-4.48 1.92-1.296.864-2.24 1.92-3.04 3.36-.752 1.344-1.12 2.88-1.12 4.8 0 2.4.688 4.48 2.08 6.08 1.376 1.76 3.52 3.04 6.24 4.32 1.104.448 2.08.896 3.04 1.328.96.432 1.76.88 2.4 1.344.688.464 1.232.976 1.6 1.52.4.544.608 1.184.608 1.92 0 .512-.125.992-.368 1.44-.243.448-.624.832-1.136 1.152-.512.32-1.136.576-1.92.768-.752.176-1.6.272-2.72.272-1.76 0-3.52-.304-5.12-.912a15.206 15.206 0 0 1-4.8-2.72l.304-.07ZM44.32 52.48h10.24v-6.56H25.92v6.56h10.24v29.28h8.16V52.48Z"/></svg>