<svg xmlns="http://www.w3.org/2000/svg" viewBox="0 0 96 96">
    <path fill="#fcc72b" d="M66 35.1 48.8 60a1.48 1.48 0 0 1-2.71-.9l.71-13.7L35.7 43a1.43 1.43 0 0 1-1.14-1.62q0-.38.24-.66L52 15.83a1.48 1.48 0 0 1 2.67.9L54 30.43l11.1 2.38a1.43 1.43 0 0 1 1.2 1.57q-.05.38-.3.72"/>
    <path fill="#729b1b" d="M48 80.8a3.3 3.3 0 0 1-2.48-1l-16.2-16.2a3.48 3.48 0 0 1 4.9-4.95l13.8 13.8 30-30a3.48 3.48 0 0 1 4.95 4.9l-32.5 32.5a3.3 3.3 0 0 1-2.48 1"/>
    <path fill="#729b1b" fill-opacity=".5" d="M48 80.8a3.3 3.3 0 0 0 2.43-1l16.3-16.2a3.5 3.5 0 0 0-4.95-4.95l-13.8 13.8-30-30a3.5 3.5 0 0 0-5 4.9l32.5 32.5a3.3 3.3 0 0 0 2.48 1"/>
</svg>
