<svg xmlns="http://www.w3.org/2000/svg"  viewBox="0 0 96 96"><path fill="url(#a)" d="M83.737 21.623 49.96 82.026c-.698 1.247-2.49 1.255-3.198.014L12.313 21.629c-.771-1.353.385-2.99 1.918-2.717l33.815 6.044c.215.039.436.039.652 0l33.107-6.035c1.528-.279 2.69 1.347 1.932 2.702Z"/><path fill="url(#b)" d="m64.153 10.983-24.997 4.899a.918.918 0 0 0-.74.846l-1.537 25.97a.918.918 0 0 0 1.122.95l6.96-1.607a.918.918 0 0 1 1.105 1.079L44 53.245a.918.918 0 0 0 1.166 1.062l4.299-1.306a.918.918 0 0 1 1.165 1.064L47.343 69.97c-.205.995 1.118 1.537 1.67.684l.368-.57 20.37-40.65a.918.918 0 0 0-.995-1.313l-7.164 1.383a.918.918 0 0 1-1.056-1.156l4.676-16.21a.918.918 0 0 0-1.059-1.155Z"/><defs><linearGradient id="a" x1="11.472" x2="53.513" y1="16.753" y2="73.848" gradientUnits="userSpaceOnUse"><stop stop-color="#41D1FF"/><stop offset="1" stop-color="#BD34FE"/></linearGradient><linearGradient id="b" x1="46.105" x2="53.71" y1="12.313" y2="64.483" gradientUnits="userSpaceOnUse"><stop stop-color="#FFEA83"/><stop offset=".083" stop-color="#FFDD35"/><stop offset="1" stop-color="#FFA800"/></linearGradient></defs></svg>