<svg xmlns="http://www.w3.org/2000/svg" viewBox="0 0 165 165">
  <path fill="#fcc72b" d="m120.8 57.3-36.1 52.2a3.1 3.1 0 0 1-5.7-1.9l1.5-28.8-23.4-5a3 3 0 0 1-2.4-3.4q0-.8.5-1.4l36.2-52.2a3.1 3.1 0 0 1 5.6 1.9l-1.4 28.8 23.3 5a3 3 0 0 1 2.5 3.3q-.1.8-.6 1.5"/>
  <path fill="#729b1b" d="M83 153.3a7 7 0 0 1-5.2-2.1l-34.1-34.1A7.3 7.3 0 0 1 54 106.7l29 29 63-63.1a7.3 7.3 0 0 1 10.4 10.3l-68.3 68.3a7 7 0 0 1-5.2 2.1"/>
  <path fill="#729b1b" fill-opacity=".5" d="M83 153.3a7 7 0 0 0 5.1-2.1l34.2-34.1a7.3 7.3 0 0 0-10.4-10.4l-29 29-63-63.1A7.3 7.3 0 0 0 9.4 82.9l68.3 68.3a7 7 0 0 0 5.2 2.1"/>
</svg>
