<svg xmlns="http://www.w3.org/2000/svg"  viewBox="0 0 96 96"><path fill="#0065A9" d="M75.08 23.799 62.25 17.57c-1.494-.747-3.238-.373-4.484.748L15.788 56.56c-1.121.996-1.121 2.864.002 3.861l3.488 3.114c.872.872 2.367.872 3.363.125l50.574-38.366c1.744-1.246 4.11-.075 4.11 1.993v-.125a3.833 3.833 0 0 0-2.242-3.488l-.002.125Z"/><g filter="url(#vs-code-a)"><path fill="#007ACC" d="m76.575 73.873-13.204 6.229c-1.494.747-3.238.498-4.484-.748l-43.1-39.113c-1.245-.997-1.245-2.99.003-3.986l3.488-3.24c.996-.747 2.491-.996 3.488-.149L74.585 72.23c1.744 1.246 4.235.075 4.235-1.993v.15c0 1.494-.996 2.989-2.242 3.487h-.003Z"/></g><g filter="url(#vs-code-b)"><path fill="#1F9CF0" d="M63.371 80.352c-1.495.747-3.239.498-4.484-.748 1.495 1.495 3.986.499 3.986-1.743V20.062c0-1.993-2.491-3.239-3.986-1.744 1.245-1.245 2.99-1.495 4.484-.747l13.204 6.228c1.495.748 2.242 1.993 2.242 3.488v42.85c0 1.495-.996 2.99-2.242 3.488l-13.204 6.727Z"/></g><path fill="url(#vs-code-c)" fill-rule="evenodd" d="M59.137 78.982c.996.373 2.117.373 3.114-.125l12.83-6.228a3.833 3.833 0 0 0 2.242-3.488V27.287a3.833 3.833 0 0 0-2.242-3.488l-12.83-6.228c-1.246-.623-2.865-.498-3.986.374-.125.124-.374.249-.499.373L33.227 40.74l-10.713-8.097c-.996-.747-2.366-.747-3.363.125l-3.488 3.114c-1.12.997-1.12 2.865-.002 3.862l9.218 8.47-9.218 8.47c-1.121.997-1.121 2.866.002 3.862l3.488 3.114c.872.872 2.367.872 3.363.125l10.713-8.097 24.54 22.422c.373.373.871.623 1.37.872Zm2.615-44.844-18.684 14.2L61.752 62.54v-28.4Z" clip-rule="evenodd" opacity=".2" style="mix-blend-mode:overlay"/><defs><filter id="vs-code-a" width="74.596" height="58.818" x="9.539" y="27.019" color-interpolation-filters="sRGB" filterUnits="userSpaceOnUse"><feFlood flood-opacity="0" result="BackgroundImageFix"/><feColorMatrix in="SourceAlpha" result="hardAlpha" values="0 0 0 0 0 0 0 0 0 0 0 0 0 0 0 0 0 0 127 0"/><feOffset/><feGaussianBlur stdDeviation="2.657"/><feColorMatrix values="0 0 0 0 0 0 0 0 0 0 0 0 0 0 0 0 0 0 0.25 0"/><feBlend in2="BackgroundImageFix" mode="overlay" result="effect1_dropShadow_4332_10516"/><feBlend in="SourceGraphic" in2="effect1_dropShadow_4332_10516" result="shape"/></filter><filter id="vs-code-b" width="30.56" height="74.252" x="53.572" y="11.836" color-interpolation-filters="sRGB" filterUnits="userSpaceOnUse"><feFlood flood-opacity="0" result="BackgroundImageFix"/><feColorMatrix in="SourceAlpha" result="hardAlpha" values="0 0 0 0 0 0 0 0 0 0 0 0 0 0 0 0 0 0 127 0"/><feOffset/><feGaussianBlur stdDeviation="2.657"/><feColorMatrix values="0 0 0 0 0 0 0 0 0 0 0 0 0 0 0 0 0 0 0.25 0"/><feBlend in2="BackgroundImageFix" mode="overlay" result="effect1_dropShadow_4332_10516"/><feBlend in="SourceGraphic" in2="effect1_dropShadow_4332_10516" result="shape"/></filter><linearGradient id="vs-code-c" x1="46.929" x2="46.929" y1="17.247" y2="80.601" gradientUnits="userSpaceOnUse"><stop stop-color="#fff"/><stop offset="1" stop-color="#fff" stop-opacity="0"/></linearGradient></defs></svg>