<svg xmlns="http://www.w3.org/2000/svg"  viewBox="0 0 96 96"><path fill="#fff" d="m48 12.001 31.819 17.998v36.004l-31.82 17.998-31.818-17.998V29.999L48 12Z"/><path fill="#8ED6FB" d="m74.137 64.762-25.085 14.19v-11.05l15.63-8.6 9.455 5.46Zm1.719-1.554V33.535l-9.176 5.303v19.075l9.176 5.295Zm-54.093 1.554 25.086 14.19v-11.05l-15.639-8.6-9.447 5.46Zm-1.718-1.554V33.535l9.176 5.303v19.075l-9.176 5.295Zm1.077-31.598 25.727-14.552v10.68l-16.485 9.069-.132.074-9.11-5.27Zm53.657 0L49.052 17.058v10.68l16.485 9.06.132.075 9.11-5.262Z"/><path fill="#1C78C0" d="m46.848 65.388-15.424-8.485V40.105l15.424 8.905v16.378Zm2.204 0 15.424-8.477V40.105L49.052 49.01v16.378ZM32.468 38.165l15.482-8.51 15.482 8.51-15.482 8.937-15.482-8.937Z"/></svg>