<svg xmlns="http://www.w3.org/2000/svg"  viewBox="0 0 96 96"><path fill="#05A8DA" d="M96 .002H0v96h96v-96Z"/><path fill="#05A8DA"  stroke="#fff" stroke-width="3.2" d="M48.96 78.082c16.082 0 29.12-13.038 29.12-29.12 0-16.083-13.038-29.12-29.12-29.12-16.083 0-29.12 13.037-29.12 29.12 0 16.082 13.037 29.12 29.12 29.12Z"/><path fill="#fff" d="m58.4 75.84 4.48-2.4 8.64-24.96c1.6-4 2.08-7.2 2.08-9.92 0-5.12-2.08-9.6-5.76-10.08-3.36-.32-5.28 3.04-5.12 4.96.32 4.64 4.96 7.2 4.96 13.6 0 4.48-2.88 11.68-4.96 18.72L52.8 35.84l3.2-.16c1.6 0 1.44-2.4-.16-2.24-4.96.48-9.6.32-14.72 0-1.6-.16-1.6 2.24-.16 2.24l2.88.16 4.32 11.84-6.08 18.24L32 35.84l3.2-.16c1.44 0 1.28-2.4-.16-2.24-4.64.32-9.12.64-10.24-.16l-1.28 3.84L36.96 74.4l4 2.24 8.64-25.28"/></svg>