<svg xmlns="http://www.w3.org/2000/svg"  viewBox="0 0 96 96"><path fill="url(#a)" d="M48 84.002c19.882 0 36-16.118 36-36s-16.118-36-36-36-36 16.118-36 36 16.118 36 36 36Z"/><path fill="#fff" d="M48.844 43.668a2.812 2.812 0 1 0 0-5.625 2.812 2.812 0 0 0 0 5.625Z"/><path fill="#fff" d="M69.713 53.905a2.305 2.305 0 0 0-2.757 2.25c0 1.125-.618 2.25-1.687 2.588a2.812 2.812 0 0 1-3.882-2.532V41.025c0-6.413-4.724-11.925-11.08-12.656A12.544 12.544 0 0 0 36.468 38.83a12.543 12.543 0 0 0-9.844 12.263V61.33c0 1.238 1.012 2.25 2.306 2.25h5.232a2.25 2.25 0 0 0 2.25-2.25A2.813 2.813 0 0 1 40.35 58.8c1.012.394 1.631 1.406 1.631 2.475 0 1.294 1.013 2.362 2.25 2.362h5.175a2.317 2.317 0 0 0 2.306-2.306V51.093a2.307 2.307 0 0 0-2.418-2.363h-.45a7.875 7.875 0 0 1-7.875-7.875v-.45c.337-3.937 3.375-7.144 7.256-7.425a7.873 7.873 0 0 1 8.55 7.875v15.188c0 3.6 2.813 7.031 6.356 7.481 4.5.619 8.438-2.813 8.494-7.2 0-1.125-.787-2.25-1.912-2.419Zm-22.67-.45v5.288c0 .112-.056.225-.224.225h-.45a.225.225 0 0 1-.169-.169 7.425 7.425 0 0 0-14.063 0c0 .112-.112.169-.168.169h-.45a.225.225 0 0 1-.225-.225v-7.65a7.874 7.874 0 0 1 5.062-7.425c.169 0 .282 0 .338.169a12.6 12.6 0 0 0 10.125 9.393c.168 0 .225.113.225.225Z"/><defs><radialGradient id="a" cx="0" cy="0" r="1" gradientTransform="matrix(72 72 -72 72 12 12.002)" gradientUnits="userSpaceOnUse"><stop stop-color="#0ECAD4"/><stop offset="1" stop-color="#7A45E5"/></radialGradient></defs></svg>