<svg xmlns="http://www.w3.org/2000/svg" viewBox="-2 -2 143 81"><path d="M15-2h-.8l-.7.3c-.4 0-.6.3-.7.5A54 54 0 0 0 10 6.2l-2.6 7.5-.5-1-1.1-1.6L4.5 9a37 37 0 0 0-2.3-3.6 8 8 0 0 0-.6-.8 1 1 0 0 0-.6-.1H.3a1 1 0 0 0-.6-.1 3 3 0 0 0-.5 0c-.3 0-.5.2-.7.3-.2.1-.4.4-.5.7l1 6a293.9 293.9 0 0 0 1 11l.7 5 .5.5h.6a4.6 4.6 0 0 0 1.6-.3c.4-.2.6-.4.6-.7 0-1 0-2.2-.2-3.7A153 153 0 0 0 1.6 9.8l2.4 4 2.3 4.3c.1.2.4.4.7.5h.8l1-.3c.4 0 .6-.3.8-.5L10 16a30 30 0 0 1 1.8-6.3c.5-1.5 1-3 1.7-4.4l.4 5.9.4 5.9a293 293 0 0 0 1.3 12v.3l.3.2a3.9 3.9 0 0 0 3-.1c.3-.2.6-.4.8-.8 0-1.3-.1-2.6-.4-4l-.6-4.3-1-9.3a163.6 163.6 0 0 0-1.5-12 2 2 0 0 0-.7-1l-.5-.2zm34 6.3a4 4 0 0 0-.3 0c-.5 0-.9.1-1.2.3l-.5.8-.1 1V8.2l.7.8 1 .2c.5 0 .8-.2 1-.5.3-.3.4-.6.5-1 .1-.5.2-1 .1-1.4V5l-.5-.5a2 2 0 0 0-.8-.1zm31 6h-.7c-.3.2-.5.4-.6.7l-1.5 3.6c-.6 1.4-1.2 2.7-2 3.9-.6 1.2-1.4 2.2-2.2 3-.9.8-1.7 1.2-2.6 1-.5 0-.8-.2-1-.6l-.5-1.6a15.4 15.4 0 0 1 .7-6.2c.2-.6.4-1 .7-1.2 0-.3-.2-.5-.5-.6l-.8-.1-.8.1-.6.3-.4.7-.4 1.2a20.3 20.3 0 0 0-.4 2.4l-.1 2.5c0 .8.1 1.5.3 2.2.3.8.7 1.3 1.2 1.8.6.6 1.3.9 2.3 1 .7 0 1.3-.1 2-.3a7.8 7.8 0 0 0 3.3-2.2c.5-.5 1-1 1.3-1.5a58.8 58.8 0 0 0-.8 6l.1.4.6.4a6.1 6.1 0 0 0 1.1.2l1.3-.1c.3-.1.5-.3.6-.6.1-.2.2-.5.1-.9v-1.2a112 112 0 0 1 2-13.5c0-.2-.2-.4-.5-.5a2.6 2.6 0 0 0-1.1-.4zm28 2.3c-.6 0-1.3.1-1.9.5-.8.4-1.5 1-2.1 1.6-.7.7-1.3 1.4-1.8 2.2l-1.3 2v-.6c0-.5 0-.9-.4-1-.4-.3-.9-.4-1.5-.6a1 1 0 0 0-.7.1l-.5.4-.3.6-.2.7L97 20a56.6 56.6 0 0 0-.6 4v2c0 .6.2 1.1.5 1.6.2.4.6.7 1.2.8h.6c.2 0 .5.1.8 0h.7c.2 0 .3-.2.3-.4a16 16 0 0 1 4.3-11.4c.7-.6 1.4-.9 2-.8.6.2 1 .6 1 1.5.2.8.2 1.8.1 3 0 1.2-.3 2.5-.5 3.8l-.6 3.8c-.1 1.2-.2 2.2-.1 3 0 .8.4 1.2.9 1.3h.9l.6-.2c.2 0 .2-.2.3-.3v-1.3a13.1 13.1 0 0 1 .2-3.5l.5-3.2a55.1 55.1 0 0 0 .4-7c0-1-.2-1.9-.6-2.6-.3-.7-.8-1.2-1.5-1.3h-.3zm-22 0c-.5 0-.9.2-1.1.5l-.5 1.3a88.1 88.1 0 0 0-.5 9c0 1 .1 2 .3 2.7 0 .4.3.6.6.7l1 .3H87c.3-.2.4-.5.5-1 .1-1.2.4-2.4.7-3.6a17 17 0 0 1 1.4-3.3c.6-1 1.3-2 2-2.7.9-.8 1.8-1.4 2.8-1.8l.4.2h.5c.1 0 .3 0 .4-.2l.2-.3s0-.2-.2-.2a1 1 0 0 0-.4-.3 1 1 0 0 0-.3 0c-.7-.2-1.5 0-2.3.2a10.3 10.3 0 0 0-4 3c-.6.5-1 1.1-1.5 1.7 0-.8 0-1.7.2-2.6l.1-2.6c0-.3-.2-.5-.5-.6a3.9 3.9 0 0 0-1.2-.2zm35 3.6a4 4 0 0 0-2.4.6c-1 .5-1.8 1.4-2.6 2.4a15.5 15.5 0 0 0-2.9 6.5l-.4 2.8c0 .9.2 1.8.5 2.6.3.7.8 1.5 1.4 2 .6.5 1.5 1 2.7 1.3a6 6 0 0 0 2.4 0c.8 0 1.5-.3 2.3-.7.7-.3 1.4-.8 2-1.3a28.6 28.6 0 0 0 2.4-2.4c0-.3 0-.5-.3-.6l-.6-.3c-.4 0-.9 0-1.5.5-.6.4-1.2 1-2 1.4l-2 1.4a3 3 0 0 1-2.2.3c-.4 0-.8-.4-1-.9l-.4-1.8a15 15 0 0 1 .2-3.4l.5.2c.8.2 1.6.1 2.4-.2.8-.4 1.6-.9 2.2-1.5.7-.7 1.3-1.4 1.7-2.2l1-2.3a4 4 0 0 0-.3-2.8c-.4-.8-1.2-1.3-2.3-1.6l-.9-.2zm-63-4h-.3c-.9 0-1.7.1-2.4.5a6.2 6.2 0 0 0-2.6 3.8l-.3 2.3c0 .8.1 1.4.3 2.1.2.7.4 1.2.8 1.8.4.5 1 .9 1.5 1.2a6.2 6.2 0 0 0 4.8 0 7 7 0 0 0 4.3-6.4c0-.8-.2-1.5-.6-2.1-.3-.7-.8-1.2-1.5-1.6a6 6 0 0 0-2-1c-.7-.3-1.4-.4-2-.4zm63 5.4h.4l.4.4v1.4l-.2.6c0 .4-.2.8-.4 1.3l-.7 1.5a25.7 25.7 0 0 1-1.7 2.7l-.9.6c-.3 0-.5 0-.7-.4l-.5-.6a59 59 0 0 1 1.8-4.7 8 8 0 0 1 1.4-2c.4-.5.7-.7 1.1-.7zm-73-5.4a3.4 3.4 0 0 0-1 0 2.8 2.8 0 0 0-1.2.5c-.2 0-.3.2-.3.4a439 439 0 0 0-.3 22l-.5 3c-.3 1-.7 2-1.1 2.6-.2-.3-.4-.5-.8-.7-.3-.2-.6-.4-1-.3l-.7.1-.2.5v.6c0 .2 0 .4.2.6.1.3.4.6.7.9.3.3.7.5 1 .6l1.4.2c1 0 2-.4 2.6-1.1.7-.8 1.3-1.7 1.6-2.8a42.6 42.6 0 0 0 1-11.7 123.7 123.7 0 0 1 0-14.4l-.2-.5a3 3 0 0 0-1.3-.4zM31 11h-.2c-.6 0-1 .2-1.1.4-.2.3-.3.7-.3 1.2a41 41 0 0 1-1.4 10c-.3.8-.7 1.2-1.2 1.3-.2 0-.5-.2-.8-.8l-.9-2.3a50.5 50.5 0 0 1-1-5.1c0-.6-.2-.9-.5-1-.3-.2-.7-.3-1.3-.3-.3 0-.6.2-.8.3-.2.1-.3.4-.3.8a210 210 0 0 1 1 6.5c.3.8.5 1.5.9 2 .3.7.7 1.2 1.2 1.6a3 3 0 0 0 2 .4c.5 0 1-.2 1.3-.4l1-1 .8-1.3.6-1.3.3 3 .5 3.3a58 58 0 0 1 .5 6.2v.2c0 .2 0 .4.2.5l.6.3h1.4c.7 0 1.3-.2 1.6-.4.3-.3.4-.8.4-1.5l-.1-.5-.1-.6-.2-2-1.6-12a51.4 51.4 0 0 1-.6-4.6c-.1-.7-.3-1.4-.7-1.9-.3-.4-.7-.6-1.2-.6zm26 2.5.6.4.5.2.5.1c.6.4 1 .8 1.2 1.3.3.5.5 1 .4 1.9 0 .6 0 1.2-.2 1.9a6.2 6.2 0 0 1-1.7 3.2c-.5.4-1.1.6-1.8.7-.3 0-.6-.2-.9-.5l-.5-1.2a12 12 0 0 1-.4-2.5 46.4 46.4 0 0 1 .4-3.6l.7-1.1c.3-.3.7-.6 1.3-.7zm1.5.8zm80 9a1 1 0 0 0-.7.1c-.2.2-.5.5-.7 1a54.8 54.8 0 0 1-3 6.4c-.6 1-1.3 1.8-1.8 2.4-.6.6-1 .9-1.6.8-.2-.1-.4-.5-.5-1.1a16.9 16.9 0 0 1 .4-5.2l.6-2.3c.2-.5.1-1-.1-1.2-.2-.3-.6-.6-1.1-.7h-.9c-.2 0-.4.2-.5.6 0 .5-.2 1-.4 1.8l-.6 2.2-.4 2.4v2.3c0 .7.3 1.3.6 1.8.4.5 1 .8 1.7 1 .5.2 1 .2 1.4.2l1.3-.6c.5-.3.9-.6 1.2-1l1-1-.8 3-.7 3.3-.8 3-1 2.9v.7l.5.5.7.4.5.2c.8.2 1.3.3 1.6.2.4-.2.7-.6 1-1.3v-.6l.2-.5.5-2 2.9-12c0-.6.3-1.3.5-2.1l.6-2.4c.2-.8.2-1.4 0-2 0-.6-.5-1-1-1.1l-.6-.1zm-72 11a4 4 0 0 0-.6 0h-.5c-.6 0-1 .1-1.6.5-.4.3-.8.7-1.2 1.3a34.9 34.9 0 0 0-2.5 7.4 6.8 6.8 0 0 0-1.4 0c-.3 0-.5 0-.8.2-.2 0-.3.1-.3.3 0 .2.1.3.3.4l.6.2a1769.3 1769.3 0 0 1 1.4 0 161 161 0 0 0-1.5 11.5L58 62c0 1.9 0 3.9.2 5.8.1.7.3 1.2.6 1.4.3.2.8.4 1.6.5a4.9 4.9 0 0 0 1.3-.2l.6-.3.3-.5v-.8l-.1-.8a75.9 75.9 0 0 1 1-22.6 6.7 6.7 0 0 1 2.1.1l1 .2 1.2.1h.8c.2 0 .3 0 .5-.2l.1-.3c0-.2 0-.3-.2-.4l-.7-.3-.7-.1H67a113 113 0 0 1-3.2-.4l.3-2 .4-2.5.7-2.1c.4-.6.8-1 1.3-1s.8.1 1.1.4c.3.2.6.5.7.8l.2 1.3c0 .5 0 1-.2 1.4l.5.3.5.2a1 1 0 0 0 1-.6c.3-.5.4-.9.5-1.3 0-.5-.1-1-.4-1.4a4.7 4.7 0 0 0-2.4-2c-.5-.3-1-.4-1.4-.4zm10 13a5.3 5.3 0 0 0-4.3 1.7c-.6.6-1 1.3-1.4 2.1a10 10 0 0 0-.7 5c0 .9.3 1.7.5 2.5.3.8.7 1.5 1.3 2.1.6.6 1.3 1 2.1 1l1.6-.1 1.4-.8 1.1-1.3.9-1.4v2.5l.6.9c.2.2.7.3 1.3.4H82l.5-.3c.2-.1.3-.3.3-.5v-.5l-.2-.6-.5-3.4a32 32 0 0 0-.6-3.3h.2l.7-.1c.2-.2.3-.5.3-.8a3 3 0 0 0-.5-2c-.3-.6-.8-1.1-1.5-1.5-.5-.4-1.2-.8-2-1a7.6 7.6 0 0 0-2.2-.5zm12 1c-.5 0-.9 0-1.1.4-.3.3-.4.7-.5 1.3a70.7 70.7 0 0 0-.8 8.9c0 1 0 1.9.2 2.7 0 .4.3.6.6.7a5.9 5.9 0 0 0 2.1.3c.3 0 .5-.4.6-1l.8-3.5c.4-1.2 1-2.3 1.5-3.3.7-1 1.3-1.9 2.1-2.7a7 7 0 0 1 3-1.7l.3.1h.5c.2 0 .3 0 .4-.2.1 0 .2 0 .2-.2 0 0 0-.2-.2-.2a1 1 0 0 0-.4-.3l-.2-.1c-.8-.1-1.5 0-2.3.2-.8.3-1.5.7-2.2 1.2l-2 1.7-1.3 1.7c0-.8 0-1.7.2-2.6l.2-2.6c0-.3-.2-.5-.5-.6a4.1 4.1 0 0 0-1.2-.3zm-60-4.2a5.5 5.5 0 0 0-2.1.2 4.7 4.7 0 0 0-2.7 1.6c-.3.4-.5.9-.4 1.4 0 1 .3 1.8.8 2.6a130.5 130.5 0 0 0 3.8 5c.6.9 1 1.8 1 2.9 0 .5 0 .8-.3 1-.2 0-.4 0-.7-.3a6 6 0 0 1-.9-.7l-.6-.7c0-.1 0-.2-.2-.3l-.4-.2-.5-.2h-.4l-.8.1c-.3 0-.4.2-.4.5 0 .5.2 1 .5 1.4a6.5 6.5 0 0 0 4.7 2.2c.4 0 .9 0 1.2-.2a3 3 0 0 0 1.1-.5c.4-.3.7-.5.8-.9.2-.3.3-.8.3-1.3 0-1.2-.3-2.2-1-3-.5-1-1.2-1.9-2-2.8l-2-2.4c-.5-.8-.8-1.6-.8-2.4 0-.5.1-.9.5-1.2a2 2 0 0 1 1.3-.5c.5 0 .9.1 1.3.4l1.1.7 1 .7c.3.2.6.3 1 .3.1 0 .3 0 .5-.2l.2-.6c0-.5-.2-.9-.7-1.2a5 5 0 0 0-1.5-.9 11.3 11.3 0 0 0-2.6-.5zm48 4.6c.4 0 .7.1 1.1.4l1.1.7a5 5 0 0 1 1.5 2c-.3-.1-.6-.3-1-.3-.7 0-1.2.2-1.6.9a58.8 58.8 0 0 1-2.3 5.1c-.4 1-1 1.8-1.7 2.4l-.8-1.3-.4-1.6a16.7 16.7 0 0 1 0-3.3c0-.5 0-1 .2-1.5l.7-1.6c.3-.6.6-1 1-1.3.4-.4.9-.6 1.5-.7h.7zm-35-2.8h-.3c-.9 0-1.7.2-2.4.6a5 5 0 0 0-1.6 1.6c-.4.6-.7 1.4-.9 2.2l-.3 2.4c0 .7 0 1.4.2 2 .2.7.5 1.3.9 1.8l1.5 1.2a6.2 6.2 0 0 0 4.8-.1 7.5 7.5 0 0 0 4.3-6.5c0-.8-.2-1.6-.6-2.2a6.3 6.3 0 0 0-3.6-2.6c-.7-.2-1.3-.3-2-.3zm-.3 1.3c.2.2.4.4.6.4l.5.2.5.1c.6.4 1 .8 1.3 1.3.3.5.4 1 .4 1.9 0 .6 0 1.2-.2 1.9l-.6 1.8-1.1 1.4c-.5.4-1.1.6-1.8.7-.4 0-.7-.2-.9-.5l-.6-1.2a12.2 12.2 0 0 1-.3-2.5 45.2 45.2 0 0 1 .3-3.6L40 48c.3-.3.7-.6 1.2-.7zm1.5.8zm15 24c-7.8-.6-16-.7-24 0a1.8 1.8 0 0 0-1.6 1.8 1.8 1.8 0 0 0 2 1.6c16-1.2 31 0 45 3.6a1.8 1.8 0 0 0 2-1.3 1.8 1.8 0 0 0-1.3-2c-7.3-1.9-15-3.2-23-3.8z" fill="currentColor" /></svg>