<svg xmlns="http://www.w3.org/2000/svg" viewBox="24 5 136 75">
  <path d="m65.5 5-1 .1c-.4.1-.6.4-.7.7L63.7 7l-.1 2.7v3.4l-.2 3.6a169.4 169.4 0 0 0-.1 4.6c-.5-.5-1-.8-1.8-1a8.3 8.3 0 0 0-4.8.5c-.8.4-1.4.8-1.8 1.4-.5.6-.8 1.4-1 2.3-.2.8-.3 1.8-.2 2.9l.3 2.4c.1.8.4 1.5.7 2.2.4.6 1 1 1.5 1.5a4 4 0 0 0 2.5.5 4 4 0 0 0 3-1.2 8 8 0 0 0 1.8-2.9l.2 1.5.3 2.4c0 .8.2 1.5.4 2.1.2.7.3 1 .6 1.2a3.7 3.7 0 0 0 3.7-.2l.3-.4-.2-.4-.2-.2a27 27 0 0 1-1-5.6 185.5 185.5 0 0 1-.2-23.4c0-.8-.1-1.3-.3-1.6-.2-.3-.7-.4-1.6-.4zM47.3 6.4H47l-.5.1-.6.3c-.2 0-.3.1-.5.3-.1 0-.2.2-.1.4v.2l.2 4 .1 3.9a340 340 0 0 1 .2 14.2l.2 3a45 45 0 0 0 0 2.5c.1.5.3.9.8 1.1.4.3.9.3 1.5.3s1-.2 1.4-.5c.3-.2.5-.6.4-1.2v-1.4l-.5-6.1-.1-6.1a204 204 0 0 0-.7-13.8c0-.3-.2-.6-.5-.7-.2-.3-.5-.4-.9-.4zm-16 .5h-1c-1.1 0-2 .4-2.8 1-.8.7-1.5 1.6-2 2.5a18 18 0 0 0-1 3.3 34.5 34.5 0 0 0 .4 13.1 26 26 0 0 0 2.1 5.7 8 8 0 0 0 1.8 2.3c.7.6 1.5 1 2.4 1.4 1 .3 2 .3 3.1.2a7 7 0 0 0 4.4-2.2c1-1.2 1.8-2.5 2.3-4 .6-1.6.8-3.3.8-5.1 0-1.8 0-3.5-.2-4.9l-.9-5.2a13 13 0 0 0-1.5-4.2A7.7 7.7 0 0 0 36 8c-1.2-.6-2.7-.9-4.7-.9zm88.1 1h-.4c-.3 0-.5.2-.7.5l-1.1 3L116 16c-.4 1.6-.8 3-1 4.5a55.3 55.3 0 0 0-1.3 8.2c-.1 1.6 0 3.2.2 4.7.1.7.3 1.2.5 1.6.2.4.7.7 1.5.8l.5.1h.6l.5-.2c.2-.1.3-.2.3-.4v-1a15.5 15.5 0 0 1-.4-2.1v-1a37 37 0 0 1 1.3-4.6c.4-.9.8-1.6 1.3-2.1.5-.6 1-.9 1.6-.8.6.1 1 .4 1.3 1 .3.4.5 1 .6 1.6a10.2 10.2 0 0 1-.5 5.7 17.7 17.7 0 0 1-2.9 5.4c-.6.8-1.2 1.2-1.8 1.5h-.7c-.2 0-.4.2-.4.4l.1.5.5.4.7.3.5.1a3 3 0 0 0 1.9-.3c.6-.3 1.2-.7 1.7-1.2.6-.6 1-1.3 1.5-2a21.7 21.7 0 0 0 2.4-6.3c.2-1 .2-1.8.2-2.7a7 7 0 0 0-.7-2.5c-.3-.7-.8-1.4-1.4-2a7 7 0 0 0-2.5-1c-.8-.1-1.5 0-2.2.2-.7.1-1.3.5-1.8 1.1a68 68 0 0 1 1.7-7.2 58 58 0 0 0 1.7-7.2c.1-.4 0-.8-.2-1l-1.1-.4h-.5zm-88.3.7c.3 0 .6 0 1 .2.6.3 1.2.7 1.8 1.3a25 25 0 0 1 4 13.4c0 1.3 0 2.6-.3 4v-.3c0 .6-.2 1.3-.4 2.1l-.7 2.4a7 7 0 0 1-1.1 1.9 4 4 0 0 1-1.6 1c-.7 0-1.3-.2-1.9-.6-.5-.4-1-1-1.5-1.7l-1-2.4a35.7 35.7 0 0 1-1.3-5.2c0-.8-.2-1.5-.3-2.1l-.3-2.2a56.3 56.3 0 0 1-.2-5.6c0-1 .2-1.8.4-2.7.1-.8.4-1.5.8-2.1.4-.6 1-1 1.6-1.3l1.2-.2zm42.9 3c-.6 0-1.1.2-1.5.7a3 3 0 0 0-.4 1.7v.3l.1.4.4.2H74l.4-.4a34.8 34.8 0 0 0 .8-1.7v.1-.3l.2-.3c0-.3-.2-.4-.5-.5l-.6-.2H74zM84.6 17c-1 0-2 .4-2.7 1-.9.8-1.6 1.7-2 2.9-.6 1-1 2.3-1.3 3.6-.3 1.3-.4 2.4-.5 3.3 0 1 0 1.9.2 2.8.2 1 .5 1.8.9 2.5a5.1 5.1 0 0 0 4.6 2.5c.9 0 1.7 0 2.4-.3a8 8 0 0 0 2.1-1.2c.7-.5 1.3-1 1.8-1.6l1.4-2 .3-.4.2-.5c0-.3-.1-.5-.4-.5L91 29c-.4 0-.9.3-1.4.8L88 31.6l-2 1.7c-.6.5-1.4.8-2 .8-.5 0-1-.3-1.2-.8-.3-.5-.6-1-.7-1.6a15.2 15.2 0 0 1-.5-3.4h.5c.9.1 1.6-.1 2.4-.6a6 6 0 0 0 1.9-1.8 10.2 10.2 0 0 0 1.8-5 5 5 0 0 0-.7-2.8c-.6-.7-1.5-1-2.6-1a.3.3 0 0 0-.4 0zm.2 1.3h.2c.2 0 .4.2.4.3l.2.6v1.4c0 .4 0 .8-.2 1.3l-.3 1.6a12.5 12.5 0 0 1-1.2 2.8 2 2 0 0 1-.8.7c-.3.1-.5 0-.8-.2l-.5-.5a85 85 0 0 1 .8-5l1-2.3c.3-.6.7-.8 1.2-.8zm-11 .3-1 .1c-.4 0-.6.3-.7.6l-.7 3.5a16.2 16.2 0 0 0-.4 4.8c0 .4 0 .7.2 1l.3.6c.2.4.5.7.8.8.3.2.7.3 1 .3.3 0 .6 0 1-.2.3 0 .5-.2.5-.5v-.5l-.2-.6-.2-1.1v-1.2c0-1.2.1-2.4.4-3.5.3-1.1.4-2.3.5-3.4l-.2-.2-.3-.2c-.3-.2-.6-.3-1-.3zM98.6 20a7.5 7.5 0 0 0-2.7.5 3 3 0 0 0-1.3.9c-.4.3-.6.8-.6 1.3-.1 1 0 1.8.6 2.8l1.5 2.6 1.6 2.8c.5.9.7 2 .6 3 0 .5-.2.8-.4.8s-.4 0-.7-.3l-.7-.8-.6-.8-.1-.3-.4-.2-.5-.3h-1.1c-.3 0-.5.1-.5.4 0 .5.1 1 .4 1.5.3.5.7 1 1.2 1.3l1.5 1c.6.2 1 .4 1.6.4h1.2a4 4 0 0 0 1.2-.4l1-.7.4-1.3a6 6 0 0 0-.6-3.3c-.4-1-1-2-1.6-3l-1.7-2.6a4 4 0 0 1-.6-2.4c0-.5.2-.9.6-1.2a2 2 0 0 1 1.4-.3c.4 0 .8.2 1.1.5l1 .8.8.9c.3.2.6.4 1 .4.2 0 .3 0 .5-.2s.3-.3.3-.6c0-.4-.1-.8-.5-1.2l-1.4-1a10.5 10.5 0 0 0-3.5-1zm-40.2 1.2a2.8 2.8 0 0 1 3 2.6l-.3 2.3a14 14 0 0 1-2 5c-.4.8-1 1.3-1.6 1.7-.5 0-.9-.2-1.2-.7a7 7 0 0 1-.7-1.6 14.6 14.6 0 0 1-.6-4.8l.2-1.4.6-1.3 1.1-1.3a5.3 5.3 0 0 1 1.5-.5zm95.3.4-.6.1-.7.5-.5 1-.3 1a24 24 0 0 1-2.5-.5h-1.4c-.4 0-.6.1-.7.3v.4l.4.3.5.3.4.1 1.4.3 1.4.2-1.4 3-1.2 3.3a469.5 469.5 0 0 1-2.2 7l-.6 2.2c-.2.9-.4 1.8-.4 2.7 0 .9 0 1.7.3 2.4.2.7.8 1.2 1.5 1.4l.5.1h1.2c.2 0 .4-.2.4-.4v-.9l-.2-1c0-1 0-2 .3-3.1a62.6 62.6 0 0 1 3-9.7l2.3-6.5a23 23 0 0 0 2.5.4h1.4c.4 0 .6-.2.6-.6 0-.3-.2-.5-.3-.5l-.7-.2-1.5-.3-1.5-.3.3-.6a39.5 39.5 0 0 0 .2-1.1c-.1-.4-.3-.6-.5-.8a2 2 0 0 0-.8-.4h-.6zm-12.5 4.7h-.2c-.3 0-.6.2-.7.5a180.3 180.3 0 0 1-4.4 7c-.9 1-1.8 2-2.7 2.6-1 .7-2 .9-2.8.7-.5 0-.7-.3-.9-.8s-.2-1-.2-1.6a16 16 0 0 1 1.6-6.1c.3-.5.6-1 .8-1.1 0-.3 0-.5-.3-.7l-.8-.2a3 3 0 0 0-.9 0 2 2 0 0 0-.6.2l-.5.7a14 14 0 0 0-1.8 5.7v2.4a4 4 0 0 0 1 2c.4.6 1.2 1 2 1.2.7.2 1.3.2 2 0 .7 0 1.3-.2 1.9-.5l1.7-1 1.5-1.4a65.7 65.7 0 0 0-1.8 6l.2.4.5.4a5.1 5.1 0 0 0 1 .4h1.4c.3 0 .5-.2.6-.4l.3-1c0-.3 0-.7.2-1.1a161.5 161.5 0 0 1 3.8-13c0-.2-.1-.4-.4-.6a2.7 2.7 0 0 0-1.6-.6zM88.2 38h-.6a1 1 0 0 0-.8.7l-.2 1.2c0 .7-.2 1.6-.4 2.5l-.5 3.4-.5 3.5a381.8 381.8 0 0 0-.6 4.6c-.5-.6-1-1-1.6-1.1a8.1 8.1 0 0 0-4.9-.2 5 5 0 0 0-2 1.3 5 5 0 0 0-1.1 2 14 14 0 0 0-.5 5.3c0 .9.2 1.6.4 2.3a4.3 4.3 0 0 0 3.7 2.5c1.2.1 2.4-.2 3.2-.9 1-.7 1.7-1.6 2.2-2.6V64a70.7 70.7 0 0 0 0 4.5c.2.7.3 1.1.5 1.2a3.8 3.8 0 0 0 3.8.3l.3-.4v-.4l-.2-.2c-.4-1.8-.5-3.7-.4-5.6a200.7 200.7 0 0 1 1.4-14.5c.5-2.8.9-5.8 1.1-8.7 0-.8 0-1.3-.2-1.6-.1-.3-.6-.5-1.5-.6h-.5zm8.5 7.6c-.6 0-1 .2-1.3.6a3 3 0 0 0-.6 1.7v.3c-.1.2 0 .3 0 .4l.4.2.4.1h.3c.4.1.6.1.8 0 .2 0 .3 0 .5-.2l.4-.6.5-1v.1-.3l.2-.3c0-.3 0-.4-.3-.5a3 3 0 0 0-.6-.3h-.2l-.3-.1h-.2zm-60.7 6h-.5c-1 0-1.8.3-2.3.8-.6.5-1 1.1-1.4 1.8a15.5 15.5 0 0 0-.4 6.9c.2.7.4 1.3.8 1.8.3.6.8 1 1.4 1.5a4 4 0 0 0 2.1.4c2-.1 3.3-1 4.2-2.8l.4 2.9a25.3 25.3 0 0 1 .3 6.2c0 1.2-.3 2.4-.7 3.4l-.6-.3-.5-.2h-.7l-.8.1c-.3.1-.4.3-.5.6.5.8 1 1.3 1.5 1.6a4 4 0 0 0 2.3.5c1.1 0 2-.4 2.5-1 .6-.6 1-1.3 1.3-2.1a8 8 0 0 0 .4-2.7 29 29 0 0 0-.7-7.7 65.7 65.7 0 0 1-1.5-10.8l-.3-.3-.5-.2-.6-.1a3.6 3.6 0 0 0-1.4 0 1 1 0 0 0-.7.6 7 7 0 0 0-3.2-1zm70.1.9c-.8 0-1.6.2-2.3.7-1 .7-1.8 1.6-2.4 2.7a16.3 16.3 0 0 0-2.3 6.7c-.2 1-.2 1.9-.2 2.9.1 1 .3 1.7.7 2.5a5 5 0 0 0 1.6 2 6 6 0 0 0 2.8 1 6.8 6.8 0 0 0 4.6-1l1.9-1.4 1.6-2 .3-.2.3-.5c0-.3-.1-.5-.3-.6a2 2 0 0 0-.6-.2 2 2 0 0 0-1.5.6l-1.8 1.7-2 1.5a3 3 0 0 1-2.1.5c-.5 0-.9-.3-1.2-.8a6 6 0 0 1-.5-1.8 15 15 0 0 1-.2-3.3l.5.1a4 4 0 0 0 2.5-.4 7 7 0 0 0 2-1.6 9.6 9.6 0 0 0 2.4-4.7c.2-1 0-2-.5-2.7-.4-.8-1.3-1.2-2.3-1.4a5 5 0 0 0-1 0zm-54.2 0c-.9 0-1.7.1-2.3.6-.7.4-1.2 1-1.7 1.6a10 10 0 0 0-1.2 4.6c0 .8.2 1.5.4 2.2.2.6.4 1.2.8 1.7s1 .9 1.5 1.2c.6.3 1.3.4 2 .4 1 0 2-.2 2.8-.6.8-.4 1.5-.9 2.1-1.7.6-.6 1.1-1.4 1.4-2.2.3-.9.5-1.8.5-2.7 0-.8-.2-1.4-.6-2-.4-.7-1-1.2-1.6-1.7a7 7 0 0 0-2.1-1 7 7 0 0 0-2.2-.4zm-16 0h.1c.7.2 1.3.5 1.9.9a5 5 0 0 1 1.5 1.4v1.1L39 58l-.5 2.4c-.2.9-.5 1.6-.9 2.2-.4.6-1 .9-1.7 1a1 1 0 0 1-1-.6l-.5-1.2A10.5 10.5 0 0 1 34 59a23.2 23.2 0 0 1 .3-3.7c.1-.8.4-1.4.6-2 .3-.5.6-.7 1-.7zm30 .2c-.7 0-1.4.2-2 .5a6 6 0 0 0-1.6 1.6c-.5.6-.8 1.3-1 2.1-.2.8-.4 1.6-.4 2.4 0 .7 0 1.4.2 2.1.2.7.5 1.3.8 1.8.4.5 1 .9 1.4 1.2a5 5 0 0 0 2.1.5 7 7 0 0 0 2.8-.5c.8-.3 1.5-.8 2.2-1.5a7.4 7.4 0 0 0 2.1-4.8c0-.8-.1-1.5-.5-2.2-.4-.6-.9-1.2-1.5-1.6-.6-.5-1.3-.8-2.1-1a6.8 6.8 0 0 0-2.5-.5zm30.2.2h-.6c-.3 0-.6.3-.7.5l-1.1 3.5a16.6 16.6 0 0 0-.9 4.6c0 .4 0 .7.2 1l.2.6c.1.4.3.7.7 1l1 .3h1c.3 0 .5-.2.5-.5v-1.2a122.4 122.4 0 0 1 0-2.3c0-1.2.4-2.3.8-3.4.4-1 .6-2.2.8-3.3 0-.2 0-.2-.2-.3l-.2-.3-1.1-.3H96zm-14.2 1h.2a3 3 0 0 1 2 .9c.6.6.8 1.3.8 2l-.6 2.3a15 15 0 0 1-2.5 4.8 5 5 0 0 1-1.9 1.4c-.4 0-.8-.3-1-.8-.3-.5-.5-1-.6-1.7a14.8 14.8 0 0 1-.2-3.2c0-.7 0-1.2.2-1.7 0-.5.2-1 .4-1.4.1-.4.4-.7.7-1.1l1.3-1.2a4.9 4.9 0 0 1 1.3-.3zm-29 0c.1.2.3.4.5.4l.5.2.5.1c.6.4 1 .7 1.3 1.2.3.5.4 1.1.5 1.8 0 .6 0 1.2-.2 2a5.8 5.8 0 0 1-1.7 3c-.5.4-1 .7-1.8.8-.3 0-.6-.1-.9-.5a5.6 5.6 0 0 1-.9-2.5V59a52 52 0 0 1 .2-3.5l.6-1c.3-.4.8-.6 1.3-.8zm1.5.8h-.1zm53.2-.8h.4l.4.4.1.6v.8l-.1.6-.3 1.3a14.9 14.9 0 0 1-2 4.4 2 2 0 0 1-.9.6c-.3 0-.5 0-.7-.3l-.5-.6.4-2.1 1-2.8a9 9 0 0 1 1.1-2.2c.3-.4.7-.7 1-.7zm-41.2.2c.2.2.4.4.6.4l.5.2.5.2c.6.3 1 .7 1.3 1.2.3.5.4 1.2.4 1.9l-.3 1.8a6 6 0 0 1-1.8 3.2c-.4.4-1 .6-1.7.6-.4 0-.6-.1-.9-.4a5.5 5.5 0 0 1-.8-2.6v-1.1a45.7 45.7 0 0 1 .4-3.6c.1-.4.4-.8.7-1 .3-.3.7-.6 1.2-.7zm1.6.8zm52 1.9a8.4 8.4 0 0 0-2 .2c-.5.2-1 .4-1.4.8-.4.3-.6.7-.7 1.2a5 5 0 0 0 .3 2.7l1.4 2.9c.5 1 1 1.9 1.3 2.8.4 1 .5 2 .3 3-.1.6-.3.8-.5.9-.2 0-.4-.1-.7-.4l-.6-.9-.5-.8-.1-.3-.4-.3c-.2 0-.3-.2-.4-.3l-.4-.1a4 4 0 0 0-.8 0c-.3 0-.5 0-.6.3 0 .5 0 1 .3 1.5l1 1.4a7.3 7.3 0 0 0 3 1.7 4.3 4.3 0 0 0 2.5-.2 2.4 2.4 0 0 0 1.5-1.8c.2-1.2.1-2.2-.3-3.2a16 16 0 0 0-1.3-3l-1.4-2.9c-.4-.9-.5-1.7-.4-2.5.1-.5.4-.9.8-1a2 2 0 0 1 1.3-.3c.5.1.9.3 1.2.6l.9 1 .8.9c.2.3.5.4.9.5.1 0 .3 0 .5-.2.2 0 .3-.3.4-.5 0-.4-.1-.9-.5-1.3-.3-.5-.7-.8-1.3-1.1a9.3 9.3 0 0 0-4-1.4zM65.6 71.2c-4.1 0-8.1.2-12 .7a1.9 1.9 0 0 0-1.8 2 1.9 1.9 0 0 0 2.1 1.7 112 112 0 0 1 46.8 4.8 1.9 1.9 0 0 0 2.4-1.1 1.9 1.9 0 0 0-1.1-2.4 102.6 102.6 0 0 0-35.7-5.6z" fill="currentColor"/>
</svg>
