<svg xmlns="http://www.w3.org/2000/svg" viewBox="0 0 194.7 81.7">
  <path d="m68.4 10-.6.2-.5.3c-.2 0-.3.2-.4.3l-.2.4.3 8c.1 2.6.4 5.2.9 8a276.3 276.3 0 0 0 2.5 13.2l-.3.5c.3.7.7 1.2 1 1.4.4.2 1 .3 1.8.1A4.5 4.5 0 0 0 74 42c.2 0 .4-.2.5-.3l.2-.5a65 65 0 0 0-1-4.6l-1-4.5a40.5 40.5 0 0 1 3.3 3c.7.4 1.3.8 2 1 .6.3 1.3.4 2 .3h.4l.4-.2.4-.2.2-.4V35a24 24 0 0 1-5.4-4c.5-.3 1-.8 1.4-1.3a9.2 9.2 0 0 0 1.8-4 5 5 0 0 0 .1-2c-.1-.6-.3-1-.7-1.4-.3-.4-.8-.5-1.5-.4a3 3 0 0 0-1.5.8l-1.5 1.5a21.4 21.4 0 0 0-2.3 3.3l-.3-1.8a184.7 184.7 0 0 1-1-7.8v-3.4a14.7 14.7 0 0 0-.3-3.6v-.4a2 2 0 0 0-1.1-.5 3 3 0 0 0-.8 0zm-35 4.4-.3.1c-.5.2-.8.5-.9 1V17l.3 1.7.3 1.4a135.5 135.5 0 0 0 1.4 10.3 334 334 0 0 1 1.3 10.2 86.8 86.8 0 0 0-4.6-6.2 546.9 546.9 0 0 1-4.5-6.4l-1.3-2.3c-.5-.8-1-1.5-1.6-2-.3-.2-.7-.4-1.1-.3a5.1 5.1 0 0 0-1.9.5 2.2 2.2 0 0 0-1 .9v.5l.3.4.2.3 2 3a185.7 185.7 0 0 0 6.7 10.2 215 215 0 0 1 7.1 10c.1.2.3.3.5.3H38l.8-.3.6-.3.6-.5.4-.5c.1-.1.2-.3.1-.5l-.1-.2-.3-.2a53.8 53.8 0 0 1-2.3-11 331.7 331.7 0 0 1-1.3-11.3l-.7-4.5a43 43 0 0 0-.8-4.5c-.2-.5-.4-.9-.7-1.1-.2-.2-.4-.2-.8-.2Zm-14 10.9h.1zm40.8-12.5h-.5l-.4.2-.6.3c-.2 0-.3.2-.4.3-.1.2-.2.3-.1.5l.1.2a205.3 205.3 0 0 0 1.3 7.7 288 288 0 0 1 2 14.1l.5 3a139 139 0 0 0 .4 2.4c0 .6.4 1 .8 1 .5.2 1 .3 1.5.1.6 0 1-.3 1.4-.6.3-.3.4-.7.3-1.3l-.3-1.4-1.2-6-1-6a230.5 230.5 0 0 0-2.3-13.7 1.4 1.4 0 0 0-1.5-.8zm38.6 8.4c-.6 0-1 .2-1.3.4-.2.3-.4.6-.4 1V25l.1 2.3a45.3 45.3 0 0 0 .8 5.2c.2.9.5 1.5.8 2 .2.4.5.5.8.6h1c.8 0 1.3-.2 1.5-.6.3-.4.4-1 .4-1.5l-.1-1.8a13.3 13.3 0 0 1-.3-3.4l.2-2c.2-.6.4-1.1.8-1.5a2 2 0 0 1 1.4-.8c.5 0 1 .1 1.3.5l1.2 1.3 1 1.7a113.2 113.2 0 0 0 2 3.1c.3.4.6.5 1 .5s.6-.2.8-.6l.4-1.4.2-1.9a31.9 31.9 0 0 1 .4-3.3c.1-.4.4-.6.7-.6.2 0 .5.2.6.7a23 23 0 0 1 .8 3.9 40 40 0 0 1 .5 4.8l.1 1.8c0 .5.2.9.6 1l1.1.1h.5l.5-.2.5-.2c0-.1.2-.3.1-.4v-2.2a37.9 37.9 0 0 0-1.7-9c-.4-1-.9-1.6-1.4-2.2-.6-.5-1.2-.7-2-.7-.7 0-1.3.3-1.7.8a6 6 0 0 0-1 1.7l-.4 2.1-.3 1.9a7.7 7.7 0 0 0-4-4 4 4 0 0 0-1.9-.4c-.8 0-1.5.2-2.1.5-.6.3-1.2.7-1.6 1.3l-.2-2.2c0-.2 0-.4-.2-.5a1 1 0 0 0-.5-.2 4.3 4.3 0 0 0-1-.1zm24.7-.9c-.4 0-.7.2-1 .3-.2.2-.4.5-.5 1v1.2l-.1 1.3v2.3a45.7 45.7 0 0 0 .3 5.3c.1.8.3 1.5.6 2 .1.4.4.5.8.6l1 .1c.7 0 1.2-.1 1.5-.5.3-.4.4-.8.5-1.4v-1.8a13.2 13.2 0 0 1 0-3.5l.4-1.9c.2-.6.5-1 .9-1.5a2 2 0 0 1 1.4-.6c.5 0 1 .2 1.3.6.4.3.8.8 1.1 1.4l.9 1.8a113.7 113.7 0 0 0 1.7 3.2c.3.4.6.6 1 .6.3 0 .6-.2.8-.5.3-.4.4-.9.5-1.4a31.8 31.8 0 0 1 1-5c.2-.5.5-.7.8-.6.2 0 .4.2.6.6.1.5.3 1 .3 1.7l.2 2.3a40.2 40.2 0 0 1 0 4.9v1.8c0 .5.1.8.4 1l1.2.2h1l.5-.3.2-.4V33a38 38 0 0 0-.9-9.3c-.3-.8-.7-1.6-1.2-2.1-.5-.6-1.1-1-1.9-1-.7 0-1.3.2-1.7.7A6 6 0 0 0 136 23l-.7 2-.4 1.8c-.2-.5-.4-1.1-.8-1.7a7.8 7.8 0 0 0-3-2.7c-.5-.3-1.1-.4-1.7-.5-.8 0-1.5.1-2.2.4-.6.2-1.2.6-1.7 1.2v-2.3l-.1-.4a1 1 0 0 0-.5-.3 4.3 4.3 0 0 0-1.4-.2zm-73.2 6.3a5 5 0 0 0-.8.2c-1.2.3-2.1 1-2.7 2-.6.9-1 2-1.2 3.3-.1 1.2-.2 2.4 0 3.7 0 1.3.2 2.4.5 3.3.2 1 .6 1.9 1 2.7.4.8 1 1.5 1.6 2 .6.6 1.4 1 2.2 1.2a6 6 0 0 0 3-.1c.8-.3 1.6-.6 2.2-1 .6-.6 1.2-1.1 1.6-1.8L59 40a20.6 20.6 0 0 0 1-3.3c-.1-.3-.3-.4-.5-.4h-.7c-.4.1-.7.5-1 1.2a419.8 419.8 0 0 0-2.4 4.4 3 3 0 0 1-1.7 1.3c-.5.1-.9 0-1.3-.4-.5-.3-.9-.8-1.2-1.3a14.6 14.6 0 0 1-1.5-3l.6-.1c.8-.3 1.5-.7 2-1.4.6-.7 1-1.5 1.3-2.3a10 10 0 0 0 .3-5.2 4 4 0 0 0-1.5-2.4 3 3 0 0 0-2-.5zm37.5-3h-.2c-1 0-1.7.4-2.3.9-.6.4-1 1-1.4 1.7-.3.7-.6 1.5-.7 2.3a10 10 0 0 0 0 2.4c.1.7.3 1.4.6 2 .2.7.6 1.2 1 1.7l1.6 1a6.3 6.3 0 0 0 4.7-.7c.8-.5 1.5-1.1 2-1.9.6-.7 1-1.5 1.2-2.4.3-.9.3-1.8.2-2.7 0-.8-.3-1.5-.8-2-.5-.6-1-1.1-1.7-1.5a7 7 0 0 0-2.2-.7 7 7 0 0 0-2-.2zm-11 .9c.1 0 .3.1.3.3 0 .2 0 .6-.3 1-.1.5-.4 1-.7 1.6a15.9 15.9 0 0 1-2.4 2.9l-1.1.6.8-2a37.7 37.7 0 0 1 2.4-3.7l.7-.7h.2zm75.8-5.2c-.9.1-1.7.4-2.3 1-1 .6-1.7 1.6-2.3 2.7-.6 1-1 2.2-1.4 3.5a13.7 13.7 0 0 0-.6 6.1c0 1 .3 1.7.7 2.5.4.7 1 1.3 1.7 1.8a6 6 0 0 0 2.8 1 6 6 0 0 0 2.4-.3c.8-.2 1.5-.5 2.2-1l1.9-1.6a20.6 20.6 0 0 0 2-2.7c0-.3 0-.5-.3-.6l-.6-.2c-.4 0-1 .2-1.5.7a409.4 409.4 0 0 0-3.7 3.3 3 3 0 0 1-2 .7c-.5 0-.9-.4-1.2-.8-.3-.5-.5-1-.6-1.7a14.6 14.6 0 0 1-.3-3.4l.5.1c.9.1 1.7 0 2.4-.5a10 10 0 0 0 4.1-6.5 4 4 0 0 0-.6-2.8c-.5-.7-1.3-1.1-2.4-1.2h-1zm-64.9 5.5.7.4.5.1.5.1c.6.3 1.1.6 1.4 1 .4.5.6 1.1.7 1.8v1.9a5.7 5.7 0 0 1-1.3 3.4c-.4.4-1 .7-1.7.9-.3 0-.6 0-1-.4a5.7 5.7 0 0 1-1.1-2.4 45.4 45.4 0 0 1-.3-4.7c0-.5.2-.9.5-1.2.2-.3.6-.6 1.1-.9zm1.7.6h-.1zm-39.5 2.7.5.1.3.5.3.7.2.7.2 1.3a11.7 11.7 0 0 1 0 3.3c0 .5 0 1-.2 1.4a2 2 0 0 1-.5 1c-.2.1-.5.1-.8 0l-.7-.4a79.7 79.7 0 0 1-.7-5c0-1 0-1.8.3-2.5.1-.7.5-1 1-1.1zm103-7.5h.5l.4.4.1.6V23l-.3 1.3a11.7 11.7 0 0 1-1.1 3.1 6 6 0 0 1-.7 1.3 2 2 0 0 1-.8.7c-.3 0-.5 0-.8-.3l-.5-.5a79.8 79.8 0 0 1 1.1-5 9 9 0 0 1 1.1-2.2c.3-.5.7-.7 1-.8zm40.5-1.2-.6.1-.7.6c-.2.2-.3.5-.4.9l-.3 1a22.6 22.6 0 0 1-2.5-.3h-1.4c-.4 0-.6.2-.7.4l.1.4.4.3.4.2.5.1 1.3.3 1.4.1a70.2 70.2 0 0 0-4.2 13.5l-.5 2.2-.3 2.7c0 .9.1 1.7.4 2.4.3.7.8 1.2 1.7 1.4h.4l.7.1.6-.1c.1 0 .3-.2.3-.4v-1c-.2-.2-.3-.5-.3-.9 0-1 0-2 .2-3.1a67.1 67.1 0 0 1 2.5-9.9l2-6.6a25.3 25.3 0 0 0 2.6.3h1.3c.5 0 .6-.3.6-.6s-.2-.5-.3-.5l-.7-.3a9 9 0 0 0-1.5-.2l-1.5-.2.2-.6.2-.7v-.4c-.1-.4-.3-.6-.5-.8l-.8-.3-.6-.1zm-21 2c-.5 0-1 .1-1.4.4-.8.5-1.5 1-2.1 1.7a19.3 19.3 0 0 0-3 4.1V27c0-.5-.2-.8-.5-1-.4-.2-.9-.4-1.6-.5a1 1 0 0 0-.6 0l-.5.4-.3.6-.2.8a34.3 34.3 0 0 1-.6 3.4 57.5 57.5 0 0 0-.2 4c0 .7.2 1.2.5 1.6.2.4.6.7 1.1.7l.7.1h1.5c.2-.1.3-.3.3-.5a16.3 16.3 0 0 1 4-11.4c.8-.6 1.5-1 2-.8.7.1 1 .6 1.2 1.4a41.6 41.6 0 0 1-.3 6.8 83 83 0 0 0-.7 6.8c.1.8.4 1.3 1 1.4h.3l.6-.1.5-.2c.2 0 .3-.1.3-.2V39a13.7 13.7 0 0 1 .2-3.6 70.7 70.7 0 0 0 .7-10.2c0-1-.3-2-.6-2.6-.3-.7-.8-1.1-1.5-1.3a3 3 0 0 0-.8 0zm39.5-1.4-.3.1c-.2 0-.3.2-.3.4v.2a205.2 205.2 0 0 0-2.7 7.3 287.8 287.8 0 0 1-5 13.4l-1 2.8a139.7 139.7 0 0 0-1 2.3c0 .5 0 1 .3 1.3.3.4.8.7 1.3.8.6.2 1.1.2 1.5.1.4 0 .7-.4.9-1l.4-1.3a149 149 0 0 1 1.9-5.8L210 35a230.4 230.4 0 0 0 4.6-13.1c0-.3 0-.6-.2-.9-.1-.2-.4-.5-.7-.6l-.5-.2H212zm-8.7 3.6c-.3 0-.6.1-1 .4-.3.4-.6.9-.8 1.5l-.1.3v.4c.2 0 .3.2.4.3.1 0 .3 0 .4.2h.3l.7.2.5-.2c.2-.2.4-.3.5-.6l.7-.8.1-.3.2-.3c0-.2 0-.4-.3-.5l-.5-.4h-.2l-.2-.2a2 2 0 0 0-.7 0zm-2.7 6.6c-.3 0-.5.1-.6.4l-1.7 3.2a16 16 0 0 0-1.6 4.5v1l.1.7c0 .4.3.7.5 1l1 .4.9.2c.4 0 .6-.1.6-.4V41l.1-.3v-.5a9907.8 9907.8 0 0 0 .4-2.3c.3-1.2.8-2.3 1.3-3.3.6-1 1-2 1.4-3.1l-.1-.3-.3-.3c-.2-.2-.5-.4-1-.5a4.7 4.7 0 0 0-1-.1zM140.2 39a5 5 0 0 0-.5 0c-.4.1-.6.3-.8.7l-.2 1.2a1465.1 1465.1 0 0 1-1.7 14c-.5-.4-1-.8-1.7-1a8 8 0 0 0-4.8 0 5 5 0 0 0-3.2 3.4l-.5 2.8.1 2.4c.1.8.3 1.6.6 2.2.3.7.8 1.2 1.3 1.7.6.4 1.4.7 2.4.7 1.2.1 2.3-.2 3.1-1 .9-.7 1.6-1.5 2.1-2.6v1.6a79.8 79.8 0 0 0 .3 4.5c0 .7.2 1.1.4 1.3.6.3 1.2.5 2 .6.6 0 1.3-.1 1.8-.4l.3-.5v-.3l-.3-.3c-.3-1.8-.5-3.7-.5-5.6a201.2 201.2 0 0 1 1.2-14.5l.9-8.8c0-.8 0-1.3-.2-1.6-.2-.3-.7-.5-1.6-.5h-.5zm-62.7 7.6c-.7 0-1.1.3-1.4.9-.2.5-.3 1-.3 1.7v.4l.3.3.4.1h.7l.7-.1.5-.4.2-.7.3-1v-.3l.1-.3c0-.3-.2-.4-.4-.5l-.7-.1h-.4zm88.3-6.4c-.2 0-.4 0-.6.2-.3.2-.5.5-.6.9-.2.3-.3.8-.3 1.2l-.1 1.4a72 72 0 0 1-2 9.5 71.5 71.5 0 0 0-1.8 10.2l.6.5.7.3a6.4 6.4 0 0 0 1.3.2l.8-.1c.2 0 .4-.2.5-.3.2-.1.3-.4.4-.6.4-3.2 1-6.4 1.6-9.5.6-3.2 1.2-6.3 1.6-9.6l.3-1.6.1-1.6v-.1c.1-.2 0-.3-.1-.5a1 1 0 0 0-.5-.2l-.6-.2-.5-.1a3 3 0 0 0-.8 0zM122.7 45c-.5 0-1 .2-1.2.7-.3.4-.5 1-.5 1.6v.4l.1.3.4.2.4.1h1.1l.4-.4c.2-.1.3-.3.4-.6l.4-1v-.2l.2-.4c0-.2-.1-.4-.4-.5l-.6-.2h-.7zm-30.2 5c-.7 0-1.4.3-2 1-.6.5-1.2 1.2-1.7 2a19.3 19.3 0 0 0-2 4.8l-.2-.6c0-.5-.2-.8-.6-1h-1.7a1 1 0 0 0-.6.2l-.4.4-.2.7v.7a34.2 34.2 0 0 1 .2 3.5 57.4 57.4 0 0 0 .7 4c.3.6.5 1 .9 1.4.3.3.8.5 1.3.4h.6l.8-.2.7-.2c.2-.1.2-.3.2-.5a16.3 16.3 0 0 1 1.4-12c.5-.8 1.1-1.3 1.7-1.3.6 0 1.1.4 1.4 1.1a41.6 41.6 0 0 1 1.2 6.7 83 83 0 0 0 1 6.8c.3.8.7 1.1 1.2 1.1l.4-.1.5-.2c.2 0 .3-.2.5-.3l.2-.3-.3-1.3a13.7 13.7 0 0 1-.6-3.4 70.9 70.9 0 0 0-1.6-10.2c-.3-1-.7-1.8-1.2-2.4-.5-.6-1-.9-1.8-.8Zm-14.7 3.8c-.3 0-.6 0-1 .2-.3.1-.5.3-.5.6l-.4 3.6a16 16 0 0 0 .2 4.8c0 .3.1.7.3 1l.4.5c.2.4.5.6.8.7.4.1.7.2 1.1.1.3 0 .5 0 .9-.2.3-.1.5-.3.5-.5l-.2-.3V64l-.2-.6-.3-1-.2-1.2v-3.5a14 14 0 0 0 .1-3.4l-.1-.3-.4-.2h-1zm-10 1.8h-.4c-.7.1-1.2.4-1.6 1a6 6 0 0 0-.7 1.8l-.3 2.1v1.9l-1.2-1.5a7.7 7.7 0 0 0-3.4-2.1 4 4 0 0 0-1.8-.2c-.8.1-1.5.4-2 .8-.6.3-1.1.8-1.5 1.5l-.4-2.3c0-.2-.1-.3-.3-.4a1 1 0 0 0-.5-.2 4.4 4.4 0 0 0-1 0c-.6.1-1 .3-1.2.6-.3.3-.4.6-.4 1l.1 1.2.3 1.3.3 2.3a45.3 45.3 0 0 0 1.3 5.1l1 2c.2.2.5.4 1 .4l1-.1c.7-.1 1.1-.4 1.3-.8.2-.4.3-1 .2-1.5l-.3-1.8a13.3 13.3 0 0 1-.6-3.4v-1.9c.1-.6.3-1.2.6-1.6a2 2 0 0 1 1.3-1c.5 0 1 0 1.4.4l1.3 1.2 1.2 1.6a112.6 112.6 0 0 0 2.2 2.8c.4.3.8.5 1.1.4.4 0 .6-.3.8-.6l.2-1.5v-1.9a32 32 0 0 1 0-3.3c.2-.4.4-.6.7-.7.2 0 .5.2.7.6l.7 1.5.6 2.3a40 40 0 0 1 1 4.7l.2 1.8c0 .6.3.9.6 1h1.2l.5-.1a3 3 0 0 0 .9-.5c.1-.1.2-.3.1-.5l-.3-2a38 38 0 0 0-2.6-9c-.5-.8-1-1.4-1.6-1.9-.6-.4-1.1-.6-1.8-.5zm43.1-3.6c-.3 0-.7 0-1.1.2-.6 0-1.1.3-1.6.5l-1.2 1c-.3.4-.4.9-.4 1.4 0 1 .3 1.8.8 2.7a65.2 65.2 0 0 0 3.7 5c.6 1 1 1.9 1 3 0 .5-.2.8-.4.8s-.4 0-.7-.2a5 5 0 0 1-.8-.7l-.7-.8-.1-.2-.4-.2-.5-.2h-.4a4 4 0 0 0-.8 0c-.3.1-.5.3-.5.5 0 .5.2 1 .6 1.4a6.2 6.2 0 0 0 3 2l1.5.3a4.8 4.8 0 0 0 2.4-.7 2.4 2.4 0 0 0 1.2-2c0-1.2-.3-2.3-1-3.2a158.9 158.9 0 0 1-3.8-5.2c-.5-.8-.8-1.6-.8-2.4 0-.5.1-1 .5-1.2a2.1 2.1 0 0 1 2.5-.1c.4.2.8.4 1 .7l1 .8c.3.2.7.3 1 .3.2 0 .4-.1.5-.3.2-.1.3-.3.3-.6 0-.4-.3-.8-.7-1.1a5 5 0 0 0-1.5-.9 10 10 0 0 0-3.6-.6zm11 0-.5.1c-.4 0-.6.3-.7.6l-.8 3.5a16 16 0 0 0-.4 4.7c0 .4 0 .7.2 1l.3.6c.2.4.4.7.7.9l1.1.2.9-.1c.3 0 .5-.2.5-.5v-.6l-.1-.5-.2-1.1v-1.2c0-1.3.1-2.4.4-3.5.3-1.1.5-2.2.5-3.4l-.1-.3-.3-.2-1-.2h-.5zm29.3 0c-.9.1-1.7.4-2.3 1-1 .6-1.7 1.5-2.3 2.6a22.3 22.3 0 0 0-2 6.8c-.2 1-.2 2-.1 2.9.1.9.4 1.7.8 2.5.4.7 1 1.3 1.6 1.8a6 6 0 0 0 2.9 1 6 6 0 0 0 2.4-.3c.8-.2 1.5-.5 2.1-1 .7-.4 1.3-1 1.9-1.5a20.6 20.6 0 0 0 2-2.8c0-.3 0-.5-.2-.5l-.7-.2c-.4 0-.9.2-1.4.7a417.8 417.8 0 0 0-3.7 3.3 3 3 0 0 1-2.1.6c-.5 0-.8-.3-1.1-.8l-.7-1.7a14.6 14.6 0 0 1-.2-3.4l.5.1c.8.1 1.6 0 2.4-.5.7-.4 1.4-1 2-1.7A10 10 0 0 0 155 56a4 4 0 0 0-.6-2.8c-.5-.7-1.3-1.1-2.4-1.2h-1zM133 54.8h.2a3 3 0 0 1 2 .9c.5.5.8 1.2.7 2a14.4 14.4 0 0 1-3 7c-.4.7-1 1.2-1.7 1.5-.4 0-.8-.3-1-.8l-.7-1.6a14.2 14.2 0 0 1 0-5c0-.5.1-.9.3-1.3.1-.4.4-.8.7-1.2l1.2-1.2a5.4 5.4 0 0 1 1.3-.3zm18.6-1.3h.4c.2 0 .3.2.4.3l.1.6v1.4l-.3 1.3a11.7 11.7 0 0 1-1.1 3.2 6 6 0 0 1-.7 1.2 2 2 0 0 1-.9.7c-.2 0-.5 0-.7-.3l-.5-.5a78.8 78.8 0 0 1 1.1-5 9 9 0 0 1 1.1-2.2c.3-.5.7-.7 1-.7zm10 14.5a2 2 0 0 0-.7.2l-.9.8-.5 1.2-.3 1.3c0 .2 0 .3.2.5a2.2 2.2 0 0 0 1.1.6l.5.2c.7 0 1.2 0 1.5-.2.4-.2.6-.4.7-.8l.2-1.3.3-1.4c-.1-.3-.3-.6-.5-.7a2 2 0 0 0-.9-.3h-.7zm-62.4 8.2c-15.8 1.2-31 3.3-44.4 5.6a1.9 1.9 0 0 0-1.5 2.1 1.9 1.9 0 0 0 2.1 1.6c34-5.9 80.3-10.2 115.3-2a1.9 1.9 0 0 0 2.2-1.4 1.9 1.9 0 0 0-1.4-2.2 202.2 202.2 0 0 0-43.7-4.7c-9.5 0-19.2.3-28.6 1z" fill="currentColor" transform="rotate(5 180.5 -216)"/>
</svg>
