<svg xmlns="http://www.w3.org/2000/svg" viewBox="-2 -2 199 111"><path d="M27-1.1a2 2 0 0 0-.6 0c-.6.1-1 .4-1.4.8-.3.6-.5 1.5-.7 2.7l-.5 4.8a157 157 0 0 1-1.5 14l-.5 6.8-2.6-8a40 40 0 0 1-1.7-8.7l.2-.6c0-.3-.2-.5-.6-.5h-.7c-1 0-1.8.4-2.5.8-.6.5-.8 1.2-.8 2l.2 2c-.6 2.4-1 4.4-1.3 6.5l-.8 6.3-1-6.2A180 180 0 0 0 8 8.6c-.4-2.1-1-4.2-1.8-6.2 0-.5-.4-.8-1-.8H4l-1.3.3c-.5.2-.8.5-.7 1l1.8 9.8 1.7 10 1.5 11 1.7 11c0 .1 0 .3.4.4l.6.5 1 .4h1.5a3 3 0 0 0 1.5-.4c.3-.3.5-.8.3-1.5-.2-3-.3-6 0-9l1-13a236 236 0 0 0 4.9 16 2 2 0 0 0 1.3 1.3 7.2 7.2 0 0 0 3.4-.4l.6-.5c.2 0 .3-.2.2-.4 0-.4-.1-.9-.3-1.2l-.2-1.3 3-38c0-.4 0-.8-.5-.9a2 2 0 0 0-.6-.1zm33 3h-1.2l-.8.2-.7.4-.2.6v.3a241 241 0 0 0-.2 10 385 385 0 0 1-1.2 19l-.1 3.9a66 66 0 0 0-.2 3.2c0 .7.3 1.2.9 1.6.5.2 1 .4 1.8.4a4 4 0 0 0 2-.4c.4-.3.6-.9.6-1.7v-9.6l.4-8a266 266 0 0 0 .5-18c0-.4-.2-.7-.4-1zm115 18-1.1.1-1 .7-.5 1.2-.3 1.4a29 29 0 0 1-3.3-.2H167c-.5 0-.8.2-.8.4l.1.6.4.3.7.4h.6c.6.3 1.2.3 1.8.4h1.8l-1.4 4-1.4 4.5-1.3 4.6a190 190 0 0 0-1.6 7.5 19 19 0 0 0-.4 3.5 8 8 0 0 0 .6 3 3 3 0 0 0 2 2l1.6.2c.3 0 .5 0 .7-.2.2 0 .4-.2.4-.5v-1.2l-.4-1.2c0-1.3 0-2.7.2-4.1a83 83 0 0 1 3-13l2.5-8.6a27 27 0 0 0 3.3.4 5 5 0 0 0 1.8 0c.5-.3.7-.5.6-1 0-.3-.1-.6-.3-.6l-1-.3-1.9-.2-1.9-.2.3-1a93 93 0 0 0 0-1.3 2 2 0 0 0-.5-1c-.2-.2-.6-.3-1-.4h-.5zm-29 3.3a6 6 0 0 0-3.7 1 9.4 9.4 0 0 0-3.1 3.3A19.7 19.7 0 0 0 136 36l-.3 3.6c.1 1.2.4 2.3.9 3.3a6.8 6.8 0 0 0 5.7 4c1 0 2 0 3-.2a13 13 0 0 0 5.6-3.1 23 23 0 0 0 3-3.3c0-.4-.2-.7-.5-.9l-.8-.2c-.5 0-1.2.2-2 .8l-2.4 1.9a24 24 0 0 1-2.7 2 4 4 0 0 1-2.8.7c-.6 0-1-.5-1.4-1.1a9 9 0 0 1-.7-2.3 18 18 0 0 1 0-4.3h.6a5 5 0 0 0 3-.4 12 12 0 0 0 5-4.8c.5-1 1-2.1 1-3 .3-1.5 0-2.7-.5-3.7s-1.7-1.5-3.2-2a7 7 0 0 0-.6 0zm-71-4.5h-.5a7.2 7.2 0 0 0-6.4 3.3c-.7 1-1.2 2-1.6 3.4a15 15 0 0 0-.1 7.6c.4 1.2 1 2 1.6 3 .7 1 1.7 1.6 2.8 2 1 .5 2.3.7 3.7.9a13 13 0 0 0 8.2-2.7c.6-.7 1.2-1.3 1.6-2.2v-.2c0-.3-.2-.5-.5-.6H83c-.7-.1-1.3 0-1.9.5l-1.9 1.4-2 1.3c-.8.3-1.6.6-2.4.5-1 0-1.7-.2-2.3-.8a6.3 6.3 0 0 1-1.4-2 10 10 0 0 1-1-5.2l.3-2 .7-2.4c.3-.8.6-1.6 1.1-2.2.4-.7.8-1.2 1.4-1.6.4-.4 1.1-.6 1.6-.4.6 0 1.3.4 1.9 1.2l.7.7a14 14 0 0 1 1.2 1.6l.2.2h1c.2-.3.4-.7.4-1 0-.9-.2-1.5-.7-2-.3-.5-.9-1-1.6-1.3-.5-.3-1.3-.6-1.9-.7l-1.6-.2zm33 3c-.6 0-1.1 0-1.4.3a2 2 0 0 0-.8 1 6 6 0 0 0-.2 1.7l-.2 1.7-.3 3a65 65 0 0 0-.2 6.9l.7 2.8c.1.4.5.6 1 .8l1.3.3c1 0 1.6-.1 1.9-.6.3-.5.7-1 .7-1.7l.2-2.4a18 18 0 0 1 1.2-6.9l1.2-1.9c.6-.4 1.3-.7 2.1-.6.6 0 1.2.3 1.6.8.5.5 1 1.1 1.3 2l1 2.3.8 2.4 1.2 2c.4.4.7.7 1.2.7s.8-.1 1-.5c.4-.5.7-1 .9-2l.5-2.2a37 37 0 0 1 1.3-4.1c.3-.5.6-.8 1.1-.6.2 0 .5.3.7.8l.3 2.2v3a50 50 0 0 1-.7 8.8c-.1.7 0 1.1.4 1.3.4.2 1 .4 1.5.4h.6a4 4 0 0 0 1.3-.2c.3 0 .4-.3.4-.5l.2-2.8a51 51 0 0 0-.2-12 7 7 0 0 0-1.4-2.9 3.7 3.7 0 0 0-2.4-1.4 3 3 0 0 0-2.4.6 7 7 0 0 0-1.6 2.1l-1 2.6-.8 2.2a8.8 8.8 0 0 0-2.4-4.4 8.8 8.8 0 0 0-2.1-1.7c-.7-.3-1.4-.7-2.2-.7A6.1 6.1 0 0 0 110 26l.3-3-.1-.7-.6-.4a7.1 7.1 0 0 0-1.4-.3h-.3zm38 3h.4l.6.6.1.8-.1 1.8-.6 1.7a16 16 0 0 1-1.7 4c-.2.7-.6 1.2-.9 1.6l-1.1.8c-.4 0-.7 0-1-.4l-.6-.7a86 86 0 0 1 1.8-6.3c.5-1.2 1-2.1 1.6-3 .4-.6 1-.8 1.6-.8zM44 16.5a7 7 0 0 0-.8 0c-1.6.1-3.1.8-4 1.7a9.6 9.6 0 0 0-2.2 4c-.6 1.4-1 3-1.2 4.8l-.2 4.2.5 3.7c.4 1.1.8 2.2 1.5 3.1.7.8 1.5 1.4 2.6 2 1.2.4 2.3.7 3.9.6a8.8 8.8 0 0 0 5.6-2.5c.7-.7 1.5-1.5 2-2.3a22 22 0 0 0 2-3.9c0-.4 0-.7-.4-.7h-.9c-.5-.1-1 .3-1.7 1.1l-1.9 2.5a23 23 0 0 1-2.2 2.4c-.7.8-1.6 1.2-2.5 1.2-.6 0-1.2-.3-1.5-.8-.4-.5-.9-1.3-1-2a17 17 0 0 1-1-4.3h.7c1 0 2-.4 3-1.1a12 12 0 0 0 3.6-6c.3-1.1.3-2.2.3-3.1 0-1.5-.5-2.6-1.2-3.4a3.6 3.6 0 0 0-2.6-1.2zm50 5.7c-1.2-.1-2.2.1-3.1.6-.8.5-1.6 1.2-2.3 1.9a13 13 0 0 0-1.9 5.9c0 1 0 2 .2 2.7a6 6 0 0 0 1 2.3c.5.6 1 1.2 1.9 1.7s1.6.7 2.7.7a8.5 8.5 0 0 0 6.5-2.5c.8-.7 1.5-1.7 2-2.7.6-1 .9-2.2.9-3.4 0-1-.2-2-.6-2.8a7.8 7.8 0 0 0-1.8-2.2 10 10 0 0 0-5.5-2.1zm-50-3.8c.3 0 .5 0 .6.3l.3.8.1 1V23a15 15 0 0 1-.7 4.2l-.8 1.7a2 2 0 0 1-.8 1c-.4.2-.8.2-1-.2l-.8-.6a92 92 0 0 1 .5-6.6c.2-1.2.6-2.3 1-3.1.5-.9 1.1-1.3 1.7-1.2zm50 5.5.8.6.5.3.7.2a4 4 0 0 1 1.6 1.6c.4.7.6 1.5.5 2.4a10.2 10.2 0 0 1-1.3 4.6c-.4.7-1 1.2-1.6 1.9-.7.4-1.5.7-2.4.7-.4 0-.8-.3-1-.7a7.5 7.5 0 0 1-1-3.4v-1.4a56 56 0 0 1 .7-4.7c.3-.6.6-1 1-1.3.3-.4 1-.6 1.6-.9zm1.9 1.2V25zm88 11a4 4 0 0 0-1.9.1 7.4 7.4 0 0 0-4.3 4l-1.1 3c-.2 1-.4 2-.2 2.7-.1 1 .1 1.7.5 2.4a6 6 0 0 0 1.6 2c.6.5 1.5.9 2.5 1.1a8.4 8.4 0 0 0 6.8-1c1-.7 1.8-1.6 2.6-2.5.7-.9 1.2-2 1.6-3.2.2-1 .1-2-.2-2.8a7.6 7.6 0 0 0-3.8-4.4 8.8 8.8 0 0 0-3.9-1.3zm.9 1.7.5.8c.3 0 .4.3.6.4l.5.3c.7.6 1.2 1.3 1.4 2a5 5 0 0 1 0 2.5L187 46c-.4.7-.9 1.4-1.4 1.9l-1.8 1.6c-.8.3-1.5.3-2.4.3-.5 0-.8-.4-1-1a7.5 7.5 0 0 1-.3-3.4l.1-1.3a46 46 0 0 1 1.6-4.5c.5-.5.8-1 1.2-1.1.5-.3 1-.4 2-.6zm1.7 1.4h-.1zm-75 6-1.2.1c-.4 0-.8.2-.9.6l-1.3 4.2a262 262 0 0 0-2.8 17 36 36 0 0 0 .4 12 7 7 0 0 0 .7 2.1c.4.6 1 .8 1.9 1h1.5l.6-.3c.3-.2.4-.3.4-.5l-.1-1.3-.4-1.4-.3-1.3c-.2-.5-.1-1-.1-1.3a54 54 0 0 1 1.4-6.2c.4-1.1.9-2 1.4-3 .6-.7 1.3-1 2.1-.9a2 2 0 0 1 1.6 1 12 12 0 0 1 1.3 6.3l-.6 3.2a24 24 0 0 1-3.3 7.3 4.6 4.6 0 0 1-2.4 1.8 3 3 0 0 0-1 .2c-.3 0-.5.2-.5.5l.2.7.7.4.9.4.7.1a4 4 0 0 0 2.4-.5c.7-.4 1.5-1 2-1.8.7-.7 1.2-1.6 1.8-2.6a45 45 0 0 0 2.2-6l.5-2.4v-3.4a7.4 7.4 0 0 0-1.2-3 6.8 6.8 0 0 0-8.3-3.4c-.9.4-1.7.9-2.2 1.6a69 69 0 0 1 1.7-9.4c.8-3 1.3-6.3 1.6-9.4 0-.6 0-1-.4-1.3-.3-.2-.8-.3-1.4-.4zm83 14c-.4 0-.8 0-1 .2-.4.2-.8.6-1.1 1l-.5 1.6-.3 1.8-2 6.1-2 6-2.1 6.1c-.8 2-1.3 4-2 6v1l.7.6.7.5a7.4 7.4 0 0 0 1.8.4h1l.8-.3.5-.7c1-4.1 2.3-8 3.6-12a291 291 0 0 0 4.6-16l.1-.2-.1-.5-.6-.5-1.4-.6h-.8zm-33 1.1a2 2 0 0 0-1.1.2l-1 .7-.5 1.3-.3 1.4a29 29 0 0 1-3.2-.2h-1.8c-.5.2-.8.3-.8.6v.6c.2 0 .3.2.5.3l.7.3h.6a14 14 0 0 0 3.6.4 262 262 0 0 0-2.7 8.4l-1.2 4.6-1 4.6-.6 3-.2 3.4c0 1.2.2 2.2.6 3.2a3 3 0 0 0 2.3 1.7l1.5.1.7-.2c.2 0 .5-.3.5-.5 0-.4 0-.8-.2-1.2l-.3-1.2v-4a82 82 0 0 1 2.7-13l2.4-8.7a35 35 0 0 0 3.3.3 7 7 0 0 0 1.8-.2c.5 0 .7-.3.8-.7-.2-.4-.3-.6-.5-.7l-1-.2-3.8-.3.3-1 .1-1.4c-.1-.5-.3-.8-.6-1-.2-.2-.6-.3-1.1-.3a4 4 0 0 0-.4 0zm-13-.3c-.7-.1-1.2 0-1.8.6a4 4 0 0 0-1 2v.9c.2 0 .3.2.5.4l.6.1 1.3.1.6-.2.6-.8.8-1.2v-.2l.3-.4c0-.4 0-.6-.4-.7l-.8-.5h-.9zm-55 .1c-1.6 0-3 .3-4.1 1.3a15 15 0 0 0-4.5 8.1 29 29 0 0 0-.7 4.3l.1 3.7a9 9 0 0 0 1.2 3.1c.6 1 1.3 1.8 2.2 2.4a8 8 0 0 0 3.7 1c1 .1 2.2 0 3-.3 1-.3 2-.9 2.8-1.4l2.4-2.1a27 27 0 0 0 2.5-3.6c0-.4-.1-.7-.4-.8l-.8-.2c-.6 0-1 .3-1.9 1l-2.2 2.1c-.8.9-1.6 1.6-2.5 2.2s-1.8 1-2.7 1c-.6-.1-1-.5-1.5-1l-1-2.2a18 18 0 0 1-.5-4.4h.7c1.1.1 2.1-.2 3.1-.7A8 8 0 0 0 95 71a9 9 0 0 0 1.8-3.2c.4-1.2.7-2.2.8-3.1a5 5 0 0 0-1-3.4 4.3 4.3 0 0 0-3.3-1.5zm-.4 1.7h.3c.2 0 .4.2.6.5l.1.7.2 1-.1.8c0 .5 0 1-.3 1.7a15 15 0 0 1-1.3 4.1c-.3.7-.5 1.3-.9 1.6-.3.5-.6.8-1 1-.3.1-.7 0-1-.3l-.7-.7a124 124 0 0 1 1.2-6.5c.4-1.2.9-2 1.3-3 .5-.8 1.1-1 1.6-1zm39 4.8h-1.5a7 7 0 0 0-2 .5c-.6.2-1.3.6-1.7 1a3 3 0 0 0-.8 1.8 6 6 0 0 0 .5 3.6l2 3.6a26 26 0 0 1 1.7 3.7c.6 1.3.8 2.6.7 3.9-.2.6-.4 1-.7 1-.2 0-.5 0-.9-.3l-.9-1.1a82 82 0 0 0-1.3-1.8 6 6 0 0 0-.5-.4l-.5-.1h-1c-.5 0-.8.2-.8.5 0 .7 0 1.3.5 2a8.5 8.5 0 0 0 5.4 3.8 6 6 0 0 0 3-.5c.6-.1 1-.5 1.3-.9.3-.4.5-1 .6-1.6.2-1.5 0-2.9-.6-4.1a38 38 0 0 0-1.9-4l-2-3.6c-.5-1-.8-2.3-.6-3.3 0-.6.4-1 1-1.4.5-.3 1-.4 1.7-.3a3 3 0 0 1 1.6.7l2.3 2.3c.2.3.7.5 1.3.6.2 0 .4 0 .6-.2.3-.2.4-.5.4-.8 0-.6 0-1-.6-1.7a5 5 0 0 0-1.8-1.3 13 13 0 0 0-4.5-1.5zm-68-4.7-1.3.1c-.4 0-.7 0-.9.2-.7.2-1.3.9-1.7 1.9-.4 1.2-.7 2.3-.9 3.5a46 46 0 0 0 0 11c.2 1 .7 1.9 1.1 2.5.6.6 1.4.9 2.6 1a4 4 0 0 0 3.1-1.4 21 21 0 0 0 3.3-7.6 21 21 0 0 1 1.3-3.5l.5 2.6.9 2.7a8 8 0 0 0 1.5 2c.7.6 1.5.9 2.5 1a3.6 3.6 0 0 0 3.5-2.2c.4-.7.5-1.4.7-2.2l.2-2.2-.2-2.2a15 15 0 0 0-1.6-5.4c-.4-.8-.9-1.1-1.6-1.1a3 3 0 0 0-.5 0 2 2 0 0 0-.5.2c-.2 0-.4 0-.5.2l-.2.2 1 3.1a23 23 0 0 1 1 5.1 15 15 0 0 1-.6 4l-.6.9a12 12 0 0 1-1.3-2.8 42 42 0 0 0-2.4-6.7c-.5-1-1-1.4-1.7-1.3-.6 0-1.2.2-1.8.7a8 8 0 0 0-1.5 2l-1.2 2.6-1 3-1 2.5c-.3.8-.6 1.4-.9 1.7a33 33 0 0 1-.2-5.6l.2-4.6c.1-1.5.6-3 1.2-4.5l.6-.5v-.2c0-.3 0-.5-.5-.7l-.8-.2zm82 7-.8-.1c-.5 0-.8.3-1 .6-.5 1.5-1 2.9-1.8 4.4a22 22 0 0 0-1.5 6l.1 1.4.3.8c.1.5.4 1 .9 1.3.2.2.7.5 1.3.5l1 .1c.6 0 .9-.2 1-.5v-1l-.2-.6.3-3a19 19 0 0 1 1.4-4.4c.5-1.4.9-2.7 1.2-4.2 0-.2 0-.3-.2-.4l-.4-.4a3.8 3.8 0 0 0-1.8-.5zm28 3.1a6 6 0 0 0-3.2.8 11 11 0 0 0-3.4 3 20.2 20.2 0 0 0-3.8 8.5 18 18 0 0 0-.5 3.7c0 1.2.2 2.3.7 3.4a7 7 0 0 0 1.8 2.7 8.8 8.8 0 0 0 6.8 1.7c1-.1 2-.4 2.9-1a13 13 0 0 0 2.6-1.7 23 23 0 0 0 3.2-3.2c0-.4 0-.6-.4-.7-.3-.2-.5-.4-.8-.4-.5-.1-1.2.1-2 .7l-2.6 1.8c-1 .7-1.8 1.4-2.8 1.8-1 .6-1.9.7-2.7.4-.6 0-1-.4-1.3-1a9 9 0 0 1-.6-2.4 18 18 0 0 1 .3-4.3l.7.2c1 .3 2 .2 3-.3s2-1 3-1.8a12 12 0 0 0 3.5-6c.3-1.5.2-2.7-.4-3.6-.6-1-1.6-1.6-3-2a7 7 0 0 0-1.2-.1zm-131-10h-.3c-.7 0-1.2.2-1.5.6a3 3 0 0 0-.4 1.6 55 55 0 0 1-2.3 13c-.5 1.1-1 1.5-1.6 1.6-.4 0-.7-.4-1.1-1l-1-3.2a52 52 0 0 1-1-6.7c0-.7-.2-1-.6-1.4a3 3 0 0 0-1.7-.3c-.4 0-.8.1-1 .3-.3.2-.5.5-.4 1l.3 2.4a432 432 0 0 0 .7 6 9 9 0 0 0 1 2.9c.3.8.9 1.5 1.6 1.9.7.4 1.6.6 2.5.6a4 4 0 0 0 1.7-.4l1.4-1.3 1-1.6.8-1.7.2 4 .5 4.1a73 73 0 0 1 .4 8.1v.3c0 .3 0 .5.3.7l.8.4 1 .2h.6c1-.1 1.6-.2 2-.5.5-.4.7-1 .6-2V90l-.3-2.7-1.5-16a58 58 0 0 1-.5-6.1c-.1-1-.4-1.7-.8-2.4a2 2 0 0 0-1.6-1zm131 12h.5c.3.3.5.4.5.6l.1.8v1l-.3.8c0 .5-.3 1-.5 1.7l-.9 2-1.2 1.8a4 4 0 0 1-1.1 1.5c-.3.5-.8.7-1.1.8-.4 0-.7 0-1-.4l-.6-.9a86 86 0 0 1 2.3-6.1c.5-1.2 1.2-1.9 1.8-2.8.5-.5 1-.7 1.5-.8zm-154-9.9h-.7c-1 .2-1.7.6-2 1.2a8 8 0 0 0-1.3 2.3l-.4 2.8-.2 2.4c-.2-.7-.7-1.4-1.3-2.1L12.3 69a10 10 0 0 0-2.4-1.2 6.1 6.1 0 0 0-5 .6c-.8.4-1.5.9-2.2 1.8l-.2-3-.4-.4-.7-.3a5.7 5.7 0 0 0-1.4-.1c-.7 0-1.3.3-1.6.7-.2.2-.5.7-.5 1.3V70l.3 1.7.4 2.9a78 78 0 0 0 1.5 6.7c.2 1 .7 1.9 1.1 2.6.3.3.7.5 1.1.6l1.3-.1c1 0 1.5-.4 1.8-.9.4-.6.5-1.3.5-2l-.3-2.3a18 18 0 0 1-.5-7c0-.8.4-1.5.8-1.9.4-.7 1-1 1.8-1.2a3 3 0 0 1 1.8.4l1.7 1.6 1.4 2.1 1.3 2.2c.4.8.9 1.3 1.4 1.7.5.5 1 .7 1.4.6.5 0 .8-.3 1-.9a23 23 0 0 0 .5-4.4 49 49 0 0 1 .3-4.2c0-.5.3-.8.9-.9.3 0 .5.2.9.9l.6 2a40 40 0 0 1 1.2 6.2l.5 3 .2 2.3c0 .6.3 1 .8 1l1.5.2h.6a3.7 3.7 0 0 0 1.3-.7c.1-.1.3-.3.2-.5l-.3-2.7a45 45 0 0 0-3-12c-.5-1-1.2-2-2-2.6-.6-.5-1.2-.7-2-.8zm165 30c-.4 0-.8 0-1 .2-.6.1-1 .4-1.4.9-.3.3-.5.8-.8 1.4l-.5 1.7v.6l.6.5.8.5.6.2c1 .3 1.6.4 2 .2.5-.3.8-.5 1-1l.6-1.6c0-.6.3-1.2.5-1.8 0-.5-.2-.9-.5-1l-1.1-.5h-.8z"/><path fill="currenColor" stroke="currenColor" stroke-linecap="round" stroke-width="3.8" d="M13 102c50-6 120-4.4 160 5.5"/></svg>