<svg xmlns="http://www.w3.org/2000/svg" fill="none" viewBox="0 0 139 80">
  <path fill="currentColor" d="M21 2.4h-.4c-.5 0-.7.3-1 .6a7 7 0 0 0-.5 1.8l-.3 3.3a108 108 0 0 1-1 9.7l-.4 4.6-1.8-5.5c-.6-2-1-4-1.2-6l.2-.4c0-.2-.2-.3-.5-.3h-.4c-.7 0-1.3.3-1.8.5-.4.4-.5.9-.5 1.4l.1 1.4-.9 4.5-.5 4.3-.7-4.3-1.5-9c-.3-1.4-.7-2.8-1.3-4.2 0-.3-.2-.5-.6-.5H5l-.9.2c-.3.1-.5.3-.4.7L5 11.9l1.2 6.9 1 7.6 1.2 7.5c0 .1 0 .2.2.3l.5.4.6.2h1c.4 0 .8 0 1.1-.2.2-.2.4-.6.2-1-.1-2.1-.2-4.2 0-6.3l.7-9A162.5 162.5 0 0 0 16.4 30l.6.3a5 5 0 0 0 2.3-.3l.4-.3c.2 0 .2-.2.2-.3l-.2-.8-.2-1 2-25.2H21zm22.7 2h-.8l-.6.2-.5.3-.1.4v.2l-.2 6.9a265 265 0 0 1-.8 13v2.8l-.2 2.2c0 .4.2.8.6 1 .4.2.7.3 1.3.3.5 0 1 0 1.4-.2.2-.2.4-.7.4-1.2v-6.6l.2-5.5c.3-4.1.4-8.3.4-12.4 0-.3-.2-.5-.3-.7zM122.9 17h-.8l-.7.5-.3.8-.2 1-2.3-.1h-1.3c-.3 0-.5.1-.5.2v.5l.3.2.5.2h.4c.4.2.9.2 1.3.3h1.2l-1 2.8-1 3-.8 3.2a131.7 131.7 0 0 0-1.4 7.6c0 .7.2 1.4.4 2a2 2 0 0 0 1.4 1.5h1.6c.1 0 .3-.2.3-.4v-.8l-.3-.8.1-2.9c.5-3 1.2-6 2-9l1.8-5.8a18.6 18.6 0 0 0 3.5.2c.4-.2.5-.3.4-.7 0-.2 0-.4-.2-.4l-.7-.2-1.3-.1-1.3-.1.2-.7v-1l-.3-.6c-.2-.2-.4-.2-.7-.3h-.3zm-20 2.2c-1 0-1.8.2-2.6.7-.8.6-1.6 1.4-2 2.3a13 13 0 0 0-2.3 5.9l-.2 2.4c0 .9.3 1.6.6 2.3a4.7 4.7 0 0 0 4 2.8c.6 0 1.3 0 2-.2a9 9 0 0 0 3.9-2.1l2-2.3c0-.3-.1-.5-.3-.6l-.6-.1c-.3 0-.8 0-1.3.5l-1.7 1.3-1.9 1.4c-.5.4-1.2.6-1.9.5-.4 0-.7-.4-1-.8l-.4-1.6v-3h.4c.7.2 1.4.1 2-.2a8.3 8.3 0 0 0 3.5-3.3c.3-.7.7-1.5.7-2 .2-1.1 0-2-.4-2.6-.3-.7-1.1-1-2.2-1.4h-.4zm-48.9-3h-.3a5 5 0 0 0-4.4 2.2 6 6 0 0 0-1.1 2.4c-.5 1.7-.5 3.5-.1 5.2l1 2c.6.7 1.3 1.2 2 1.4.7.4 1.6.5 2.6.6 2 0 4-.6 5.6-1.8l1.1-1.5v-.2c0-.2-.1-.3-.3-.4h-.6c-.5 0-.9 0-1.3.4l-1.3 1-1.4.8c-.5.2-1 .4-1.6.4-.7 0-1.2-.2-1.6-.6a5 5 0 0 1-1-1.4 6.9 6.9 0 0 1-.7-3.5l.2-1.4.5-1.7c.2-.5.4-1 .8-1.5a3 3 0 0 1 1-1c.2-.4.7-.5 1-.4.5 0 1 .3 1.4.9l.4.5.9 1 .1.2h.7l.3-.7c0-.6-.2-1-.5-1.4-.2-.3-.6-.7-1.1-.9l-1.3-.5h-1.1zm22.7 2c-.4 0-.7 0-1 .2l-.5.7-.1 1.2-.2 1.1-.2 2.1-.1 4.8.5 1.9c0 .3.3.4.7.5l.9.2c.6 0 1 0 1.3-.4.2-.3.4-.7.4-1.1l.2-1.7c0-1.6.2-3.2.8-4.7l.8-1.4c.5-.2 1-.4 1.5-.4.4 0 .8.2 1 .6.4.3.8.7 1 1.4l.7 1.5.5 1.7.8 1.4c.3.3.5.5.9.5.3 0 .5-.1.7-.4l.6-1.4.3-1.5 1-2.8c.1-.3.3-.6.7-.4l.5.5.2 1.6v2c0 2-.2 4-.5 6 0 .6 0 .8.3 1l1 .2h1.3c.2 0 .3-.3.3-.4l.1-2c.3-2.7.2-5.5-.1-8.2-.2-.8-.5-1.4-1-2a2.5 2.5 0 0 0-2.5-1 2 2 0 0 0-.8.4 5 5 0 0 0-1 1.5l-.8 1.8-.5 1.5a6 6 0 0 0-1.7-3 6 6 0 0 0-1.4-1.2c-.5-.2-1-.5-1.5-.5a4.2 4.2 0 0 0-3.7 1.2l.2-2.1v-.5l-.5-.3-1-.2h-.1zm26.2 2h.3l.4.5v1.8l-.4 1.1a11 11 0 0 1-1.2 2.8c-.1.5-.4.8-.6 1.1l-.8.6c-.3 0-.5 0-.7-.3l-.4-.5c.4-1.5.8-3 1.3-4.3.3-.9.6-1.5 1-2.1.3-.4.7-.6 1.2-.6zm-70.2-5.6H32c-1 .1-2.1.6-2.7 1.2a6 6 0 0 0-1.6 2.8c-.4 1-.6 2-.8 3.3l-.1 2.8.3 2.6c.3.8.6 1.5 1 2.1.5.6 1.1 1 1.9 1.4a6 6 0 0 0 6.5-1.3l1.4-1.6c.5-.8 1-1.7 1.3-2.7 0-.2 0-.5-.2-.5h-.6c-.4 0-.7.3-1.2.8L36 27.1l-1.5 1.7c-.5.5-1.1.8-1.8.8-.4 0-.8-.2-1-.5l-.7-1.4c-.3-1-.6-2-.7-3h.5c.7 0 1.4-.3 2-.7a8.1 8.1 0 0 0 2.6-4.2c.2-.7.2-1.5.2-2.1 0-1-.4-1.8-.9-2.3a2.5 2.5 0 0 0-1.8-.9zm34.4 4a3 3 0 0 0-2.1.4c-.6.3-1.1.8-1.6 1.3a9 9 0 0 0-1.3 4l.1 1.9c.1.6.4 1.1.7 1.6.3.4.7.8 1.3 1.1a3 3 0 0 0 1.9.5 5.9 5.9 0 0 0 4.4-1.7c.6-.5 1-1.2 1.4-1.9.4-.6.6-1.5.6-2.3 0-.7-.1-1.4-.4-2-.3-.5-.7-1-1.2-1.4a6.7 6.7 0 0 0-3.8-1.5zm-34.4-2.7c.2 0 .3 0 .4.2l.2.6V19c0 1-.1 2-.4 2.9l-.6 1.2c0 .2-.3.5-.5.7-.3 0-.6 0-.7-.2l-.6-.4c0-1.5.2-3 .4-4.5.1-.9.4-1.6.7-2.2.3-.6.7-.9 1.1-.8zM67 19.6l.5.4.4.2.5.2c.4.2.8.6 1 1 .3.6.5 1.1.4 1.7a7 7 0 0 1-.9 3.2l-1 1.3c-.6.3-1.1.5-1.7.5a.8.8 0 0 1-.7-.5c-.4-.7-.7-1.5-.7-2.3v-1l.5-3.2.7-1 1-.5zm62 8.4h-1.3a5.1 5.1 0 0 0-3 2.8L124 33c-.2.7-.3 1.4-.2 1.9 0 .7 0 1.1.4 1.6.2.6.6 1 1 1.4.5.3 1.1.6 1.8.8a5.8 5.8 0 0 0 4.7-.7c.7-.5 1.2-1.1 1.8-1.8.4-.6.8-1.3 1-2.2a4 4 0 0 0 0-1.9 5.2 5.2 0 0 0-2.7-3 6 6 0 0 0-2.7-1zm.6 1.2.3.5c.3 0 .3.2.5.3l.3.2c.5.4.8 1 1 1.4v1.7l-.6 1.5c-.3.5-.6 1-1 1.3l-1.2 1.1c-.5.3-1 .3-1.6.3-.4 0-.6-.3-.7-.7a5 5 0 0 1-.2-2.4v-.9l1.1-3c.4-.4.6-.8.9-.8.3-.2.6-.3 1.3-.4zm-50.5 5-.8.2c-.3 0-.5 0-.6.4l-.9 2.9c-.8 3.8-1.4 7.7-2 11.7-.3 2.7-.2 5.5.3 8.2l.5 1.5c.3.4.7.5 1.3.7h1l.5-.2.3-.4-.1-.9-.3-1-.2-.8v-1l.9-4.2 1-2c.4-.6.9-.8 1.4-.7a1.4 1.4 0 0 1 1.1.7 9 9 0 0 1 1 4.3l-.5 2.2c-.5 1.8-1.2 3.5-2.3 5-.4.6-1 1-1.6 1.3a2 2 0 0 0-.7.1c-.2 0-.4.2-.4.4l.2.5.5.2.6.3h.5c.5.1 1.1 0 1.6-.3a4 4 0 0 0 1.4-1.2c.5-.5.8-1.1 1.2-1.8a31 31 0 0 0 1.5-4.1l.4-1.7v-2.3a4 4 0 0 0-.8-2 4.7 4.7 0 0 0-5.8-2.4c-.6.3-1.1.6-1.5 1a72 72 0 0 1 1.2-6.4c.6-2 .9-4.3 1.1-6.5 0-.4 0-.7-.3-.9l-1-.2zm57.2 9.7c-.3 0-.6 0-.7.2-.3.1-.6.4-.8.7l-.3 1-.2 1.3-1.4 4.2-1.4 4.1-1.4 4.2c-.6 1.4-1 2.8-1.4 4.2v.6l.5.5.5.3 1.2.3h.7l.5-.2.4-.5c.7-2.8 1.6-5.5 2.5-8.3 1.1-3.6 2.2-7.3 3.1-11l.1-.1V45l-.5-.3-1-.4h-.5zm-22.7.8-.8.1-.7.5-.3.9-.2 1c-.8 0-1.5 0-2.2-.2H108c-.3.2-.5.2-.5.4v.4l.3.3.5.2h.4c.8.2 1.7.3 2.5.2l-1.9 5.8-.8 3.2-.7 3.2-.4 2-.1 2.4c0 .8.1 1.5.4 2.2a2 2 0 0 0 1.6 1.1l1 .1.5-.1c.1 0 .3-.2.3-.4l-.1-.8-.2-.8v-2.8c.4-3 1-6 1.8-9l1.7-6c.7.2 1.5.2 2.3.3.4 0 .8 0 1.2-.2.3 0 .5-.2.5-.4 0-.3-.2-.5-.3-.5l-.7-.2-2.6-.2.2-.7v-1c0-.3-.1-.5-.3-.6l-.8-.2h-.3zm-9-.2c-.5 0-.8 0-1.2.4-.4.4-.6.8-.7 1.4v.6l.3.3h.4l1 .1.3-.1.5-.6.5-.8v-.2l.2-.2c0-.3 0-.4-.3-.5l-.5-.4h-.6zm-37.9 0c-1 0-2 .3-2.8 1a10.3 10.3 0 0 0-3 5.5l-.6 3 .1 2.5a6.2 6.2 0 0 0 2.4 3.8c.7.4 1.6.7 2.5.7a5 5 0 0 0 2-.2c.8-.2 1.4-.6 2-1l1.6-1.4c.7-.8 1.3-1.6 1.8-2.5 0-.3-.1-.5-.3-.5l-.6-.2c-.4 0-.6.2-1.3.7L69 57.3c-.5.7-1 1.2-1.7 1.6-.6.4-1.2.7-1.9.7-.4-.1-.7-.4-1-.7l-.7-1.6-.3-3h.5c.7 0 1.4-.1 2-.5.8-.4 1.4-1 1.9-1.8.5-.6 1-1.3 1.2-2.2l.6-2c0-1-.2-1.8-.7-2.4a3 3 0 0 0-2.3-1zm-.2 1.2h.2l.4.4v.4l.2.7v.6c0 .3 0 .7-.3 1.1-.1 1-.4 2-.9 2.9-.2.5-.3.9-.6 1-.2.4-.4.6-.7.8-.2 0-.5 0-.7-.2l-.5-.5.9-4.5c.2-.8.6-1.4.9-2 .3-.6.7-.8 1-.8zM93.3 49h-1c-.5 0-1 .2-1.4.4a3 3 0 0 0-1.2.7 2 2 0 0 0-.5 1.2c-.2.8 0 1.7.3 2.5l1.4 2.4c.5.9.9 1.7 1.2 2.6.4.9.5 1.8.5 2.7-.2.4-.3.7-.5.7s-.4 0-.6-.2l-.7-.8a56.4 56.4 0 0 0-1.2-1.5h-1c-.4 0-.6 0-.6.3 0 .4 0 .9.4 1.3A5.9 5.9 0 0 0 92 64c.7 0 1.4-.1 2-.4.5 0 .7-.3 1-.6l.4-1.1c0-1 0-2-.5-2.8-.3-1-.8-1.9-1.3-2.8l-1.3-2.5c-.4-.7-.6-1.5-.5-2.2 0-.4.3-.7.7-1 .4-.2.7-.3 1.2-.2.4 0 .8.2 1.1.5l1.6 1.6c.1.2.5.3.9.4.1 0 .3 0 .4-.2.2-.1.3-.3.3-.5 0-.4 0-.7-.4-1.2a9 9 0 0 0-4.3-2zm-46.8-3.2h-.9c-.3 0-.5 0-.6.2-.5.1-.9.6-1.2 1.3l-.6 2.4c-.3 2.5-.3 5 0 7.6.1.7.5 1.3.8 1.7.4.4 1 .6 1.7.7a2.8 2.8 0 0 0 2.2-1c1-1.6 1.9-3.3 2.3-5.2L51 51l.4 1.8.6 1.8 1 1.4c.5.4 1 .6 1.8.7a2.5 2.5 0 0 0 2.4-1.5c.3-.5.3-1 .5-1.5l.1-1.5-.1-1.6c-.2-1.3-.5-2.5-1.1-3.7-.3-.5-.7-.7-1.1-.7a2 2 0 0 0-.4 0l-.3.1-.4.1-.1.2.7 2.1c.3 1.2.6 2.3.7 3.5 0 1-.2 1.9-.5 2.8l-.4.6-.9-2a29 29 0 0 0-1.6-4.5c-.4-.7-.7-1-1.2-1a2 2 0 0 0-1.2.5l-1 1.4-.9 2-.7 2-.7 1.8L46 57c-.1-1.3-.2-2.6-.1-3.9l.1-3.2c0-1 .4-2 .9-3l.4-.4v-.1c0-.2 0-.4-.4-.5l-.5-.2zm56.5 4.8h-.6a1 1 0 0 0-.7.3l-1.2 3c-.6 1.4-.9 2.8-1 4.2v1l.2.5c0 .4.3.7.6 1 .2 0 .5.3 1 .3h.6c.4 0 .6-.1.7-.3v-.7l-.1-.4.2-2c.2-1.1.5-2.1 1-3.1l.8-2.9c0-.1 0-.2-.2-.3l-.2-.3c-.4-.2-.8-.3-1.3-.3zm19.2 2.1c-.7 0-1.5.2-2.2.6-.9.5-1.7 1.2-2.3 2a13.9 13.9 0 0 0-2.6 5.9l-.4 2.6c0 .8.2 1.5.5 2.3.3.7.7 1.3 1.3 1.9a6 6 0 0 0 4.5 1c.7 0 1.4-.3 2-.7a9 9 0 0 0 1.8-1.1c.8-.7 1.6-1.4 2.2-2.2 0-.3 0-.5-.3-.5-.2-.2-.3-.3-.5-.3-.3 0-.8 0-1.4.5l-1.8 1.2c-.7.5-1.2 1-1.9 1.3-.7.4-1.3.4-1.9.2-.4 0-.6-.2-.9-.7l-.4-1.6c0-1 0-2 .2-3l.5.2c.7.2 1.4.1 2-.2.8-.4 1.5-.7 2.2-1.3 1.1-1 2-2.5 2.4-4.1.2-1 .1-1.9-.3-2.5-.4-.7-1.1-1-2-1.4h-.9zM32 46h-.2c-.4 0-.8 0-1 .4a2 2 0 0 0-.3 1c-.1 3.1-.7 6.1-1.5 9-.4.8-.7 1-1.2 1.1-.2 0-.4-.3-.7-.7l-.7-2.2a34 34 0 0 1-.7-4.6c0-.5-.1-.7-.4-1a2 2 0 0 0-1.2-.2l-.7.2c-.2.2-.3.4-.2.7l.2 1.7.5 4.1a4.7 4.7 0 0 0 1.7 3.3c.5.3 1.1.4 1.8.4.4 0 .8 0 1.1-.2l1-1 .7-1 .5-1.2.2 2.8.3 2.8c.2 1.8.3 3.7.3 5.5v.3c0 .2 0 .3.2.4l.6.3.6.2h.5c.6-.1 1-.2 1.3-.4.4-.3.5-.7.4-1.4v-1l-.2-2-1-11a40 40 0 0 1-.3-4.1 4 4 0 0 0-.6-1.7 1.4 1.4 0 0 0-1-.7zm90.2 8.2h.4l.3.4v1.2l-.1.5c0 .4-.2.7-.4 1.2l-.6 1.4-.8 1.2c-.2.4-.4.8-.8 1-.2.4-.5.5-.7.6-.3 0-.5 0-.7-.3l-.4-.6 1.6-4.2c.3-.8.8-1.3 1.2-2a2 2 0 0 1 1-.5zm-106-6.8h-.5c-.7.1-1.1.4-1.3.8l-1 1.6-.2 2-.2 1.6c0-.5-.4-1-.8-1.5l-1.4-1.1a5 5 0 0 0-1.6-.9 4.2 4.2 0 0 0-3.4.5c-.6.2-1 .6-1.6 1.2l-.1-2-.3-.3-.5-.3a4 4 0 0 0-1 0c-.4 0-.8.2-1 .5-.2.1-.4.4-.4.9v1l.2 1.2.3 2A53.7 53.7 0 0 0 3.2 61c.2.2.5.4.8.4h.9c.6 0 1-.3 1.2-.6.3-.5.3-1 .3-1.4l-.2-1.6a13 13 0 0 1-.3-4.8c0-.6.3-1 .5-1.3.3-.5.7-.7 1.3-.9l1.2.3 1.2 1.1 1 1.5.8 1.5c.3.5.7.9 1 1.1.4.4.7.5 1 .5.3 0 .5-.2.7-.7l.3-3 .2-2.9c0-.3.2-.5.6-.6.2 0 .4.1.7.6l.4 1.4c.4 1.4.6 2.8.8 4.3l.3 2 .2 1.6c0 .4.2.7.5.7l1 .1h.5c.3 0 .6-.2.9-.4 0-.1.2-.2.1-.4l-.2-1.8a31 31 0 0 0-2-8.3c-.4-.7-.9-1.4-1.4-1.8-.5-.3-.9-.5-1.4-.5ZM129.8 68h-.7l-1 .7-.5 1-.3 1.1v.5l.4.3.5.3.4.2c.7.2 1.1.3 1.4.1.4-.2.6-.3.7-.7l.4-1c0-.5.2-.9.4-1.3 0-.4-.2-.6-.4-.7l-.7-.3h-.6z"/>
  <path stroke="currentColor" stroke-linecap="round" stroke-width="3.8" d="M11.3 73.4c34.4-4.1 82.6-3 110.2 3.8"/>
</svg>
