<svg xmlns="http://www.w3.org/2000/svg" viewBox="0 0 139 80" fill="none">
<path d="M20.9648 2.41105C20.8279 2.39028 20.6887 2.39028 20.5518 2.41105C20.1387 2.4799 19.8633 2.68643 19.5879 2.96181C19.3814 3.37487 19.2437 3.99447 19.106 4.8206L18.7618 8.12512C18.5619 11.3517 18.2173 14.5676 17.7291 17.7633L17.3849 22.4447L15.595 16.9372C14.9842 14.9902 14.5916 12.9814 14.4246 10.9477L14.5623 10.5347C14.5623 10.3281 14.4246 10.1905 14.1492 10.1905H13.6673C12.9789 10.1905 12.4281 10.4658 11.9462 10.7412C11.5332 11.0854 11.3955 11.5673 11.3955 12.1181L11.5332 13.495C11.1201 15.1472 10.8447 16.5241 10.6382 17.9698L10.0874 22.307L9.39899 18.0387C9.0036 15.0379 8.4984 12.0527 7.88442 9.08894C7.60904 7.64321 7.19598 6.19749 6.64522 4.8206C6.64522 4.47638 6.36985 4.26985 5.95678 4.26985H5.13065L4.23568 4.47638C3.89145 4.61407 3.68492 4.8206 3.75377 5.16482L4.99296 11.9116L6.16331 18.796L7.19598 26.3688L8.36633 33.9417C8.36633 34.0106 8.36633 34.1482 8.64171 34.2171L9.05477 34.5613L9.74321 34.8367H10.7759C11.1383 34.8371 11.4944 34.7421 11.8085 34.5613C12.0151 34.3548 12.1528 34.0105 12.0151 33.5286C11.8774 31.4633 11.8085 29.398 12.0151 27.3327L12.7035 18.3829C13.6974 22.0933 14.8226 25.7673 16.0769 29.398C16.1436 29.6079 16.2597 29.7987 16.4154 29.9544C16.5712 30.1101 16.762 30.2262 16.9719 30.293C17.7629 30.3907 18.5658 30.2962 19.3126 30.0176L19.7256 29.6734C19.8633 29.6734 19.9322 29.5357 19.8633 29.398C19.8633 29.1226 19.7945 28.7784 19.6568 28.5719L19.5191 27.6769L21.5844 1.51608C21.5844 1.2407 21.5844 0.965325 21.2402 0.896481C21.1068 0.852607 20.9675 0.82939 20.8271 0.827637L20.9648 2.41105ZM43.6834 4.47638H42.8573L42.3065 4.61407L41.8246 4.88945L41.6869 5.30251V5.50904C41.5934 7.80265 41.5475 10.098 41.5492 12.3935C41.3817 16.7597 41.1063 21.1212 40.7231 25.4739L40.6543 28.1588C40.5905 28.8919 40.5446 29.6265 40.5166 30.3618C40.5166 30.8437 40.7231 31.1879 41.1362 31.4633C41.4804 31.601 41.8246 31.7387 42.3754 31.7387C42.8504 31.7674 43.3248 31.6725 43.7523 31.4633C44.0276 31.2568 44.1653 30.8437 44.1653 30.293V23.6839L44.4407 18.1764C44.6953 14.0508 44.8101 9.91777 44.7849 5.78442C44.7849 5.50904 44.6472 5.30251 44.5095 5.09598L43.6834 4.47638ZM122.854 16.8683L122.097 16.9372L121.409 17.4191L121.064 18.2452L120.858 19.209C120.099 19.2064 119.34 19.1604 118.586 19.0714H117.347C117.003 19.0714 116.796 19.209 116.796 19.3467L116.865 19.7598L117.14 19.9663L117.622 20.2417H118.035C118.448 20.4482 118.861 20.4482 119.274 20.5171H120.514L119.55 23.2709L118.586 26.3688L117.691 29.5357C117.289 31.2492 116.922 32.9707 116.589 34.699C116.423 35.4919 116.331 36.2986 116.314 37.1085C116.318 37.8171 116.458 38.5184 116.727 39.1739C116.826 39.4989 117.003 39.7946 117.243 40.0348C117.483 40.2749 117.779 40.4522 118.104 40.5508L119.206 40.6884C119.412 40.6884 119.55 40.6884 119.687 40.5508C119.825 40.5508 119.963 40.4131 119.963 40.2065V39.3804L119.687 38.5543C119.687 37.6593 119.687 36.6955 119.825 35.7317C120.272 32.6978 120.963 29.7049 121.89 26.7819L123.612 20.8613C124.362 20.9997 125.121 21.0916 125.883 21.1367C126.293 21.2116 126.713 21.2116 127.123 21.1367C127.467 20.9301 127.605 20.7925 127.536 20.4482C127.536 20.2417 127.467 20.0352 127.329 20.0352L126.641 19.8286L125.333 19.691L124.025 19.5533L124.231 18.8648C124.233 18.5665 124.233 18.2682 124.231 17.9698C124.184 17.7123 124.065 17.4735 123.887 17.2814C123.749 17.1437 123.474 17.0749 123.198 17.006H122.854V16.8683ZM102.889 19.1402C101.988 19.085 101.093 19.3268 100.342 19.8286C99.4563 20.4007 98.7237 21.1806 98.208 22.1005C97.0279 23.8529 96.2736 25.8567 96.005 27.9523L95.7985 30.4307C95.8673 31.2568 96.0739 32.0141 96.4181 32.7025C96.7633 33.4726 97.3101 34.1351 98.0009 34.6198C98.6917 35.1046 99.5007 35.3936 100.342 35.4563C101.031 35.4563 101.719 35.4563 102.408 35.3186C103.85 34.9396 105.176 34.206 106.263 33.1844C107.023 32.4958 107.715 31.735 108.328 30.9126C108.328 30.6372 108.19 30.4307 107.984 30.293L107.433 30.1553C107.089 30.1553 106.607 30.293 106.056 30.706L104.404 32.0141C103.817 32.5159 103.196 32.976 102.545 33.391C101.985 33.7859 101.298 33.9577 100.618 33.8729C100.205 33.8729 99.9292 33.5286 99.6538 33.1156C99.423 32.6117 99.261 32.0791 99.1719 31.5322C99.0536 30.5489 99.0536 29.5551 99.1719 28.5719H99.5849C100.285 28.6956 101.007 28.5994 101.65 28.2965C103.098 27.5575 104.295 26.4081 105.092 24.992C105.437 24.3035 105.781 23.5462 105.781 22.9266C105.987 21.894 105.781 21.0678 105.437 20.3794C105.092 19.691 104.266 19.3467 103.234 19.0025C103.096 18.9966 102.958 18.9966 102.821 19.0025L102.889 19.1402ZM54.01 16.0422H53.6658C52.7966 16.0008 51.9318 16.189 51.1584 16.5878C50.385 16.9866 49.7302 17.582 49.2598 18.3141C48.7779 19.0025 48.4337 19.691 48.1583 20.6548C47.6865 22.364 47.6628 24.1659 48.0894 25.8869C48.3648 26.7131 48.7779 27.2638 49.191 27.9523C49.6729 28.6407 50.3613 29.0538 51.1186 29.3291C51.807 29.6734 52.702 29.8111 53.6658 29.9487C55.7044 29.9903 57.696 29.3345 59.3111 28.0899C59.7241 27.608 60.1372 27.195 60.4126 26.5754V26.4377C60.4126 26.2312 60.2749 26.0935 60.0683 26.0246H59.5176C59.0357 25.9558 58.6226 26.0246 58.2095 26.3688L56.9015 27.3327L55.5246 28.2276C54.9739 28.4342 54.4231 28.6407 53.8724 28.5719C53.1839 28.5719 52.702 28.4342 52.2889 28.0211C51.881 27.6294 51.5535 27.1616 51.3251 26.6442C50.7781 25.5345 50.5403 24.2978 50.6367 23.0643L50.8432 21.6874L51.3251 20.0352C51.5317 19.4844 51.7382 18.9337 52.0824 18.5206C52.3578 18.0387 52.6332 17.6945 53.0462 17.4191C53.3216 17.1437 53.8035 17.006 54.1477 17.1437C54.5608 17.1437 55.0427 17.4191 55.4558 17.9698L55.9377 18.4518C56.239 18.7988 56.5151 19.1669 56.7638 19.5533L56.9015 19.691H57.5899C57.7276 19.4844 57.8653 19.209 57.8653 19.0025C57.8653 18.3829 57.7276 17.9698 57.3834 17.6256C57.1769 17.2814 56.7638 16.9372 56.2819 16.7307C55.9377 16.5241 55.3869 16.3176 54.9739 16.2487L53.8724 16.1111L54.01 16.0422ZM76.7286 18.1075C76.3156 18.1075 75.9714 18.1075 75.7648 18.3141C75.5107 18.477 75.3172 18.7189 75.2141 19.0025C75.1125 19.384 75.0661 19.7782 75.0764 20.1729L74.9387 21.3432L74.7322 23.4085C74.6022 24.9884 74.5562 26.5741 74.5945 28.1588L75.0764 30.0864C75.1452 30.3618 75.4206 30.4995 75.7648 30.6372L76.6598 30.8437C77.3482 30.8437 77.7613 30.7749 77.9678 30.4307C78.1744 30.0864 78.4497 29.7422 78.4497 29.2603L78.5874 27.608C78.5491 25.9858 78.8298 24.3718 79.4136 22.8578L80.2397 21.5497C80.6528 21.2744 81.1347 21.0678 81.6854 21.1367C82.0985 21.1367 82.5116 21.3432 82.7869 21.6874C83.1312 22.0317 83.4754 22.4447 83.6819 23.0643L84.3703 24.6477L84.9211 26.3L85.7472 27.6769C86.0226 27.9523 86.2291 28.1588 86.5734 28.1588C86.9176 28.1588 87.1241 28.0899 87.2618 27.8146C87.5372 27.4703 87.7437 27.1261 87.8814 26.4377L88.2256 24.9231C88.469 23.9657 88.7678 23.0232 89.1206 22.1005C89.3271 21.7563 89.5337 21.5497 89.8779 21.6874C90.0156 21.6874 90.2221 21.894 90.3598 22.2382L90.5663 23.7528V25.8181C90.5846 27.8478 90.4234 29.8751 90.0844 31.8764C90.0156 32.3583 90.0844 32.6337 90.3598 32.7714C90.6352 32.909 91.0482 33.0467 91.3925 33.0467H91.8055C92.1094 33.0505 92.4118 33.004 92.7005 32.909C92.907 32.909 92.9759 32.7025 92.9759 32.5648L93.1136 30.6372C93.393 27.8876 93.3468 25.1146 92.9759 22.3759C92.8141 21.6445 92.4841 20.9609 92.0121 20.3794C91.6074 19.8557 91.0149 19.51 90.3598 19.4156C90.0709 19.363 89.774 19.3726 89.4891 19.4439C89.2042 19.5151 88.9377 19.6463 88.7075 19.8286C88.252 20.2363 87.8782 20.727 87.606 21.2744L86.9176 23.0643L86.3668 24.5789C86.1213 23.4304 85.5473 22.378 84.7146 21.5497C84.2958 21.0875 83.8081 20.6928 83.2688 20.3794C82.7869 20.1729 82.305 19.8975 81.7543 19.8975C81.0969 19.7891 80.4231 19.8387 79.7886 20.0422C79.1542 20.2457 78.5773 20.5973 78.1055 21.0678L78.3121 19.0025L78.2432 18.5206L77.8301 18.2452C77.5167 18.1441 77.1937 18.0749 76.8663 18.0387H76.6598L76.7286 18.1075ZM102.889 20.1729H103.165L103.578 20.5859L103.647 21.1367L103.578 22.3759L103.165 23.5462C102.902 24.5131 102.508 25.4396 101.994 26.3C101.857 26.7819 101.581 27.1261 101.375 27.4015L100.618 27.9523C100.342 27.9523 100.136 27.9523 99.9291 27.6769L99.5161 27.195C99.8739 25.734 100.287 24.2872 100.755 22.8578C101.099 22.0317 101.444 21.4121 101.857 20.7925C102.132 20.3794 102.545 20.2417 102.958 20.2417L102.889 20.1729ZM32.6683 14.5276C32.4849 14.5171 32.301 14.5171 32.1176 14.5276C31.0161 14.5965 29.9834 15.0784 29.3638 15.698C28.6449 16.4808 28.1253 17.4254 27.8492 18.4518C27.4362 19.4156 27.1608 20.5171 27.0231 21.7563L26.8854 24.6477L27.2296 27.195C27.505 27.9523 27.7804 28.7095 28.2623 29.3291C28.7442 29.8799 29.295 30.293 30.0523 30.706C30.8784 30.9814 31.6357 31.1879 32.7372 31.1191C34.1871 31.0262 35.5553 30.4154 36.5925 29.398C37.0744 28.9161 37.6251 28.3653 37.9693 27.8146C38.5165 26.9677 38.9778 26.0682 39.3462 25.1296C39.3462 24.8543 39.3462 24.6477 39.0709 24.6477H38.4513C38.107 24.5789 37.7628 24.8543 37.2809 25.405L35.9729 27.1261C35.5077 27.712 35.0015 28.2641 34.4583 28.7784C33.9764 29.3291 33.3568 29.6045 32.7372 29.6045C32.3241 29.6045 31.9111 29.398 31.7045 29.0538C31.4291 28.7095 31.0849 28.1588 31.0161 27.6769C30.6589 26.7242 30.4275 25.7291 30.3276 24.7166H30.8095C31.498 24.7166 32.1864 24.4412 32.8749 23.9593C34.093 22.8592 34.9558 21.4212 35.3533 19.8286C35.5598 19.0714 35.5598 18.3141 35.5598 17.6945C35.5598 16.6618 35.2156 15.9045 34.7337 15.3538C34.5077 15.1009 34.2322 14.8972 33.9244 14.7551C33.6165 14.613 33.2827 14.5356 32.9437 14.5276H32.6683ZM67.0904 18.4518C66.2643 18.3829 65.5759 18.5206 64.9563 18.8648C64.4055 19.209 63.8548 19.691 63.3729 20.1729C62.6157 21.4015 62.167 22.7951 62.0648 24.2347C62.0648 24.9231 62.0648 25.6116 62.2025 26.0935C62.3179 26.6639 62.5525 27.2035 62.891 27.6769C63.2352 28.0899 63.5794 28.503 64.199 28.8472C64.8186 29.1915 65.3005 29.3291 66.0578 29.3291C66.8829 29.3745 67.7083 29.2446 68.4796 28.9479C69.2509 28.6513 69.9506 28.1946 70.5327 27.608C71.0834 27.1261 71.5653 26.4377 71.9095 25.7492C72.3226 25.0608 72.5291 24.2347 72.5291 23.4085C72.5291 22.7201 72.3915 22.0317 72.1161 21.4809C71.7993 20.9044 71.3792 20.391 70.8769 19.9663C69.7884 19.1154 68.4691 18.6116 67.0904 18.5206V18.4518ZM32.6683 15.8357C32.8749 15.8357 33.0126 15.8357 33.0814 16.0422L33.2879 16.593L33.3568 17.2814V19.0025C33.3345 19.9843 33.1722 20.958 32.8749 21.894L32.3241 23.0643C32.2209 23.348 32.0274 23.5898 31.7734 23.7528C31.498 23.8904 31.2226 23.8905 31.0849 23.6151L30.5342 23.202C30.5944 21.6838 30.7092 20.1682 30.8784 18.6583C31.0161 17.8322 31.2915 17.0749 31.5668 16.5241C31.9111 15.9045 32.3241 15.6291 32.7372 15.698L32.6683 15.8357ZM67.0904 19.6221L67.6412 20.0352L67.9854 20.2417L68.4673 20.3794C68.9329 20.6329 69.3153 21.0154 69.5688 21.4809C69.8442 21.9628 69.9819 22.5136 69.9131 23.1332C69.8698 24.2448 69.563 25.3302 69.0181 26.3C68.7427 26.7819 68.3296 27.1261 67.9166 27.608C67.4347 27.8834 66.8839 28.0899 66.2643 28.0899C65.9889 28.0899 65.7136 27.8834 65.5759 27.608C65.1627 26.894 64.9266 26.0914 64.8874 25.2673V24.3035C65.0022 23.2186 65.163 22.1391 65.3693 21.0678C65.5759 20.6548 65.7824 20.3794 66.0578 20.1729C66.2643 19.8975 66.7462 19.7598 67.1593 19.5533L67.0904 19.6221ZM128.981 28.0211C128.546 27.9385 128.098 27.9621 127.673 28.0899C127.018 28.3226 126.417 28.687 125.908 29.1606C125.399 29.6342 124.992 30.207 124.713 30.8437L123.956 32.909C123.818 33.5975 123.68 34.2859 123.818 34.7678C123.749 35.4563 123.887 35.9382 124.162 36.4201C124.426 36.953 124.802 37.4227 125.264 37.797C125.677 38.1412 126.296 38.4166 126.985 38.5543C127.77 38.7761 128.592 38.8294 129.399 38.7108C130.206 38.5921 130.979 38.3042 131.666 37.8658C132.355 37.3839 132.906 36.7643 133.456 36.1447C133.938 35.5251 134.282 34.7678 134.558 33.9417C134.695 33.2533 134.627 32.5648 134.42 32.0141C133.984 30.6975 133.043 29.608 131.804 28.9849C130.992 28.4788 130.072 28.1721 129.119 28.0899L128.981 28.0211ZM129.601 29.1915L129.945 29.7422C130.152 29.7422 130.221 29.9487 130.358 30.0176L130.703 30.2241C131.184 30.6372 131.529 31.1191 131.666 31.601C131.812 32.1654 131.812 32.7577 131.666 33.3221L131.116 34.8367C130.84 35.3186 130.496 35.8005 130.152 36.1447L128.913 37.2462C128.362 37.4528 127.88 37.4528 127.26 37.4528C126.916 37.4528 126.71 37.1774 126.572 36.7643C126.324 36.0103 126.253 35.2094 126.365 34.4236L126.434 33.5286C126.747 32.4776 127.115 31.4435 127.536 30.4307C127.88 30.0864 128.086 29.7422 128.362 29.6734C128.706 29.4668 129.05 29.398 129.739 29.2603L129.601 29.1915ZM79.1382 34.2859L78.3121 34.3548C78.0367 34.3548 77.7613 34.4925 77.6925 34.7678L76.7975 37.6593C76.0268 41.5383 75.3839 45.4416 74.8698 49.3628C74.4985 52.1126 74.5916 54.9052 75.1452 57.6241C75.2282 58.1285 75.3908 58.6165 75.6271 59.0698C75.9025 59.4829 76.3156 59.6206 76.9352 59.7583H77.9678L78.3809 59.5518C78.5874 59.4141 78.6563 59.3452 78.6563 59.2075L78.5874 58.3126L78.3121 57.3487L78.1055 56.4538C77.9678 56.1095 78.0367 55.7653 78.0367 55.5588C78.2739 54.1183 78.5957 52.6931 79.0005 51.2904C79.2759 50.5332 79.6201 49.9136 79.9643 49.2251C80.3774 48.7432 80.8593 48.5367 81.4101 48.6055C81.6361 48.6208 81.8549 48.6916 82.0471 48.8117C82.2392 48.9318 82.3988 49.0974 82.5116 49.294C83.199 50.6313 83.5085 52.1309 83.4065 53.6312L82.9935 55.8342C82.5231 57.6248 81.7551 59.3237 80.7216 60.8598C80.3248 61.4459 79.7431 61.8822 79.0693 62.099C78.8337 62.1053 78.6008 62.1518 78.3809 62.2367C78.1744 62.2367 78.0367 62.3744 78.0367 62.5809L78.1744 63.0628L78.6563 63.3382L79.2759 63.6136L79.7578 63.6824C80.331 63.7434 80.9089 63.623 81.4101 63.3382C81.892 63.0628 82.4427 62.6497 82.7869 62.099C83.2688 61.6171 83.6131 60.9975 84.0261 60.309C84.6282 58.9698 85.1344 57.5894 85.5407 56.1784L85.8849 54.5261V52.1854C85.765 51.4445 85.4829 50.7393 85.0588 50.1201C84.5525 49.103 83.6937 48.3047 82.6424 47.8741C81.5911 47.4434 80.419 47.4098 79.3447 47.7794C78.7251 48.0548 78.1744 48.399 77.8301 48.8809C78.0703 46.6993 78.4614 44.537 79.0005 42.4095C79.5513 40.3442 79.8955 38.0724 80.102 35.9382C80.102 35.5251 80.102 35.2497 79.8266 35.0432C79.6201 34.9055 79.2759 34.8367 78.8628 34.7678L79.1382 34.2859ZM136.279 43.9241C136.004 43.9241 135.728 43.9241 135.59 44.0618C135.315 44.1995 135.04 44.4749 134.833 44.7502L134.489 45.8518L134.282 47.0909L132.906 51.2904L131.529 55.4211L130.083 59.6206C129.532 60.9975 129.188 62.3744 128.706 63.7513V64.4397L129.188 64.8528L129.67 65.197C130.07 65.3401 130.486 65.4326 130.909 65.4724H131.597L132.148 65.2658L132.492 64.7839C133.181 61.9613 134.076 59.2764 134.971 56.5226C136.131 52.8819 137.187 49.2087 138.138 45.5075L138.207 45.3698L138.138 45.0256L137.725 44.6814L136.761 44.2683H136.21L136.279 43.9241ZM113.56 44.6814C113.3 44.6544 113.037 44.7021 112.803 44.8191L112.115 45.301L111.77 46.196L111.564 47.1598C110.828 47.1546 110.092 47.1086 109.361 47.0221H108.122C107.777 47.1598 107.571 47.2286 107.571 47.4352V47.8482C107.709 47.8482 107.777 47.9859 107.915 48.0548L108.397 48.2613H108.81C109.621 48.46 110.454 48.5526 111.288 48.5367C110.636 50.4537 110.017 52.3817 109.43 54.3196L108.604 57.4864L107.915 60.6533L107.502 62.7186L107.364 65.0593C107.364 65.8854 107.502 66.5739 107.777 67.2623C107.923 67.5738 108.144 67.8439 108.421 68.0483C108.697 68.2527 109.02 68.3848 109.361 68.4327L110.393 68.5015L110.875 68.3638C111.013 68.3638 111.22 68.1573 111.22 68.0196C111.22 67.7442 111.22 67.4688 111.082 67.1935L110.875 66.3673V63.6136C111.252 60.585 111.874 57.5919 112.734 54.6638L114.386 48.6744C115.14 48.779 115.898 48.848 116.658 48.8809C117.076 48.8889 117.492 48.8426 117.897 48.7432C118.242 48.7432 118.379 48.5367 118.448 48.2613C118.311 47.9859 118.242 47.8482 118.104 47.7794L117.416 47.6417L114.8 47.4352L115.006 46.7467L115.075 45.7829C115.006 45.4387 114.868 45.2322 114.662 45.0945C114.524 44.9568 114.249 44.8879 113.905 44.8879C113.813 44.8833 113.721 44.8833 113.629 44.8879L113.56 44.6814ZM104.611 44.4749C104.129 44.406 103.784 44.4749 103.371 44.8879C103.016 45.2721 102.777 45.7497 102.683 46.2648V46.8844C102.821 46.8844 102.889 47.0221 103.027 47.1598L103.44 47.2286L104.335 47.2975L104.748 47.1598L105.161 46.609L105.712 45.7829V45.6452L105.919 45.3698C105.919 45.0945 105.919 44.9568 105.643 44.8879L105.092 44.5437H104.473L104.611 44.4749ZM66.7462 44.5437C65.6447 44.5437 64.6809 44.7502 63.9236 45.4387C62.3283 46.924 61.2439 48.8759 60.8256 51.0151C60.591 51.9884 60.4299 52.9779 60.3437 53.9754L60.4126 56.5226C60.553 57.2791 60.8332 58.0029 61.2387 58.6568C61.6518 59.3452 62.1337 59.896 62.7533 60.309C63.534 60.7415 64.4082 60.9778 65.3005 60.9975C65.9889 61.0663 66.8151 60.9975 67.3658 60.7909C68.0543 60.5844 68.7427 60.1714 69.2935 59.8271L70.9457 58.3814C71.5856 57.6033 72.1612 56.7744 72.6668 55.903C72.6668 55.6276 72.598 55.4211 72.3915 55.3523L71.8407 55.2146C71.4276 55.2146 71.1523 55.4211 70.5327 55.903L69.0181 57.3487C68.4673 57.9683 67.9166 58.4502 67.297 58.8633C66.6774 59.2764 66.0578 59.5518 65.4382 59.5518C65.0251 59.4829 64.7497 59.2075 64.4055 58.8633L63.7171 57.3487C63.4781 56.357 63.3625 55.3396 63.3729 54.3196H63.8548C64.6121 54.3884 65.3005 54.1819 65.9889 53.8377C66.7165 53.3881 67.3293 52.7753 67.7789 52.0477C68.3389 51.4063 68.7608 50.6564 69.0181 49.8447C69.2935 49.0186 69.5 48.3301 69.5688 47.7105C69.6328 46.8724 69.388 46.0399 68.8804 45.3698C68.5997 45.0427 68.251 44.7808 67.8586 44.6024C67.4662 44.4241 67.0396 44.3335 66.6085 44.3372L66.7462 44.5437ZM66.4709 45.7141H66.6774C66.8151 45.7141 66.9528 45.8518 67.0904 46.0583L67.1593 46.5402L67.297 47.2286L67.2281 47.7794C67.2281 48.1236 67.2281 48.4678 67.0216 48.9497C66.8604 49.9287 66.559 50.8794 66.1266 51.7724C65.9201 52.2543 65.7824 52.6673 65.507 52.8739C65.3005 53.2181 65.094 53.4246 64.8186 53.5623C64.6121 53.6312 64.3367 53.5623 64.1301 53.3558L63.6482 52.8739C63.8838 51.3752 64.1593 49.883 64.4744 48.399C64.7497 47.5729 65.094 47.0221 65.3693 46.3337C65.7136 45.7829 66.1266 45.6452 66.4709 45.6452V45.7141ZM93.3201 49.0186H92.2874C91.814 49.0647 91.35 49.1807 90.9106 49.3628C90.4975 49.5005 90.0156 49.7759 89.7402 50.0513C89.4224 50.3906 89.2283 50.8272 89.1894 51.2904C89.0452 52.1323 89.1654 52.9982 89.5337 53.7688L90.9106 56.2472C91.3667 57.0644 91.758 57.9161 92.0809 58.7945C92.494 59.6894 92.6317 60.5844 92.5628 61.4794C92.4251 61.8925 92.2874 62.1678 92.0809 62.1678C91.9432 62.1678 91.7367 62.1678 91.4613 61.9613L90.8417 61.204C90.549 60.7869 90.2506 60.3738 89.9467 59.9648C89.837 59.867 89.7221 59.775 89.6025 59.6894L89.2583 59.6206H88.5698C88.2256 59.6206 88.0191 59.7583 88.0191 59.9648C88.0191 60.4467 88.0191 60.8598 88.3633 61.3417C88.7771 62.0037 89.3192 62.5762 89.9577 63.0255C90.5962 63.4748 91.3181 63.7918 92.0809 63.9578C92.7875 64.0223 93.4988 63.9038 94.1462 63.6136C94.5593 63.5447 94.8347 63.2693 95.0412 62.994C95.2477 62.7186 95.3854 62.3055 95.4543 61.8925C95.592 60.8598 95.4543 59.896 95.0412 59.0698C94.6591 58.1273 94.2223 57.2078 93.7332 56.3161L92.3563 53.8377C92.0121 53.1492 91.8055 52.2543 91.9432 51.5658C91.9432 51.1528 92.2186 50.8774 92.6317 50.602C92.9759 50.3955 93.3201 50.3266 93.802 50.3955C94.2089 50.4433 94.5923 50.6111 94.9035 50.8774L96.4869 52.4608C96.6246 52.6673 96.9688 52.805 97.3819 52.8739C97.5196 52.8739 97.6573 52.8739 97.795 52.7362C98.0015 52.5985 98.0704 52.392 98.0704 52.1854C98.0704 51.7724 98.0704 51.497 97.6573 51.0151C97.3165 50.6276 96.893 50.3218 96.4181 50.1201C95.4575 49.5888 94.4074 49.2387 93.3201 49.0874V49.0186ZM46.506 45.7829L45.6111 45.8518C45.3357 45.8518 45.1291 45.8518 44.9915 45.9894C44.5095 46.1271 44.0965 46.609 43.8211 47.2975C43.5457 48.1236 43.3392 48.8809 43.2015 49.707C42.8986 52.2222 42.8986 54.7647 43.2015 57.2799C43.3392 57.9683 43.6834 58.5879 43.9588 59.001C44.3719 59.4141 44.9226 59.6206 45.7487 59.6894C46.1534 59.6955 46.5545 59.6123 46.9234 59.4457C47.2923 59.2791 47.6199 59.0332 47.8829 58.7256C48.9802 57.1498 49.7525 55.3711 50.1548 53.4935C50.381 52.6653 50.6805 51.8589 51.0497 51.0839L51.394 52.8739L52.0136 54.7327C52.2835 55.2429 52.632 55.7075 53.0462 56.1095C53.5281 56.5226 54.0789 56.7291 54.7673 56.798C55.2759 56.8237 55.7801 56.692 56.2112 56.421C56.6423 56.15 56.9795 55.7528 57.1769 55.2834C57.4523 54.8015 57.5211 54.3196 57.6588 53.7688L57.7965 52.2543L57.6588 50.7397C57.5296 49.4421 57.1559 48.1806 56.5573 47.0221C56.2819 46.4714 55.9377 46.2648 55.4558 46.2648C55.3412 46.2552 55.2261 46.2552 55.1116 46.2648C54.9911 46.295 54.8753 46.3413 54.7673 46.4025C54.6296 46.4025 54.492 46.4025 54.4231 46.5402L54.2854 46.6779L54.9739 48.8121C55.3353 49.9526 55.5662 51.1305 55.6623 52.3231C55.6496 53.2555 55.5106 54.1818 55.2492 55.0769L54.8362 55.6965C54.4561 55.0951 54.1553 54.4472 53.9412 53.7688C53.5219 52.1873 52.9692 50.6443 52.2889 49.1563C51.9447 48.4678 51.6005 48.1925 51.1186 48.2613C50.7055 48.2613 50.2925 48.399 49.8794 48.7432C49.4651 49.1452 49.1167 49.6099 48.8467 50.1201L48.0206 51.91L47.3322 53.9754L46.6437 55.6965C46.4372 56.2472 46.2307 56.6603 46.0241 56.8668C45.869 55.588 45.8229 54.2982 45.8864 53.0116L46.0241 49.8447C46.093 48.8121 46.4372 47.7794 46.8502 46.7467L47.2633 46.4025V46.2648C47.2633 46.0583 47.2633 45.9206 46.9191 45.7829L46.3683 45.6452L46.506 45.7829ZM102.958 50.602L102.408 50.5332C102.063 50.5332 101.857 50.7397 101.719 50.9462C101.375 51.9789 101.031 52.9427 100.48 53.9754C99.9429 55.2968 99.5952 56.6874 99.4472 58.106L99.5161 59.0698L99.7226 59.6206C99.7915 59.9648 99.998 60.309 100.342 60.5156C100.48 60.6533 100.824 60.8598 101.237 60.8598L101.926 60.9286C102.339 60.9286 102.545 60.791 102.614 60.5844V59.896L102.476 59.4829L102.683 57.4176C102.88 56.3724 103.204 55.3552 103.647 54.3884C103.991 53.4246 104.266 52.5296 104.473 51.497C104.473 51.3593 104.473 51.2905 104.335 51.2216L104.06 50.9462C103.682 50.7302 103.256 50.6118 102.821 50.602H102.958ZM122.235 52.7362C121.463 52.7103 120.7 52.9011 120.032 53.2869C119.116 53.8053 118.319 54.5087 117.691 55.3523C116.375 57.0725 115.479 59.0763 115.075 61.204C114.872 62.0389 114.757 62.8925 114.731 63.7513C114.731 64.5774 114.868 65.3347 115.213 66.092C115.474 66.8001 115.899 67.4368 116.452 67.9507C117.11 68.4561 117.866 68.8208 118.671 69.0221C119.476 69.2235 120.314 69.2571 121.133 69.1211C121.822 69.0523 122.51 68.8457 123.13 68.4327C123.771 68.1155 124.372 67.7226 124.92 67.2623C125.725 66.6022 126.462 65.8643 127.123 65.0593C127.123 64.7839 127.123 64.6462 126.847 64.5774C126.641 64.4397 126.503 64.302 126.296 64.302C125.952 64.2332 125.47 64.3709 124.92 64.7839L123.13 66.0231C122.441 66.505 121.89 66.9869 121.202 67.2623C120.514 67.6754 119.894 67.7442 119.343 67.5377C118.93 67.5377 118.655 67.2623 118.448 66.8492C118.235 66.3201 118.096 65.7641 118.035 65.197C117.985 64.2055 118.055 63.2116 118.242 62.2367L118.724 62.3744C119.412 62.5809 120.101 62.5121 120.789 62.1678C121.477 61.8236 122.166 61.4794 122.854 60.9286C124.047 59.8194 124.885 58.3823 125.264 56.798C125.47 55.7653 125.402 54.9392 124.988 54.3196C124.575 53.6312 123.887 53.2181 122.923 52.9427C122.65 52.8961 122.374 52.873 122.097 52.8739L122.235 52.7362ZM32.0487 45.8518H31.8422C31.3603 45.8518 31.0161 45.9894 30.8095 46.2648C30.6166 46.5991 30.5213 46.9806 30.5342 47.3663C30.3676 50.4023 29.836 53.4072 28.9507 56.3161C28.6065 57.0734 28.2623 57.3487 27.8492 57.4176C27.5739 57.4176 27.3673 57.1422 27.092 56.7291L26.4035 54.5261C26.074 53.0052 25.8441 51.4644 25.7151 49.9136C25.7151 49.4317 25.5774 49.2251 25.302 48.9497C24.9405 48.7677 24.5336 48.6959 24.1317 48.7432C23.8563 48.7432 23.5809 48.8121 23.4432 48.9497C23.2367 49.0874 23.099 49.294 23.1678 49.6382L23.3744 51.2904C23.5254 52.6684 23.686 54.0454 23.8563 55.4211C23.9698 56.1211 24.2027 56.7964 24.5447 57.4176C24.7513 57.9683 25.1643 58.4502 25.6462 58.7256C26.1281 59.001 26.7477 59.1387 27.3673 59.1387C27.773 59.1342 28.1726 59.0402 28.5377 58.8633L29.5015 57.9683L30.1899 56.8668L30.7407 55.6965L30.8784 58.4502L31.2226 61.2729C31.4177 63.1251 31.5096 64.9868 31.498 66.8492V67.0558C31.498 67.2623 31.498 67.4 31.7045 67.5377L32.2553 67.8131L32.9437 67.9507H33.3568C34.0452 67.8819 34.4583 67.8131 34.7337 67.6065C35.0779 67.3312 35.2156 66.9181 35.1467 66.2296V65.1281L34.9402 63.2693L33.9075 52.2543C33.719 50.8615 33.6041 49.4597 33.5633 48.0548C33.4945 47.3663 33.2879 46.8844 33.0126 46.4025C32.8998 46.206 32.7402 46.0403 32.5481 45.9202C32.3559 45.8001 32.1371 45.7293 31.9111 45.7141L32.0487 45.8518ZM122.235 54.1131H122.579C122.785 54.3196 122.923 54.3884 122.923 54.5261L122.992 55.0769V55.7653L122.785 56.3161C122.785 56.6603 122.579 57.0045 122.441 57.4864L121.822 58.8633L120.995 60.1025C120.828 60.5015 120.568 60.8552 120.238 61.1352C120.032 61.4794 119.687 61.6171 119.481 61.6859C119.206 61.6859 118.999 61.6859 118.792 61.4105L118.379 60.7909C118.854 59.3716 119.382 57.9708 119.963 56.5915C120.307 55.7653 120.789 55.2834 121.202 54.6638C121.546 54.3196 121.89 54.1819 122.235 54.1131ZM16.2146 47.2975H15.7327C15.0442 47.4352 14.5623 47.7106 14.3558 48.1236C13.9718 48.5982 13.6693 49.1333 13.4608 49.707L13.1854 51.6347L13.0477 53.2869C12.91 52.805 12.5658 52.3231 12.1528 51.8412L10.8447 50.6709C10.3336 50.3225 9.77783 50.0446 9.19246 49.8447C8.62236 49.6646 8.02037 49.6082 7.42674 49.6795C6.83311 49.7507 6.26154 49.9479 5.75025 50.2578C5.19949 50.5332 4.71758 50.8774 4.23568 51.497L4.09799 49.4317L3.82261 49.1563L3.3407 48.9497C3.02349 48.8872 2.69976 48.8641 2.37688 48.8809C1.89497 48.8809 1.48191 49.0874 1.27537 49.3628C1.13768 49.5005 0.931152 49.8447 0.931152 50.2578V51.3593L1.13768 52.5296L1.41306 54.5261C1.68941 56.0781 2.03397 57.6171 2.44573 59.1387C2.58341 59.8271 2.92763 60.4467 3.20301 60.9286C3.40954 61.1352 3.68492 61.2729 3.9603 61.3417L4.85527 61.2729C5.54372 61.2729 5.88794 60.9975 6.09447 60.6533C6.36985 60.2402 6.43869 59.7583 6.43869 59.2764L6.23216 57.693C5.80235 56.1247 5.68539 54.4873 5.88794 52.8739C5.88794 52.3231 6.16331 51.8412 6.43869 51.5658C6.71407 51.0839 7.12713 50.8774 7.67789 50.7397C8.10962 50.6991 8.54317 50.7955 8.91708 51.0151L10.0874 52.1166L11.0513 53.5623L11.9462 55.0769C12.2216 55.6276 12.5658 55.9719 12.91 56.2472C13.2543 56.5915 13.5985 56.7291 13.8739 56.6603C14.2181 56.6603 14.4246 56.4538 14.5623 56.0407C14.7742 55.0444 14.8895 54.03 14.9065 53.0116C14.9339 52.0452 15.0028 51.0805 15.1131 50.1201C15.1131 49.7759 15.3196 49.5693 15.7327 49.5005C15.9392 49.5005 16.0769 49.6382 16.3523 50.1201L16.7653 51.497C17.1528 52.8958 17.429 54.323 17.5915 55.7653L17.9357 57.8307L18.0734 59.4141C18.0734 59.8271 18.2799 60.1025 18.6241 60.1025L19.6568 60.2402H20.0698C20.3975 60.1413 20.7019 59.9774 20.9648 59.7583C21.0337 59.6894 21.1714 59.5518 21.1025 59.4141L20.896 57.5553C20.5911 54.7196 19.8961 51.9395 18.8307 49.294C18.4864 48.6055 18.0045 47.9171 17.4538 47.504C17.0407 47.1598 16.6276 47.0221 16.0769 46.9533L16.2146 47.2975ZM129.808 67.9507C129.532 67.9507 129.257 67.9508 129.119 68.0884C128.706 68.1573 128.431 68.3638 128.155 68.708C127.949 68.9146 127.811 69.2588 127.605 69.6719L127.26 70.8422V71.2553L127.673 71.5995L128.224 71.9437L128.637 72.0814C129.326 72.2879 129.739 72.3568 130.014 72.2191C130.358 72.0126 130.565 71.8749 130.703 71.5307L131.116 70.4291C131.116 70.0161 131.322 69.603 131.46 69.1899C131.46 68.8457 131.322 68.5703 131.116 68.5015L130.358 68.1573H129.808V67.9507Z" fill="currentColor" />
<path d="M11.3267 73.3896C45.7488 69.2589 93.9397 70.3604 121.477 77.176" stroke="currentColor" stroke-width="3.8" stroke-linecap="round"/>
</svg>