<svg xmlns="http://www.w3.org/2000/svg" viewBox="24 5 60 45">
  <path d="M40.1 5c-.5 0-.9 0-1.1.2a4 4 0 0 0-1 1 56.7 56.7 0 0 1-.5 7.1 47.8 47.8 0 0 1-3 10.2 49.8 49.8 0 0 1-3.1 6.9c-.6.9-1.2 1.7-1.8 2.1-.4-.6-.7-1.3-1-2.5a45.2 45.2 0 0 1-.6-7.8V14a125.5 125.5 0 0 0 0-4.7 1 1 0 0 0-.5-.6l-1.2-.2-1.1.1c-.4.1-.6.3-.7.7l-.4 2.5V23a66.4 66.4 0 0 0 .4 6.2c.2 1 .4 2 .7 2.7.4.9.9 1.5 1.5 2a3 3 0 0 0 2.2.9l1.1-.1 1-.5h.2c.6-.3 1.1-.9 1.7-1.6a17 17 0 0 0 2.4-5l.8-2.4a192.6 192.6 0 0 0-.9 12.4c0 .5 0 .9.2 1.3.1.3.3.6.7.8s.8.3 1.4.3l1.2-.1c.4-.1.7-.3.9-.6V39l-.1-1.2v-1.2c0-2.5 0-5.1.3-7.6a4942.6 4942.6 0 0 1 1.5-15.2c.3-2.5.4-5 .4-7.5v-.5l-.3-.5-.7-.2L40 5zm-8.8 29.4zm0 0zM81.6 8.5c-.4 0-.7.1-1 .3l-.6.9-.2 1.3-.1 1.3a79.6 79.6 0 0 1-1.9 9.6l-1 4.9a64.7 64.7 0 0 0-.6 5.4l.5.4.6.3.7.1h1.4l.6-.3a193.7 193.7 0 0 1 1.9-10.1 163.3 163.3 0 0 0 1.8-12.8l.1-.1c0-.2 0-.3-.2-.5a1 1 0 0 0-.5-.2l-.6-.2a4.3 4.3 0 0 0-1-.1zm-35 11.1c-.6 0-1 .2-1.2.4-.2.3-.4.8-.4 1.4a136.5 136.5 0 0 0-.3 7.1v4.7a365.3 365.3 0 0 0 .2 7.5c-4.7 0-9.4.1-14.1.6a1.9 1.9 0 0 0-1.7 2 1.9 1.9 0 0 0 2 1.7c4.7-.4 9.5-.7 14.2-.6v.3c.2.4.4.7.8.8a6.4 6.4 0 0 0 1.7.2l.6-.1.6-.2c.2-.1.3-.3.3-.5v-.4c9.8.5 19.9 2.1 28.6 5.3a1.9 1.9 0 0 0 2.4-1 1.9 1.9 0 0 0-1-2.5 102.6 102.6 0 0 0-29.7-5.5 322.2 322.2 0 0 0 0-8.5c0-.8.1-1.7.4-2.8.3-1 .7-2.1 1.2-3.1s1-1.8 1.7-2.5 1.4-1 2.2-1c.5 0 1 .3 1.2.8.3.5.6 1 .7 1.8a15.8 15.8 0 0 1 .3 3.7c0 .5-.1 1-.4 1.6a5 5 0 0 1-2.5 2.1c-.4.2-.8.3-1.3.3a.9.9 0 0 1-.6-.3l-.5-.6c-.2-.3-.5-.4-1-.5h-.7c-.3.1-.4.2-.4.5.2.8.6 1.3 1.1 1.6a5 5 0 0 0 2 .5l2.4-.1c.8-.1 1.6-.4 2.2-.8a4 4 0 0 0 1.6-1.8 7 7 0 0 0 .8-3l-.1-2.4c-.2-.9-.5-1.6-.9-2.3-.4-.7-.9-1.3-1.5-1.6-.7-.5-1.5-.8-2.5-.8-.7 0-1.4 0-2 .3-.6.2-1.2.5-1.8 1a11.3 11.3 0 0 0-2.7 3c-.1-.8-.2-1.6-.1-2.4V21c0-.5 0-.9-.4-1a2.3 2.3 0 0 0-1.4-.4zM67.4 22a7.6 7.6 0 0 0-2.3.5c-.4.2-1 .5-1.3.9-.3.3-.5.8-.6 1.3a5 5 0 0 0 .6 2.8l1.6 2.7 1.5 2.8c.5.9.7 2 .6 3 0 .5-.2.8-.4.8s-.5 0-.7-.3l-.8-.8a61.3 61.3 0 0 0-1-1.3 4 4 0 0 0-.5-.3l-.4-.1H63c-.3 0-.5.2-.5.4 0 .5 0 1 .4 1.6.3.5.7.9 1.2 1.3l1.5 1c.6.2 1 .4 1.6.4h1.2c.4 0 .8-.2 1.2-.4a2.3 2.3 0 0 0 1.4-2 6 6 0 0 0-.6-3.2l-1.5-3-1.7-2.6a4 4 0 0 1-.6-2.6c0-.5.3-.9.7-1.1a2 2 0 0 1 1.3-.4c.5 0 .9.3 1.2.5l.9.9.9.8c.3.3.6.4 1 .4l.5-.1.3-.6c0-.5-.2-.9-.6-1.2-.4-.4-.8-.8-1.4-1l-1.7-.7-1.4-.3h-.8zm10 14-1 .1c-.4.2-.7.4-1 .8l-.5 1.2-.2 1.2.1.5.5.4.6.3.5.1c.8.1 1.2 0 1.6-.1.3-.2.5-.5.6-.9l.2-1.3.3-1.3c-.1-.4-.3-.7-.5-.8a2 2 0 0 0-.9-.3h-.4z" fill="currentColor"/>
</svg>
