<svg xmlns="http://www.w3.org/2000/svg" viewBox="24 5 92 51">
  <g  fill="currentColor">
    <path d="m43 5.6.8.2q.4.1.4.6L42 20.3l-2 13.9.2 1 .2.8q0 .3-.2.5l-.6.3-.6.1h-2q-.6-.2-.9-1.1l-1.6-6.3q-.7-3.1-1.2-6.3l-.3 1.6-.2 1.5-1 7q-.6 3.4-.4 7 0 .8-.4 1-.3.4-1.2.4-.7 0-1-.2l-.8-.3-.6-.4-.2-.4q-.5-4.3-.8-8.7l-.6-8.6-.9-7.8q-.4-4-1-7.8 0-.5.7-.7l1-.2 1 .1q.6.1.7.6.7 2.4 1 4.8l.8 5q.3 2.4.4 4.9l.5 4.8.9-4.8q.5-2.5 1.3-4.8v-1.6q-.1-1 .6-1.6.7-.5 2-.5h.5q.4 0 .5.4l-.2.5v.5q0 3 .9 6.2l1.7 6.2.7-5.1.9-5.3.9-5.7.6-3.7q.3-1.4.7-1.8.4-.6 1.2-.7zm10.5 18q1 0 2.2.4 1.1.3 2 1 1 .7 1.5 1.6.6 1 .6 2.2 0 1.4-.6 2.7-.5 1.2-1.5 2.2-.9 1-2 1.6-1.3.5-2.7.5-1.2 0-2.1-.4-.9-.5-1.5-1.3-.6-.7-.8-1.7t-.3-2.2q0-1.2.3-2.4t1-2q.6-1 1.6-1.6 1-.6 2.4-.6zm-.5 11q1-.1 1.7-.7t1.1-1.4q.5-.8.7-1.8l.2-1.9q0-1-.4-1.8t-1.4-1.2l-.5-.2-.5-.1-.5-.5q-.8.3-1.3.7l-.7 1q-.2.7-.2 1.6l-.1 2v1.2l.3 1.4.6 1.2q.4.5.9.4zm13.4-9.9q1 0 2.2.5 1.2.4 2 1 1 .8 1.5 1.8t.5 2.1q-.1 1.4-.7 2.7-.6 1.2-1.6 2.2-1 .9-2.2 1.4t-2.8.4q-1.2 0-2-.5-.9-.5-1.4-1.2-.6-.8-.8-1.8-.2-1-.2-2.1 0-1.2.4-2.4t1-2.1q.8-1 1.8-1.6 1-.6 2.4-.5zm-1 11q1.2-.1 2-.7.7-.5 1.2-1.3t.7-1.7l.2-2q.1-1-.3-1.7-.4-.8-1.3-1.4l-.4-.1-.5-.2q-.3-.1-.6-.5-.8.3-1.2.7l-.7 1q-.3.6-.4 1.5l-.1 2.1v1.1l.2 1.4.6 1.2q.3.5.8.5zm17.2-.7.5.7q.3.3.6.3.6.1 1.3-.2l1.4-.8q.7-.5 1-1.2.6-.7.6-1.6v-1.7l-.1-2q-.2-1-.7-1.7-.4-.8-1.2-.9-1.2 0-2.3 1-1 1-2 2.4-.7 1.4-1.2 3-.5 1.7-.6 2.9l-.2 2.7V45q0 1.7-.2 2.8 0 .3-.3.4l-.6.2h-1.1l-1.2-.2q-.6-.2-.7-.8l-.3-2.9v-4l.1-4.7.3-4.7.3-4 .2-3q.1-1 .5-1.4.4-.4 1.5-.3.5 0 1 .3t.5 1q0 1.3-.2 2.5t0 2.4l1.2-1.5 1.5-1.3q.9-.6 1.8-.9 1-.3 2-.2 1.4.2 2.4.9t1.5 1.7q.6 1 .7 2.3.2 1.2 0 2.4-.1 1.9-.8 3-.7 1.2-1.8 1.8-1 .6-2.2.7h-2.4q-1.1-.1-2-.6-.8-.5-1.1-1.7 0-.4.5-.4h.7q.6 0 1 .5zm16.9-9.6 1.4.4 1.6.7q.8.5 1.3 1.1.6.6.5 1.3 0 .3-.3.5t-.5.2q-.6-.1-1-.5l-.8-.9q-.4-.5-1-.9-.4-.4-1-.5-.8-.1-1.4.2-.7.4-.8 1.2-.1 1.2.6 2.5l1.4 2.8q.9 1.3 1.5 2.9.6 1.6.4 3.2-.1.8-.5 1.3t-1 .7q-.5.3-1.2.3h-1.2q-.7 0-1.5-.5l-1.5-1q-.7-.7-1-1.5-.5-.7-.4-1.5 0-.4.6-.4h.8l.3.2.5.2.3.3.2.3.5.8.7.9q.4.3.7.3.3 0 .4-.9.3-1.6-.4-3-.6-1.4-1.5-2.8l-1.5-2.7q-.6-1.4-.4-2.8.1-.8.7-1.3.5-.5 1.3-.8.8-.3 1.7-.3h1.5zm16-11.7q0 .9-.2 1.7L115 17q-.8 4.8-2 9.5l-1.9 9.4q0 .4-.3.7l-.6.2h-1.4l-.7-.2q-.3 0-.6-.3-.3-.1-.5-.4-.2-.3 0-.7.3-2.4 1-4.7t1.1-4.8l1.2-4.7 1-4.7.2-1.4q0-.7.3-1.3.2-.6.7-.9t1.4-.1l.5.1.6.2.5.3q.2.2.2.5zm-7 26.5q.7.1 1 .4.3.2.4.8l-.3 1.3q0 .7-.3 1.3-.2.6-.7.8-.4.3-1.5.1l-.5-.1-.6-.3-.5-.4v-.5q0-.7.2-1.3.2-.7.6-1.2.3-.5.9-.7.6-.2 1.4-.1z" />
    <path d="M71 42c-8.2-.8-16-.7-24 .1a1.9 1.9 0 0 0-1.7 2.1 1.9 1.9 0 0 0 2.1 1.7c15-1.5 32-.3 47 4.8a1.9 1.9 0 0 0 2.4-1.2 1.9 1.9 0 0 0-1.2-2.4c-7.7-2.7-16-4.3-24-5.1z" transform="translate(2 4.6)"/>
  </g>
</svg>
