<svg xmlns="http://www.w3.org/2000/svg" viewBox="3 -2 199 81"><path d="M62-2a4.6 4.6 0 0 0-1.6.2c-.3.2-.5.4-.6.8V.2a919.4 919.4 0 0 1 .3 14.2c-.5-.4-1-.7-1.8-.8a8.4 8.4 0 0 0-4.8.7c-.7.4-1.3 1-1.8 1.6-.4.7-.6 1.4-.8 2.2v3c0 .7.2 1.5.4 2.3.2.8.5 1.5 1 2.1a4 4 0 0 0 1.5 1.4c.7.4 1.5.5 2.4.4 1.2 0 2.2-.6 3-1.4.7-.8 1.2-1.8 1.6-2.9l.3 1.6a98.8 98.8 0 0 0 1 4.5c.1.7.3 1 .6 1.1a3.8 3.8 0 0 0 3.7-.3l.2-.5-.1-.4-.3-.2c-.6-1.8-1-3.6-1.4-5.5A183.8 183.8 0 0 1 63.3 0c0-.8-.2-1.3-.4-1.6-.2-.2-.5-.3-1-.3zm57 1.8-.6.1-.5.2c-.2 0-.2.2-.3.4l.1.2a365.7 365.7 0 0 0-1.2 7.6 145 145 0 0 1-1.3 7l-1.3 7.1-.4 3a118.1 118.1 0 0 0-.4 2.4c0 .6 0 1 .5 1.3.3.3.8.5 1.4.6.6 0 1 0 1.5-.2.3-.2.6-.6.6-1.2l.2-1.4.8-6 1-6a249.7 249.7 0 0 0 2-13.7l-.4-.8c-.2-.2-.4-.4-.8-.5h-1zM19 4.1l-.8.1-.7.3-.6.6c-.8 2.5-1.5 5-2 7.7-.5 2.6-1 5.2-1.7 7.8l-.6-.8-1.2-1.6-1.5-2-1.5-1.8-1.2-1.5-.7-.7A1 1 0 0 0 6 12l-.7.1a1 1 0 0 0-.6 0 3 3 0 0 0-.4 0l-.8.4-.4.8c.6 1.9 1.1 3.8 1.5 5.8.5 2 1 4 1.3 5.8.4 1.6.8 3.3 1 5 .3 1.7.7 3.3 1.2 4.9l.6.4h.6l.6-.2 1-.3c.3-.2.5-.5.4-.8A108.7 108.7 0 0 0 8 21l-1-3.7L9.6 21c1 1.3 2 2.6 2.7 3.9l.7.4h1l.9-.4c.3-.2.5-.4.6-.7a9 9 0 0 0 .3-1.8l.3-1.9a72 72 0 0 1 2.1-9l1.1 5.8 1 6A591.2 591.2 0 0 0 22.9 35l.2.3.3.2a4 4 0 0 0 1.9 0c.3 0 .6-.2 1-.4s.6-.5.7-.8c0-1.3-.3-2.6-.8-4a429.1 429.1 0 0 1-3-13.3 149.2 149.2 0 0 0-2.8-11.8 2 2 0 0 0-.8-1H19zm56 5.1c-1.2 0-2.3.5-3.1 1.3-.8.8-1.4 1.8-1.8 3-.5 1.1-.8 2.4-1 3.7-.1 1.3-.2 2.4-.1 3.3 0 1 .1 1.9.4 2.8a8 8 0 0 0 1 2.4c.6.7 1.2 1.2 2 1.6.8.4 1.8.6 2.9.5.9 0 1.7-.2 2.4-.5s1.4-.8 2-1.3c.6-.6 1.2-1.1 1.6-1.8a29 29 0 0 0 1.7-3c0-.3-.2-.5-.4-.5l-.7-.1c-.4 0-.9.3-1.3.8l-1.5 2-1.7 1.8a3 3 0 0 1-2 1c-.5 0-.9-.3-1.2-.7-.4-.4-.6-1-.9-1.6a15.2 15.2 0 0 1-.7-3.3h.5c.9 0 1.6-.3 2.3-.8.7-.6 1.3-1.2 1.8-2a9.5 9.5 0 0 0 1.4-5.1c0-1.1-.3-2-1-2.7-.5-.7-1.4-1-2.5-1zm30 .5c-1 0-1.9.4-2.7 1-.8.7-1.6 1.7-2.1 2.8a21.6 21.6 0 0 0-1.8 6.9v3c.2.8.5 1.6 1 2.4.4.7 1 1.3 1.7 1.8a6 6 0 0 0 2.8.8 6.8 6.8 0 0 0 4.5-1.4c.6-.5 1.3-1 1.8-1.6l1.5-2 .2-.3.2-.5c0-.3 0-.5-.3-.6a2 2 0 0 0-.7-.1c-.4 0-.8.2-1.4.7l-1.7 1.8-1.9 1.7c-.6.5-1.3.7-2 .7-.4 0-.8-.3-1.2-.8a6 6 0 0 1-.7-1.7 14.9 14.9 0 0 1-.4-3.3l.6.1a4 4 0 0 0 2.4-.6c.7-.5 1.4-1.1 1.9-1.8l1.4-2.4c.3-.9.5-1.7.5-2.4.1-1.1-.1-2-.6-2.7-.6-.7-1.4-1.1-2.5-1.2h-.5zm-30 .8h.2c.2 0 .4.1.5.3l.2.6.1.7v2a11.4 11.4 0 0 1-.7 3.2l-.6 1.3a2 2 0 0 1-.7.7c-.2.2-.5.1-.8-.1l-.6-.5a80.3 80.3 0 0 1 .5-5c.2-1 .4-1.7.8-2.4.3-.6.6-.9 1-1zm20 .3h-.7c-.3.1-.4.3-.5.5a97.8 97.8 0 0 1-2.4 10.4l-1.2 3c-.3-.4-.5-1-.7-2a326.3 326.3 0 0 1-1.9-8.7 6 6 0 0 0-1.1-2 1.8 1.8 0 0 0-1.9-.9h-.5l-.4.2-.2.3v.5a9.7 9.7 0 0 0 .6 1.2l.2.5c.3 1 .6 2 .7 3.2l.4 3.6c.1 1.2.4 2.3.8 3.4s1 2.1 1.8 2.8c.5.4 1.2.6 2 .6l.8-.1c.4 0 .6-.2.8-.4a15.5 15.5 0 0 0 2-4.2 43.2 43.2 0 0 0 2.3-9.4l.2-2c0-.3-.1-.5-.3-.6H95zm9.9.2h.2c.2 0 .4.2.4.4l.2.5v1.5l-.2 1.3a13.3 13.3 0 0 1-1.7 4.5 2 2 0 0 1-.8.6c-.2.2-.5 0-.7-.2l-.6-.5a94 94 0 0 1 1-5c.2-1 .6-1.7 1-2.3.3-.6.7-.8 1.2-.8zm-48 3.5c.7 0 1.3.2 1.8.6.6.5 1 1.1 1.1 2l-.1 2.2a14.4 14.4 0 0 1-1.7 5.2c-.5.8-1 1.3-1.5 1.7-.5 0-.9-.1-1.2-.6a7 7 0 0 1-.8-1.5 14.8 14.8 0 0 1-1-4.8l.3-1.4c0-.4.2-.8.5-1.3.2-.4.5-.9 1-1.4a4.7 4.7 0 0 1 1.3-.6h.3zm81 .3c-.3 0-.6 0-.8.2-.3.3-.5.7-.6 1.3a89.6 89.6 0 0 0-1.3 7.1l-.6 4.6-.6 4.6a90 90 0 0 0-.4 7c0 .4.3.7.6.9a6.3 6.3 0 0 0 1.6.4h.7l.6-.1c.2-.1.3-.3.3-.4l.4-2.8.4-3.5.4-3.5.5-2.8a16.3 16.3 0 0 1 2.4-5.6c.7-1 1.3-1.7 2.1-2.2.8-.7 1.5-.9 2.3-.7.5 0 1 .4 1.1 1 .3.5.4 1 .5 1.7a11.8 11.8 0 0 1-.2 3.8c-.1.6-.4 1-.7 1.5l-1.2 1.2-1.4.7c-.5.1-1 .2-1.3 0a.9.9 0 0 1-.6-.3l-.4-.7c-.2-.3-.5-.5-.9-.6a5 5 0 0 0-.7 0c-.3 0-.5 0-.5.3 0 .8.4 1.4 1 1.8.5.4 1.1.7 1.8.8.8.2 1.6.2 2.4.2s1.6-.1 2.3-.4c.7-.4 1.3-.9 2-1.6.5-.7.9-1.7 1.1-3 .2-.7.3-1.5.2-2.3 0-.9-.2-1.6-.5-2.3-.3-.8-.7-1.4-1.4-2-.5-.5-1.3-.8-2.3-1-.7-.2-1.4-.2-2 0-.6.1-1.3.3-1.9.7l-1.7 1-1.4 1.5.3-2.4.4-2.4c0-.5 0-1-.3-1.1-.3-.3-.7-.4-1-.5a3 3 0 0 0-.7 0zm-100 .2h-.4c-.6.1-1 .3-1.1.6-.2.3-.2.7-.2 1.2a38.5 38.5 0 0 1-.3 10c-.3 1-.6 1.4-1.1 1.5-.3 0-.6-.2-1-.8a49.7 49.7 0 0 1-2.6-7.1c0-.5-.3-.8-.6-1-.3-.1-.7-.2-1.3 0-.3 0-.6.1-.8.3-.2.1-.2.4-.1.8l.4 1.8.5 2.2.7 2.3 1 2c.4.6.9 1 1.4 1.3a3 3 0 0 0 2 .2c.5 0 1-.3 1.3-.6l1-1 .6-1.4.4-1.4.6 3 .8 3.1.7 3.1.5 3v.1c0 .3 0 .4.3.5l.6.2h1.4a3 3 0 0 0 1.5-.6c.3-.3.3-.8.2-1.6l-.2-.5-.1-.6-.5-2-2.8-12-.4-2-.5-2.5c-.2-.7-.6-1.3-1-1.8-.2-.3-.6-.5-1-.5zm89 .8-1.8.3a6.3 6.3 0 0 0-3 3.4c-.3.8-.5 1.5-.6 2.3V24c0 .7.3 1.3.6 1.8.3.6.8 1 1.3 1.4a6 6 0 0 0 4.7.5c.8-.2 1.7-.6 2.4-1.2a7.2 7.2 0 0 0 2.7-4.6 4 4 0 0 0-.3-2.1c-.3-.7-.7-1.4-1.3-1.9a7.8 7.8 0 0 0-4.7-2zm67 0-.7.2-1.3.6a24.4 24.4 0 0 0-2.5 1.8l-1.9 1.3-1.5 1.5.1.6.6.7.8.4c.5.2.9.2 1.2.2.4 0 .8-.3 1.2-.6l1.7-1.4 2.7-2.4.8-.6c.3-.3.5-.5.6-.8l-.1-.5a2 2 0 0 0-.5-.4 2 2 0 0 0-.5-.3l-.2-.1-.6-.1zm-66 1.3.5.5.5.2.4.2c.6.5 1 .9 1.2 1.4.3.5.3 1.2.2 1.9 0 .5-.2 1.2-.4 1.8-.2.6-.5 1.2-.9 1.7-.3.5-.8.9-1.3 1.2-.5.3-1 .4-1.9.4-.3 0-.6-.2-.8-.6a6 6 0 0 1-.4-1.2l-.1-1.4v-1a59.3 59.3 0 0 1 .9-3.7c.2-.4.4-.7.8-1l1.3-.5zm1.4 1zm32 .6c-.7 0-1.4.1-2 .5a11 11 0 0 0-2.6 2.3c-.8 1-1.4 2-2 3.2l-1.1 3c-.2 1-.4 2-.4 2.9 0 1 0 1.8.4 2.6.2.8.7 1.5 1.4 2a6 6 0 0 0 2.6 1.4c.8.2 1.7.3 2.4.2a7 7 0 0 0 2.3-.7l2-1.2c.7-.5 1.4-1.1 1.9-1.7l.3-.3.3-.5c0-.3 0-.5-.2-.6l-.7-.3c-.4 0-.9 0-1.5.5l-2 1.4c-.7.5-1.4 1-2.2 1.3a3 3 0 0 1-2 .3c-.5-.1-.8-.4-1-1-.2-.5-.4-1-.4-1.8a15 15 0 0 1 .2-3.4l.5.2c.8.2 1.6.2 2.4-.1.8-.4 1.6-.8 2.3-1.4l1.8-2.1a7 7 0 0 0 1-2.3c.3-1.1.2-2-.1-2.8-.4-.8-1.1-1.3-2.3-1.6a5 5 0 0 0-1.3-.2zm.6 1.4h.4l.4.4V22l-.2.6-.5 1.2a12.4 12.4 0 0 1-2.5 4l-.9.6c-.3 0-.5 0-.7-.4l-.4-.6a68.5 68.5 0 0 1 1.9-4.7c.4-.9.9-1.5 1.4-2.1.4-.4.7-.6 1.2-.6zm10 4.2a1 1 0 0 0-.7.2 3 3 0 0 0-.7 1.2 85.3 85.3 0 0 0-2.2 8.7l-.2 2.7c0 .4.2.7.5.9l.9.4 1.2.2c.3 0 .5-.4.7-1a30 30 0 0 1 1.3-3.2 14.8 14.8 0 0 1 4.5-5.3c1-.7 2-1.1 3.1-1.3l.3.2h.5c.2.1.3 0 .4 0l.3-.3s0-.2-.2-.3l-.3-.2a1 1 0 0 0-.3-.2 5 5 0 0 0-2.3-.1 11.1 11.1 0 0 0-4.6 2.2l-1.7 1.5.7-2.5.6-2.5c0-.3-.1-.6-.5-.7l-.8-.4a2 2 0 0 0-.6-.1zM108 32h-.8l-.6.3s-.2.1-.2.3l-1.8 7.8c-.6 2.5-1 5.1-1.3 8a303 303 0 0 0-1.1 13.3l-.5.5c.2.7.4 1.3.7 1.6.3.3.9.5 1.6.6H105.2l.6-.3a64.6 64.6 0 0 0 .6-5l.2-4.7 1.1 1.8 1.3 2 1.6 1.6c.6.5 1.2.7 1.8.8h1.4l.3-.4v-.4l-2.2-2.5-1.9-2.8c.6-.2 1.1-.6 1.7-1a9.9 9.9 0 0 0 2.8-3.3 5 5 0 0 0 .6-1.8c.1-.7 0-1.2-.2-1.6-.3-.4-.7-.7-1.4-.8-.5 0-1 .1-1.6.4l-2 1.1a21.3 21.3 0 0 0-3 2.6l.1-1.8.5-3.9a105.7 105.7 0 0 1 1.5-7.2 14.6 14.6 0 0 0 .7-3.5v-.4a2 2 0 0 0-.8-.8 3.6 3.6 0 0 0-1-.2zm-8.5.3H99l-.6.1c-.2 0-.3.2-.5.3l-.2.4v.2a129.6 129.6 0 0 0-.9 7.8 346.1 346.1 0 0 1-2 14.2l-.3 3-.2 1.2-.1 1.2c0 .6.1 1 .5 1.2.4.3.9.4 1.4.5a3 3 0 0 0 1.5-.2c.4-.2.6-.6.6-1.2l.1-1.4.6-6 .8-6.1a245.8 245.8 0 0 0 1.4-13.9c0-.3-.1-.5-.3-.7-.2-.3-.5-.4-.9-.5zm97 0-.4.1a4 4 0 0 0-1.5.5c-.4.2-.7.6-1 1-.3 1-.4 1.9-.2 2.9l.8 3 .7 3c.2 1 0 2-.3 3-.2.6-.5.8-.7.8-.2 0-.4-.2-.5-.5l-.5-1-.3-1V44l-.4-.3a3.4 3.4 0 0 0-.7-.6l-.7-.2c-.4-.1-.6 0-.7.2-.1.5-.2 1 0 1.5.1.5.4 1 .8 1.6.3.5.7 1 1.2 1.4.4.4.9.7 1.3.9a4.4 4.4 0 0 0 2.5.3c.4 0 .7-.2 1-.5.4-.2.7-.6.8-1 .5-1.2.6-2.2.4-3.3a554.3 554.3 0 0 1-1.5-6.2c-.2-1-.2-1.8.2-2.6.1-.4.5-.7 1-.8a2.2 2.2 0 0 1 2.3.8l.7 1.1.6 1.1c.2.4.5.6.8.7h.5c.3-.1.4-.3.5-.5.2-.4.1-.8-.2-1.4-.2-.4-.5-.9-1-1.4-.4-.4-.9-.8-1.5-1a6 6 0 0 0-2.8-1.1l-1.2-.2zM62.4 36c-.4 0-.8.1-1 .3-.3.2-.5.4-.6.7l-.2 1v1.1a24.5 24.5 0 0 1-2.5.4l-1.4.4c-.4.1-.6.3-.5.5l.1.4.5.2.5.1h.4a12.7 12.7 0 0 0 2.8-.4 85.4 85.4 0 0 0-.4 14.1v2.3c.1 1 .2 1.8.5 2.7.2.9.5 1.6 1 2.2.4.6 1 1 2 .9h.5l.6-.2c.2 0 .4-.2.5-.3.2-.1.3-.3.2-.4 0-.3 0-.6-.3-1a3 3 0 0 1-.4-.8c-.4-1-.6-2-.7-3a65.2 65.2 0 0 1-.2-10.3L64 40h1l1.5-.3c.6 0 1-.2 1.3-.4.4-.2.6-.4.4-.7-.1-.3-.3-.5-.4-.5h-.7c-.5 0-1 0-1.5.2l-1.5.2V37.2l-.1-.5c-.3-.3-.5-.5-.7-.5l-.9-.2zm60 4.8c-.5 0-1 .2-1.3.5-.3.5-.6 1-.6 1.6l-.1.4.1.4.4.2.4.1h1c.2 0 .4 0 .5-.2l.5-.6.5-1v.1-.3l.3-.3c0-.3-.1-.4-.4-.5l-.6-.3h-.2l-.2-.1h-.3zm10 0-.8.1-.7.6c-.1.3-.3.6-.3 1l-.3 1a22.2 22.2 0 0 1-2.5 0h-1.4c-.4.1-.6.3-.6.4v.5l.4.2.5.3h.5l1.4.2h1.4a77.9 77.9 0 0 0-1.9 6.6l-.8 3.6-.6 3.6-.4 2.2v2.7c0 .9.2 1.7.5 2.4s1 1 1.8 1.3h1.1l.6-.1c.2-.1.3-.3.3-.5l-.1-.9-.3-.9c-.1-1-.2-2 0-3.2a65 65 0 0 1 1.8-10l1.6-6.7a26.3 26.3 0 0 0 2.5.2c.5 0 1 0 1.4-.2.4 0 .6-.3.5-.6 0-.3-.2-.5-.3-.5l-.7-.2h-1.5l-1.5-.2.1-.6.1-.7v-.5l-.5-.6c-.2-.2-.5-.3-.9-.3h-.3zm-60 5.6c-.9 0-1.7.2-2.4.6-.6.4-1.2 1-1.6 1.6a7 7 0 0 0-.9 2.2l-.3 2.4c0 .8.1 1.4.3 2.1.2.7.5 1.2.9 1.7s.9.9 1.5 1.2a6.2 6.2 0 0 0 4.8-.2c.8-.3 1.5-.9 2.2-1.6a6 6 0 0 0 1.4-2.3 7 7 0 0 0 .5-2.7c0-.7-.2-1.5-.6-2-.4-.7-.9-1.3-1.5-1.7l-2-1-2.2-.3zm13 .2c-.7 0-1.5.2-2 .6-.6.4-1.2.9-1.7 1.5-.4.6-.7 1.3-1 2.2l-.3 2.3c0 .7 0 1.5.2 2 .1.7.4 1.4.8 1.9.3.5.8.9 1.4 1.2a6.2 6.2 0 0 0 4.8 0c.8-.3 1.6-.8 2.2-1.5.6-.6 1.2-1.4 1.5-2.2.4-.8.6-1.7.6-2.7 0-.8-.1-1.5-.5-2-.4-.7-.9-1.3-1.5-1.8-.7-.5-1.3-.8-2.1-1a6.5 6.5 0 0 0-2.5-.6zm-13 1c.2.3.4.4.6.5l.5.2.5.1c.6.3 1 .7 1.3 1.2.3.5.4 1.1.4 2l-.1 1.8c-.1.7-.3 1.2-.6 1.8-.3.6-.7 1-1.1 1.4-.5.4-1.1.6-1.8.7-.4 0-.7 0-1-.4l-.5-1.2a12.3 12.3 0 0 1-.4-2.5 45.5 45.5 0 0 1 .3-3.6l.6-1.1 1.2-.8zm1.6.8zm47-.7a7 7 0 0 0-.5 0c-.4 0-.6.2-.7.5a46 46 0 0 1-1.2 3.4 15.8 15.8 0 0 0-1 4.6l.1 1 .3.7c.1.4.3.7.6 1a2.8 2.8 0 0 0 2 .3c.3 0 .5-.2.5-.5V55.3c.2-1.2.5-2.4.9-3.4l.9-3.3c0-.2 0-.2-.2-.3l-.2-.3-1-.3h-.4zm-35 .2.6.5.5.2.5.1c.6.4 1 .8 1.3 1.2.2.5.4 1.1.3 2 0 .5 0 1.1-.2 1.8a7 7 0 0 1-.7 1.8c-.3.6-.7 1-1.2 1.4-.5.4-1.1.6-1.8.7-.3 0-.6-.2-.8-.5l-.6-1.2a11.9 11.9 0 0 1-.3-2.5 41.7 41.7 0 0 1 .5-3.6c.1-.5.4-.8.7-1 .3-.3.7-.5 1.3-.7zm1.5.8zm25-.7c.4 0 .6.2.5.5l-.5 1-1.2 1.1c-.4.5-1 .9-1.5 1.2l-1.5 1-1.2.3 1.3-1.7 1.7-1.7 1.5-1.3c.5-.4.8-.5.9-.5zm-40 23c-4 0-8 .1-12 .4a1.8 1.8 0 0 0-1.6 2 1.8 1.8 0 0 0 2 1.5c16-1 31 .2 45 3.8a1.8 1.8 0 0 0 2-1.3 1.8 1.8 0 0 0-1.3-2c-11-2.9-22-4.3-34-4.4z" fill="currentColor"/></svg>