<svg xmlns="http://www.w3.org/2000/svg" viewBox="3 -2 190 76">
  <path d="M105.9-2a6 6 0 0 0-.6 0c-.3.1-.6.3-.8.7l-.2 1.2c-.2.7-.2 1.6-.3 2.7a244.6 244.6 0 0 1-1 6.8c0 1.1-.2 2.1-.3 2.9a32 32 0 0 0-.2 1.7c-.4-.5-1-.9-1.6-1a8 8 0 0 0-4.8-.1c-.8.2-1.5.7-2 1.2-.6.5-1 1.2-1.2 2.1a14.6 14.6 0 0 0-.5 5.3c.1.8.3 1.5.6 2.2a4.2 4.2 0 0 0 3.7 2.4c1.2.1 2.3-.2 3-1a9 9 0 0 0 2.2-2.5v1.6a76.4 76.4 0 0 0 .2 4.5c.1.7.3 1.1.5 1.2a3.7 3.7 0 0 0 3.7.3l.3-.5v-.3l-.3-.3c-.3-1.8-.5-3.7-.5-5.6A201 201 0 0 1 107.1 9c.4-2.8.8-5.8 1-8.7 0-.8 0-1.3-.2-1.6s-.7-.5-1.6-.5h-.5zm32.7 4h-.5l-.6.1-.3.4-2.4 7.6c-.8 2.4-1.5 5-2 7.8a303.4 303.4 0 0 0-2.2 13.2l-.5.4c0 .8.2 1.3.5 1.7.3.3.8.6 1.5.7a4.5 4.5 0 0 0 1.3 0l.6-.1c.2 0 .3-.2.4-.4l.7-4.6.6-4.5 1 1.9 1 2 1.5 1.8a3.6 3.6 0 0 0 2.2 1h.9l.3-.3.1-.5-2-2.7-1.6-3c.6 0 1.1-.3 1.8-.7a9.4 9.4 0 0 0 3-3c.4-.7.7-1.2.8-1.8.1-.7 0-1.2-.1-1.6-.2-.5-.7-.8-1.3-1-.5 0-1 0-1.7.3l-2 .9-1.9 1.1-1.3 1 .3-1.8a258.8 258.8 0 0 1 1.7-7.7l1.2-3.2a14 14 0 0 0 1.1-3.8 2 2 0 0 0-.8-.9L139 2a4 4 0 0 0-.5 0zM20.1 3l-.7.1-.8.3-.6.6c-.8 2.5-1.5 5-2.1 7.7L14 19.4a118.8 118.8 0 0 0-1.9-2.4l-1.4-2-1.5-1.9-1.1-1.5a9 9 0 0 0-.7-.7 1 1 0 0 0-.6 0H6a1 1 0 0 0-.6 0H5a2 2 0 0 0-.8.4l-.4.7c.7 2 1.2 3.8 1.5 6 .4 2 1 4 1.3 5.8l.8 5a42 42 0 0 0 1.1 4.9l.6.4h.6l.6-.1c.3 0 .6-.2 1-.4.3-.1.5-.4.5-.7 0-1-.3-2.1-.6-3.7l-1.1-4.7c-.4-1.6-.8-3.3-1.3-4.7l-1-3.8 2.8 3.8a120 120 0 0 1 2.7 4c.1.2.4.4.7.4h.8a7 7 0 0 0 1-.4c.3-.1.6-.3.7-.6.1-.6.3-1.2.3-2l.2-1.8a80.6 80.6 0 0 1 2.3-9l1 5.8a2949.7 2949.7 0 0 1 2 11.7 99.1 99.1 0 0 0 1.3 6l.2.3.2.2a4 4 0 0 0 3-.4c.3-.2.6-.5.7-.8a16 16 0 0 0-.7-4 377.3 377.3 0 0 1-2.8-13.3c-.6-3.1-1.2-6.2-2-9.2l-.4-1.3c0-.5-.2-1-.4-1.3a2 2 0 0 0-.8-1l-.5-.1zm133.3 3-.4.1-.5.1c-.2.1-.3.3-.3.4V7l-1 3.7-1.1 3.7-2 6.9-2.2 6.8-.8 3a192.7 192.7 0 0 0-.6 2.3c-.2.6 0 1 .3 1.3.3.4.8.6 1.3.7.6.2 1.1.2 1.5 0 .4 0 .7-.4.8-1l.4-1.4c.4-2 1-3.8 1.5-5.9l1.7-5.8a181.8 181.8 0 0 0 3.6-13.5c0-.3 0-.6-.2-.8-.2-.3-.4-.5-.8-.6l-.5-.1a4.4 4.4 0 0 0-.8 0zm-24.2 1.4c-.6 0-1 .1-1.4.5a3 3 0 0 0-.7 1.7v.7l.4.2.4.1h.3c.3.1.6.2.8.1l.5-.2.4-.6.5-1 .1-.2.2-.3c0-.3 0-.4-.3-.6l-.6-.3h-.7zm-99.5.9h-.4c-.6.1-1 .5-1.3 1-.2.5-.2 1-.1 1.8v.4s.1.2.3.2l.3.1h.8l.7-.2.4-.4.2-.7.2-1.1v-.6c0-.3-.1-.4-.4-.4l-.7-.1zm30 1.4h-.4a4 4 0 0 0-3 1.4c-.8.9-1.3 2-1.7 3.1a15 15 0 0 0-.8 3.8v3.3a8.7 8.7 0 0 0 1.7 5.1 5 5 0 0 0 2 1.5c.8.3 1.7.5 3 .4a6 6 0 0 0 2.3-.6 8 8 0 0 0 2-1.4 12.4 12.4 0 0 0 2.7-4l.2-.5.1-.5c0-.3-.2-.4-.4-.5h-.6c-.5 0-.9.3-1.3.9a83.3 83.3 0 0 1-3.2 4c-.6.5-1.1.8-1.9.9-.4 0-.8-.2-1.2-.6a7 7 0 0 1-1-1.6 12.1 12.1 0 0 1-.9-3.2h.6c.8 0 1.6-.4 2.3-.9a8.6 8.6 0 0 0 2.7-4.7c.2-.9.2-1.7.2-2.5-.1-1-.5-2-1.1-2.6a3 3 0 0 0-2.2-.8zm28.1.1c-.2 0-.5 0-.7.2-.3 0-.5.3-.6.6l-1.2 3.7c-.4 1.4-1 2.7-1.5 4a12 12 0 0 1-2.1 3.1c-.8.9-1.6 1.3-2.6 1.3-.5 0-.8-.2-1-.6-.3-.4-.5-1-.6-1.6a14.8 14.8 0 0 1 .2-6.2l.6-1.2c0-.3-.2-.5-.5-.6H77c-.3 0-.6 0-.8.2a2 2 0 0 0-.6.3l-.3.7L75 15a22.8 22.8 0 0 0-.3 2.4v2.4l.6 2.4c.3.7.7 1.2 1.3 1.7.6.5 1.4.7 2.4.7a5 5 0 0 0 2-.4 8.3 8.3 0 0 0 3-2.3l1.3-1.6a51 51 0 0 0-.5 6.2c0 .1 0 .3.2.4l.6.3a6 6 0 0 0 1.2.1c.6 0 1 0 1.3-.2.3-.1.4-.3.5-.6v-2.1a123.8 123.8 0 0 1 1-13.6l-.5-.5a2.5 2.5 0 0 0-1.2-.3zm-43.2.6h-.2c-.8.1-1.5.5-2 1.2a10 10 0 0 0-1.5 2.1 20 20 0 0 0-1.7 5L39 18c-.1-.5-.3-.8-.7-.8-.5-.2-1-.2-1.7 0a1 1 0 0 0-.5.2l-.4.5c-.1.2-.2.4-.1.7v.7a30.9 30.9 0 0 1 .4 3.5 48.5 48.5 0 0 0 1 3.9c.3.5.6 1 1 1.2.3.4.8.5 1.3.4h.6l.8-.3.7-.3c.1-.2.2-.3.1-.5a18 18 0 0 1-.6-9 10 10 0 0 1 1.2-3.1c.5-.8 1-1.3 1.6-1.4.6 0 1.2.3 1.5 1a37.8 37.8 0 0 1 1.7 6.6 71.1 71.1 0 0 0 1.5 6.7c.3.7.7 1 1.2 1l.3-.2.5-.2c.2 0 .4-.2.5-.3.2-.1.2-.2.2-.3 0-.4-.2-.8-.4-1.3a22.2 22.2 0 0 1-.9-3.4l-.5-3.2a74.7 74.7 0 0 0-1.7-6.8c-.4-1-.9-1.8-1.5-2.3-.4-.5-.9-.8-1.5-.8zm14 .6c.2 0 .4 0 .5.2l.2.6.2.7v2l-.1 1.6a17 17 0 0 1-.9 3 2 2 0 0 1-.7.8c-.2.2-.5.1-.8 0l-.6-.5a60.8 60.8 0 0 1 .3-5c.1-1 .3-1.8.6-2.5s.8-1 1.3-1zm52 1.5h-.7l-.1.4v.4l.2.7.2.6.2.5c.2 1 .3 2.1.3 3.2V22c0 1.2.2 2.3.5 3.5.2 1.1.7 2.2 1.4 3a3.2 3.2 0 0 0 2.8.8c.4 0 .6 0 .8-.3.4-.2.8-.8 1.2-1.5a23.7 23.7 0 0 0 2.5-5.6 68.5 68.5 0 0 0 2.4-8c0-.2 0-.4-.3-.5l-.8-.2h-.7c-.3 0-.5.1-.5.4a120 120 0 0 1-3.5 10.1l-1.5 2.8a8 8 0 0 1-.4-2l-.3-2.9-.3-3.1c0-1-.2-2-.5-2.9a7 7 0 0 0-.8-2.1 1.9 1.9 0 0 0-1.8-1h-.2zm-12 1h.1a3 3 0 0 1 2 .9c.6.5.9 1.2.8 2a14.7 14.7 0 0 1-3 7 4 4 0 0 1-1.8 1.6c-.5 0-.9-.3-1.2-.8a14.6 14.6 0 0 1-.7-6.6l.5-1.4c.1-.4.4-.8.7-1.1l1.2-1.2a5 5 0 0 1 1.3-.4zm28 .7h-.3c-.4 0-.6.2-.7.5l-1.3 3.4a16.3 16.3 0 0 0-1 4.6v1l.3.6c.1.5.3.8.6 1l1.1.4h.9c.3 0 .5-.2.6-.4V24a249 249 0 0 1 0-2.3c.2-1.2.5-2.4 1-3.4l1-3.4s0-.2-.2-.2l-.3-.3c-.2-.2-.6-.3-1-.4a4 4 0 0 0-.7 0zm-96.4 1h-.6l-1 .4c-.3.1-.5.4-.4.7l-.1 3.6a16.2 16.2 0 0 0 .6 4.6c0 .4.2.7.4 1l.4.5c.2.4.5.6 1 .7h1c.3 0 .5-.1.8-.3.4-.1.5-.3.5-.6l-.2-.2v-.3l-.2-.6-.4-1a14.9 14.9 0 0 1-.6-4.7c.1-1 0-2.3-.2-3.4 0-.1 0-.2-.2-.2l-.3-.1-.5-.1zm110.1 2.9c.4 0 .5.1.5.4 0 .3-.3.6-.6 1l-1.3 1a13.8 13.8 0 0 1-3.3 1.9c-.5.2-1 .2-1.2.2.3-.5.8-1 1.4-1.5l1.8-1.5a17.3 17.3 0 0 1 2.7-1.5zm20 1.5c-.8 0-1.5.1-2.1.5-1 .5-2 1.3-2.7 2.3-.8.9-1.5 2-2 3.2a19.7 19.7 0 0 0-1.6 6c0 1 0 1.8.3 2.5.3.8.7 1.5 1.3 2.2a7 7 0 0 0 2.6 1.3 6 6 0 0 0 2.4.2 10.9 10.9 0 0 0 4.4-1.9c.7-.5 1.3-1 1.9-1.7l.3-.2.3-.5c0-.3 0-.5-.2-.6l-.6-.3c-.4-.1-1 0-1.6.4l-2 1.4-2.2 1.3a3 3 0 0 1-2.2.2c-.4 0-.7-.4-1-1-.2-.5-.3-1-.3-1.7a16.3 16.3 0 0 1 .3-3.3l.5.1c.8.3 1.5.2 2.4-.1.8-.3 1.5-.8 2.3-1.4a8 8 0 0 0 1.8-2.2c.5-.7.8-1.5 1-2.2.3-1 .3-2 0-2.8-.4-.8-1.2-1.3-2.3-1.7a5 5 0 0 0-1.3-.2zm.6 1.3.3.1c.2.1.4.2.4.4v1.4a53.3 53.3 0 0 0-.7 1.9l-.7 1.4-1 1.5a3 3 0 0 1-.9 1c-.3.4-.6.6-.9.6-.3 0-.5 0-.7-.4l-.4-.6a61.4 61.4 0 0 1 2-4.7c.4-.8.9-1.5 1.4-2 .4-.4.8-.6 1.1-.6zm9.6 4.5a1 1 0 0 0-.7.2 74.2 74.2 0 0 0-3 9.9l-.3 2.7c0 .4.2.7.5.9l.9.3 1.2.3c.3 0 .5-.4.7-1 .4-1 .8-2.2 1.4-3.2a15.7 15.7 0 0 1 4.6-5.2c1-.7 2-1 3.1-1.3l.4.2.4.1.5-.1.2-.2-.1-.3a1 1 0 0 0-.4-.3 1 1 0 0 0-.2-.2c-.7-.2-1.5-.3-2.3-.1-.8.1-1.6.4-2.4.7-.7.4-1.5.8-2.2 1.4l-1.7 1.4a51 51 0 0 1 1.3-5c0-.4-.1-.6-.4-.8l-.9-.4-.6-.1zm11.3 8.8c-.3 0-.5.1-.5.3v.5l.4.4.5.2.6.2.7.3c.3 0 .5.2.8.3l2.3 1 2.4 1 .5.2a4.5 4.5 0 0 0 1.7.3c.2 0 .4-.2.5-.4 0-.3 0-.6-.5-.9-.3-.3-.7-.5-1-.6l-2.3-1a44.5 44.5 0 0 0-6-1.8zM4.1 35.4h-.4l-.5.1-.5.3c-.2 0-.4.2-.5.3l-.1.4.4 8a60 60 0 0 0 1 8L4.7 59l1.5 6.6-.3.5a3 3 0 0 0 1 1.3c.4.3 1 .3 1.9.2 0 0 .3 0 .5-.2l.6-.2.6-.4.1-.5-1-4.5-1.1-4.5 1.5 1.4c.6.6 1.3 1 1.8 1.6l2 1a3.6 3.6 0 0 0 2.3.2l.5-.2.4-.2c.2-.1.2-.3.2-.4v-.4c-1-.6-2-1.2-2.8-1.9l-2.7-2.1c.5-.4 1-.8 1.4-1.4a9.2 9.2 0 0 0 1.8-4V49c-.1-.6-.3-1.1-.7-1.4-.3-.4-.8-.5-1.6-.4-.4.1-.9.4-1.4.8l-1.6 1.6-1.3 1.8-1 1.4-.3-1.7-.6-3.9a107.7 107.7 0 0 1-.6-7.3 14.7 14.7 0 0 0-.3-3.7v-.4a2 2 0 0 0-1.5-.5zm93.2 1c-.3 0-.5.2-.8.3l-.6.6-.3 1-.1 1-1 .1a15.9 15.9 0 0 0-3 .3c-.3 0-.5.2-.6.4 0 .2 0 .3.2.5l.4.2.4.2h.5a12.1 12.1 0 0 0 2.8 0 99 99 0 0 0-1.3 6.6l-.5 3.7-.3 3.6c0 .6 0 1.3-.2 2.3l.1 2.7c.2 1 .4 1.7.8 2.4s1 1 1.8 1h1.1c.3 0 .5 0 .6-.2.2 0 .3-.2.3-.4 0-.3 0-.6-.2-1a3 3 0 0 1-.4-.8c-.2-1-.3-2-.3-3.2a64.9 64.9 0 0 1 1-10.1l1-6.8h2.6c.6 0 1-.2 1.3-.3.4-.2.6-.4.5-.7-.1-.3-.3-.5-.4-.5H99v-.7l.1-.7v-.5l-.6-.6-.9-.2h-.3zm-15.5 5.8c-1 0-2 .4-2.7 1a15.2 15.2 0 0 0-3.3 6.4c-.2 1.4-.4 2.5-.4 3.4l.1 2.8c.2 1 .5 1.8 1 2.5.4.7 1 1.3 1.7 1.8.8.4 1.8.6 2.8.7 1 0 1.8 0 2.5-.3a8 8 0 0 0 2-1.2c.7-.5 1.4-1 1.8-1.6l1.5-2c0-.2.2-.3.3-.4l.1-.5c0-.3 0-.5-.3-.5l-.7-.2c-.4 0-.8.3-1.3.8l-1.7 1.8-1.8 1.7a3 3 0 0 1-2.1.7c-.5 0-.9-.2-1.1-.7-.4-.4-.6-1-.8-1.6a15.3 15.3 0 0 1-.5-3.4h.6c.8.1 1.6-.1 2.3-.6a6 6 0 0 0 1.9-1.9 10.2 10.2 0 0 0 1.8-5c0-1-.2-2-.7-2.7-.5-.7-1.4-1-2.5-1a5 5 0 0 0-.5 0zm-23.1.8c-.7 0-1.2.1-1.4.4-.2.3-.4.8-.4 1.4l.1 3 .1 4.1.3 4.7.4 4.6a93 93 0 0 0 1 7c.1.3.4.6.8.7a6.2 6.2 0 0 0 1.7 0h.6l.6-.3.2-.5c0-.7 0-1.7-.2-2.8a186.5 186.5 0 0 0-.6-7v-3a9 9 0 0 1 .2-2.7l1-3.2c.4-1 1-2 1.6-2.6.7-.7 1.3-1 2.1-1.1.5 0 1 .2 1.3.7l.8 1.6.4 2 .2 1.8a4.4 4.4 0 0 1-1.3 2.9l-1.4 1-1.2.3c-.2 0-.4 0-.6-.2a10 10 0 0 1-.6-.6c-.2-.3-.5-.4-1-.4l-.6.1c-.3 0-.5.2-.5.4.3.8.7 1.3 1.3 1.5.6.3 1.3.4 2 .4.9 0 1.7 0 2.5-.2a6 6 0 0 0 2.2-1c.6-.4 1-1 1.5-1.8a7 7 0 0 0 .6-3c0-.9-.1-1.7-.3-2.5-.2-.8-.5-1.6-1-2.2-.4-.7-1-1.2-1.6-1.5a4 4 0 0 0-2.5-.7c-.7 0-1.4.2-2 .5l-1.6 1-1.4 1.5-1.1 1.6a14 14 0 0 1-.3-2.3v-2.4c0-.5-.3-.9-.6-1a2 2 0 0 0-1.1-.3zm23 .5h.2c.2 0 .4.1.4.3l.2.6v1.4l-.1 1.3-.4 1.6a14.3 14.3 0 0 1-1.2 2.8 2 2 0 0 1-.8.7c-.2.1-.5 0-.8-.2l-.5-.5a83 83 0 0 1 .8-5l1-2.3c.3-.6.7-.8 1.2-.8zm26 .8c-1 0-2 .2-2.8.8-.9.7-1.6 1.6-2.2 2.8-.6 1-1.1 2.2-1.5 3.4l-.7 3.3v3c0 .8.3 1.6.7 2.4.4.7 1 1.4 1.7 1.8a6 6 0 0 0 2.8 1 6 6 0 0 0 2.4-.2c.8-.2 1.5-.5 2.2-1l2-1.6a15 15 0 0 0 2-2.6c0-.3 0-.5-.3-.6a2 2 0 0 0-.6-.2 2 2 0 0 0-1.5.6l-1.7 1.7-2 1.6a3 3 0 0 1-2 .6c-.5 0-.9-.3-1.2-.8a7 7 0 0 1-.6-1.6 14.9 14.9 0 0 1-.2-3.4l.5.2c.9 0 1.6-.1 2.4-.6.7-.4 1.4-1 2-1.7a10.3 10.3 0 0 0 2.2-4.7c.1-1.1 0-2-.5-2.8-.5-.7-1.3-1-2.5-1.3h-.5zm-59.2.3h-.3c-.7 0-1.2.3-1.7.8-.4.5-.7 1-.9 1.8l-.4 2-.3 2a5 5 0 0 0-1-1.7 8.6 8.6 0 0 0-3.1-2.4 4 4 0 0 0-1.8-.3 7 7 0 0 0-2.2.6c-.6.3-1.1.8-1.6 1.4l-.2-2.2c0-.2 0-.4-.2-.5l-.5-.2a4.3 4.3 0 0 0-1-.1c-.6 0-1 .2-1.3.5-.2.2-.4.5-.4 1v1.1l.1 1.3.2 2.2a38.3 38.3 0 0 0 .9 5.2c.2.9.5 1.5.8 2 .2.3.5.5.9.5h1c.7 0 1.2-.3 1.3-.7.3-.4.4-.9.4-1.5a8 8 0 0 0-.2-1.8l-.2-1.7-.1-1.8c0-.7 0-1.3.2-1.9.1-.6.4-1.2.7-1.6a2 2 0 0 1 1.3-.7c.5 0 1 0 1.4.4a10.3 10.3 0 0 1 2.3 3l1 1.7c.3.5.6 1 1 1.3.2.3.6.4 1 .4.3 0 .6-.2.8-.6a17.3 17.3 0 0 0 .5-3.3 32.2 32.2 0 0 1 .3-3.2c.1-.4.4-.6.7-.7.2 0 .5.2.7.7l.5 1.6.4 2.2a41.9 41.9 0 0 1 .5 5l.2 1.7c0 .5.2.9.5 1h1.7a2.8 2.8 0 0 0 1-.4l.1-.4-.1-2.1a34.6 34.6 0 0 0-2-9c-.3-.9-.8-1.6-1.4-2-.5-.5-1-.7-1.7-.7zm59.1 1h.4c.2 0 .4.2.4.3l.1.6V48l-.3 1.3-.5 1.6a15 15 0 0 1-1.4 2.8 2 2 0 0 1-.8.6c-.3.1-.5 0-.8-.2l-.5-.6.4-2.2.8-2.7a9 9 0 0 1 1.1-2.2c.4-.5.7-.7 1.1-.8zm20 .8c-.5 0-1.1.2-1.6.6a11.2 11.2 0 0 0-4 3.7l-1.2 2v-.6c0-.5-.1-.8-.5-1-.3-.3-.8-.4-1.5-.5a1 1 0 0 0-.7 0l-.5.4-.3.6-.2.7a45.8 45.8 0 0 1-.6 3.5 60.7 60.7 0 0 0-.3 4c.1.7.3 1.2.5 1.6.3.4.7.7 1.2.8h.6a8.2 8.2 0 0 0 1.5 0c.2 0 .3-.2.3-.4a16.8 16.8 0 0 1 2-8.8c.7-1.1 1.3-2 2.1-2.6.7-.6 1.4-.9 2-.8.6.1 1 .6 1.2 1.4a39.2 39.2 0 0 1-.4 6.8 93 93 0 0 0-.6 6.8c0 .8.4 1.2.9 1.2h.9l.5-.2c.2 0 .3-.2.3-.3V64a13.9 13.9 0 0 1 .2-3.5 69.4 69.4 0 0 0 .8-10.2c0-1-.3-2-.6-2.7-.3-.7-.8-1.2-1.5-1.2h-.5zM24 48.8h-.7a4 4 0 0 0-2.3 1c-.6.4-1 1-1.4 1.7-.3.7-.5 1.5-.6 2.3v2.4c.1.7.3 1.4.6 2l1 1.7a4.9 4.9 0 0 0 3.7 1c1-.1 2-.4 2.7-.9a7.4 7.4 0 0 0 3-4.2 5 5 0 0 0 .2-2.7c0-.8-.4-1.4-.9-2-.5-.6-1-1-1.7-1.3-.7-.4-1.5-.6-2.2-.7l-1.4-.2zM13 50c.1 0 .2 0 .3.3 0 .2 0 .6-.2 1l-.8 1.6-1.1 1.6-1.2 1.3c-.4.4-.8.6-1 .6 0-.5.4-1.1.7-2l1.2-2 1.1-1.7.7-.8h.3zm11 .1.6.4.5.1h.5c.6.3 1.1.6 1.5 1 .4.5.6 1.1.7 1.8v2a6 6 0 0 1-.3 1.8c-.2.6-.5 1-1 1.6a4 4 0 0 1-1.6 1c-.3 0-.6-.1-1-.4a5.5 5.5 0 0 1-1.2-2.4 14.4 14.4 0 0 1-.4-4.7c.1-.5.3-.8.5-1.1a3 3 0 0 1 1.2-1zm1.6.6zm115.3 1-1.8.3a6 6 0 0 0-2.3 1.4c-.7.7-1.3 1.4-1.8 2.4l-1 2.7c-.2 1-.2 2-.2 3a7 7 0 0 0 .8 2.6c.4.7 1 1.4 1.7 2a10.2 10.2 0 0 0 9.4.2 4 4 0 0 0 1.6-1.4v-.1c0-.3 0-.4-.2-.5l-.7-.2c-.5-.1-1 0-1.5.1l-1.7.8-1.7.7c-.6.2-1.2.2-1.8 0a2 2 0 0 1-1.7-1c-.3-.5-.6-1-.8-1.7a8.9 8.9 0 0 1 .5-5.5l.9-1.7c.3-.6.7-1 1.1-1.5.4-.5.9-.8 1.3-1 .4-.2.9-.3 1.3-.1.5.1 1 .5 1.3 1.2l.4.7a14.4 14.4 0 0 1 .7 1.4v.2h.8c.3-.1.4-.3.5-.7 0-.5 0-1-.2-1.5s-.6-.9-1-1.2l-1.4-.8a7.2 7.2 0 0 0-2.7-.7zm16.9 2.3a4 4 0 0 0-2 .6c-1 .6-1.8 1.3-2.6 2.3-.7 1-1.5 2-2 3.2-.5 1.2-.8 2.3-1 3.1-.4 1-.5 2-.6 3 0 .8.1 1.7.4 2.5.3.7.8 1.4 1.4 2a5 5 0 0 0 2.6 1.4c.8.2 1.6.3 2.3.2a11.4 11.4 0 0 0 6.2-3.6c.2 0 .3-.2.4-.3l.3-.4c0-.3 0-.5-.2-.6l-.6-.3c-.4-.1-1 0-1.6.4l-2 1.5-2.2 1.3a3 3 0 0 1-2.2.3c-.4-.2-.7-.5-1-1L153 68a15.2 15.2 0 0 1 .3-3.4l.5.2a4 4 0 0 0 2.4-.2c.8-.3 1.6-.8 2.2-1.4.8-.6 1.4-1.4 1.8-2.2.5-.7.9-1.5 1-2.2.3-1 .3-2 0-2.8a3.8 3.8 0 0 0-2.4-1.6 5 5 0 0 0-1.3-.2zm.6 1.4.4.1c.2 0 .3.2.3.4v1.4l-.2.6c0 .3-.2.8-.5 1.3l-.7 1.4a17.7 17.7 0 0 1-1.7 2.6 2 2 0 0 1-1 .5c-.2 0-.5 0-.7-.4l-.4-.6a52.9 52.9 0 0 1 1.9-4.7 8 8 0 0 1 1.5-2c.3-.5.7-.6 1.1-.6zm9.7 4.2a1 1 0 0 0-.8.3c-.3.3-.5.7-.7 1.3a128.7 128.7 0 0 0-2.1 8.7c-.2 1-.2 1.9-.2 2.7 0 .4.1.7.4.8l1 .4c.5.2 1 .3 1.1.2.3 0 .6-.3.8-.9a18.7 18.7 0 0 1 3.3-6.3c.7-1 1.5-1.7 2.5-2.3 1-.7 2-1 3.1-1.3l.3.2.5.1.4-.1c.2 0 .3-.1.3-.2s0-.2-.2-.3a1 1 0 0 0-.3-.3.9.9 0 0 0-.3-.2c-.7-.2-1.4-.2-2.3 0a11.9 11.9 0 0 0-4.5 2.1l-1.7 1.4.7-2.5.5-2.6c0-.3 0-.5-.4-.7l-.8-.4-.6-.1zM88.3 65c-4.9 0-10 .2-15 .7a1.8 1.8 0 0 0-1.6 1.9 1.8 1.8 0 0 0 1.8 1.6c16.2-1.6 31.2-.6 46 2.7a1.8 1.8 0 0 0 2-1.3 1.8 1.8 0 0 0-1.2-2.1A133.6 133.6 0 0 0 88.6 65z" fill="currentColor" />
</svg>
