<svg xmlns="http://www.w3.org/2000/svg" viewBox="2 -2 261.6 108.4">
  <path d="M140.3-4.5h-.5c-.3 0-.5.2-.6.6l-.8 3.2a158.6 158.6 0 0 0-1.5 12.9v4.6c.1 1.6.4 3 .7 4.6.2.7.4 1.2.7 1.6.3.3.8.5 1.6.6h1.1l.5-.3.2-.4-.1-1-.4-1.1-.3-1-.1-1a37.9 37.9 0 0 1 .8-4.8 9 9 0 0 1 1-2.2c.4-.7 1-1 1.6-1 .5 0 1 .3 1.3.8l.8 1.6a10 10 0 0 1 .1 5.7 21 21 0 0 1-2.2 5.7c-.5.8-1 1.4-1.7 1.6l-.6.1c-.3 0-.4.2-.4.4l.1.5.6.4.7.2h.5a3 3 0 0 0 1.8-.5c.6-.3 1.1-.8 1.6-1.4l1.2-2.1a21.2 21.2 0 0 0 1.7-6.7c0-.9 0-1.7-.2-2.6-.2-.9-.5-1.7-.9-2.4a5 5 0 0 0-4.3-2.4c-.7 0-1.4 0-2.1.3a4 4 0 0 0-1.7 1.4c.1-2.5.4-5 .9-7.4.4-2.4.7-4.8.8-7.3 0-.5-.1-.8-.4-1l-1-.3h-.5zm-79 8.2-.4.1c-.1 0-.3 0-.5.2l-.5.2-.5.4v.7a205.2 205.2 0 0 0 1.4 7.6A287.9 287.9 0 0 1 63.1 27l.5 3a139.8 139.8 0 0 0 .4 2.4c.2.6.4.9 1 1 .4.2.9.2 1.4 0 .6 0 1-.3 1.4-.6.3-.2.4-.7.2-1.3l-.3-1.4-1.2-5.9-1-6a230.6 230.6 0 0 0-2.7-13.7l-.5-.6c-.3-.2-.6-.2-1-.2Zm46 4.7c-1.2 0-2.2.5-3 1.4-.7.8-1.3 1.9-1.7 3-.5 1.2-.7 2.4-.9 3.7V20c0 1 .2 1.9.4 2.8.3.9.7 1.7 1.2 2.3.5.7 1.2 1.2 2 1.5a6 6 0 0 0 3 .5 6 6 0 0 0 2.3-.7c.7-.3 1.4-.8 2-1.3L114 23a20.6 20.6 0 0 0 1.6-3c0-.3-.2-.5-.4-.5l-.7-.1c-.4 0-.8.3-1.3 1a413.4 413.4 0 0 0-3.1 3.8 3 3 0 0 1-2 1c-.4 0-.8-.2-1.2-.6L106 23a14.6 14.6 0 0 1-.8-3.2h.5c.9 0 1.6-.4 2.3-1 .6-.5 1.2-1.2 1.6-2a10 10 0 0 0 1.3-5 4 4 0 0 0-1-2.7c-.6-.6-1.5-.9-2.7-.8zm0 1.3h.1c.3 0 .4.1.5.3l.3.5v.8l.1.6v1.3a11.7 11.7 0 0 1-.6 3.3 6 6 0 0 1-.5 1.4 2 2 0 0 1-.6.8 1 1 0 0 1-.8-.1l-.7-.5a77.2 77.2 0 0 1 .3-5 9 9 0 0 1 .7-2.4c.3-.6.7-1 1.1-1zm-23.1 2.2c-.7 0-1.1.3-1.3.6-.2.3-.3.8-.2 1.4a144.4 144.4 0 0 0 2.8 16.3 95.2 95.2 0 0 0 1.8 6.6c.2.4.5.7.9.7a6 6 0 0 0 1.7-.1l.6-.2.5-.4.2-.4-.5-2.8a200 200 0 0 0-1.5-7l-.5-2.7v-2.8l.6-3.3c.3-1 .7-2 1.3-2.7.5-.9 1.2-1.3 2-1.4.5 0 1 0 1.3.5.4.4.8 1 1 1.6l.7 2 .4 1.7c0 .5 0 1-.3 1.6a4.8 4.8 0 0 1-1.9 2.6 3 3 0 0 1-1.2.5c-.2 0-.4 0-.7-.2l-.6-.5c-.2-.3-.6-.3-1-.3a5 5 0 0 0-.7.2c-.3 0-.4.2-.4.5.4.7.9 1.2 1.5 1.4a5 5 0 0 0 2 .1l2.4-.5c.8-.3 1.4-.7 2-1.2a5 5 0 0 0 1.3-2c.3-1 .3-2 .2-3.2a8.4 8.4 0 0 0-1.8-4.4 4.9 4.9 0 0 0-4.4-1.7c-.7 0-1.4.3-2 .6L89 14.3a10 10 0 0 0-2 3.4 13 13 0 0 1-.6-2.3l-.4-2.5c0-.5-.3-.8-.6-1h-1.1zm34.1-1.4c-.5 0-.8.2-1 .6a103.8 103.8 0 0 0 .4 10.3l.7 2.6c.2.4.4.6.7.7h1l1.3-.1c.2-.2.4-.5.4-1.1 0-1.2 0-2.4.2-3.6a18 18 0 0 1 1-3.5c.3-1 .9-2 1.6-3a8 8 0 0 1 2.5-2.2l.4.1h.4c.2 0 .3-.2.4-.3l.2-.3c0-.1-.1-.2-.3-.2a1 1 0 0 0-.4-.2 1 1 0 0 0-.3 0c-.7 0-1.5.1-2.2.5a12.5 12.5 0 0 0-4.7 5.5l-.3-2.6c0-1 0-1.8-.2-2.6 0-.3-.3-.5-.6-.5a4.2 4.2 0 0 0-1.2-.1zm63.8-4.6-.5.1c-.3.1-.5.3-.7.6-.2.2-.3.5-.4 1l-.2 1a23.1 23.1 0 0 1-2.5-.2l-1.4.1c-.4 0-.7.2-.7.4v.4l.5.3.4.2h.5c.4.2.9.2 1.3.3h1.4a70.2 70.2 0 0 0-3.4 13.7c0 .6-.2 1.3-.4 2.2-.1 1-.2 1.8-.1 2.7 0 1 .2 1.7.5 2.4s.9 1.2 1.7 1.3h1.7l.4-.5c0-.3 0-.6-.2-.9l-.2-1c-.1-1-.2-2 0-3.1a67 67 0 0 1 2-10l1.6-6.7a24 24 0 0 0 2.5.2l1.4-.1c.4-.1.6-.3.5-.7 0-.3-.2-.5-.3-.5l-.7-.1a9 9 0 0 0-1.5-.2h-1.5l.2-.7V6.9c0-.3-.3-.6-.5-.7l-.8-.3h-.6zM51.6 17.7a5 5 0 0 0-.8.2 4 4 0 0 0-2.6 2c-.6 1-1 2-1.1 3.3a22.4 22.4 0 0 0 .6 7c.2 1 .5 2 1 2.7.4.9 1 1.5 1.6 2 .7.6 1.4 1 2.3 1.2a6 6 0 0 0 2.9-.2 6 6 0 0 0 2.2-1l1.6-1.8c.5-.7.9-1.4 1.2-2.2a20.6 20.6 0 0 0 .9-3.3c-.1-.2-.3-.4-.5-.4h-.7c-.4.2-.7.6-1 1.2a410.3 410.3 0 0 0-2.3 4.5 3 3 0 0 1-1.7 1.3c-.4.1-.9 0-1.3-.3l-1.3-1.3a14.6 14.6 0 0 1-1.4-3l.5-.2c.8-.2 1.5-.6 2-1.3.6-.7 1-1.5 1.2-2.4a10 10 0 0 0 .3-5.2 4 4 0 0 0-1.6-2.4 3 3 0 0 0-2-.4Zm22.6-1.3a4.4 4.4 0 0 0-2.7 1.1c-.6.6-1 1.2-1.3 2-.3.6-.5 1.4-.5 2.3l.1 2.3c.1.8.4 1.4.7 2a4 4 0 0 0 1.2 1.6c.4.4 1 .7 1.6.9a6.3 6.3 0 0 0 4.7-1c.8-.6 1.4-1.3 1.8-2a6 6 0 0 0 1-2.5c.2-1 .2-1.8 0-2.8 0-.7-.4-1.4-1-2-.4-.5-1-1-1.7-1.2a7 7 0 0 0-2.3-.6c-.6-.1-1.1-.1-1.6 0zm-23 2.7c.2 0 .4 0 .5.2l.4.5.3.7.1.6.3 1.3a11.7 11.7 0 0 1 0 3.4l-.1 1.4a2 2 0 0 1-.5 1c-.2.1-.5.1-.8 0l-.7-.4a79.8 79.8 0 0 1-.8-5c0-1 0-1.7.2-2.4.2-.8.6-1.2 1.1-1.3zM74 17.8l.6.3h.6l.5.1a3 3 0 0 1 1.5 1c.4.4.6 1 .8 1.7l.1 1.9a5.7 5.7 0 0 1-1 3.4c-.5.5-1 .8-1.7 1-.3.1-.6 0-1-.3a5.7 5.7 0 0 1-1.3-2.3 45.3 45.3 0 0 1-.7-4.7l.5-1.2 1-1zm1.7.4h-.1zM-.1 24.8a10 10 0 0 0-5.6 2.5 3 3 0 0 0-1 .3c-.5.3-.9.6-1 1-.1.5 0 1.1.5 2A163.9 163.9 0 0 0 0 43.3a329 329 0 0 1 8 13.1h.7l.7-.2a5.6 5.6 0 0 0 1.2-.6l.5-.5c.2-.2.3-.3.3-.6l-.1-.6v-.2a9 9 0 0 0 2-2.6c.5-1.1 1-2.2 1.3-3.5a23.4 23.4 0 0 0 .8-7 8 8 0 0 0-.8-3.4 22.5 22.5 0 0 0-5-8.2 14 14 0 0 0-4.5-3.4c-1.6-.8-3.4-1-5.2-1Zm162.7-13-.6.3c-.2.2-.4.6-.5 1.1a40.4 40.4 0 0 1-3.2 9.6c-.5.7-1 1-1.5 1-.2 0-.5-.4-.6-1a17 17 0 0 1-.6-5.2c0-1 0-1.7.2-2.4 0-.5 0-.9-.4-1-.2-.3-.6-.5-1.2-.6-.3 0-.6 0-.8.2-.2 0-.4.3-.4.7l-.1 1.8-.2 2.3V21c0 .8.2 1.6.4 2.3.2.6.6 1.2 1 1.6.5.5 1 .7 1.8.8.6 0 1 0 1.5-.2a5 5 0 0 0 1.2-.7l1-1.1.8-1.3a60.6 60.6 0 0 0-.4 6.4 62 62 0 0 1-.7 6v.3c-.1.2 0 .4.1.6l.5.3.8.3h.6a3 3 0 0 0 1.6 0c.4-.3.6-.7.7-1.5v-1.1l.1-2 .8-12.4a48.2 48.2 0 0 1 .3-4.6c0-.7 0-1.4-.3-2-.3-.5-.7-.8-1.3-.9h-.6zM42.1 22.2c-.2 0-.4 0-.6.2l-.7.3c-.2.1-.3.3-.3.6a110.7 110.7 0 0 1 1.3 10.5l-.1 3.2c-.4-.3-.8-.9-1.3-1.6a825.7 825.7 0 0 1-4.7-7.4 6.6 6.6 0 0 0-1.8-1.6 1.9 1.9 0 0 0-2-.2l-.4.3c-.2 0-.3.2-.4.3v.3l.1.4a11.7 11.7 0 0 0 1 1l.3.4a15 15 0 0 1 1.8 2.8l1.6 3.2c.5 1 1.2 2 1.9 3s1.6 1.6 2.6 2c.7.2 1.3.2 2.1 0l.7-.4c.4-.2.6-.4.7-.6l.4-2v-2.8a48.3 48.3 0 0 0-1.5-11.5c0-.2-.3-.4-.5-.4H42zm-43.2 4.4c1 0 2 .1 3 .6 1.2.5 2.2 1.1 3.2 2a24.3 24.3 0 0 1 6.1 9.9 17.4 17.4 0 0 1 .4 8.4c-.3 1.4-.9 2.8-1.6 4.1-1.6-3-3.3-5.8-5-8.6a583.5 583.5 0 0 1-9.4-15l.2-.2.2-.1a11 11 0 0 1 2.3-1h.5zm24.3 1c-.5 0-1 .2-1.5.4-1.2.5-2 1.2-2.4 2.3-.5 1-.7 2.2-.7 3.4 0 1.3.1 2.5.4 3.8.3 1.3.7 2.3 1 3.2l1.4 2.5a8 8 0 0 0 1.9 1.8c.7.5 1.5.7 2.4.8a6 6 0 0 0 2.9-.5A7.3 7.3 0 0 0 32 42c.4-.7.7-1.5.9-2.3a20.6 20.6 0 0 0 .5-3.4c-.2-.2-.3-.4-.6-.3l-.6.1c-.4.2-.7.6-1 1.3a426.6 426.6 0 0 0-1.6 4.7 3 3 0 0 1-1.5 1.5c-.5.2-1 .2-1.4-.1-.5-.3-1-.7-1.4-1.2a14.6 14.6 0 0 1-1.8-2.8l.5-.2c.8-.3 1.4-.8 1.8-1.6a7 7 0 0 0 1-2.5 10 10 0 0 0-.5-5.2 4 4 0 0 0-1.8-2.1 3 3 0 0 0-1.3-.3zm-.8 1.6h.3l.5.5.3.7.3.6.4 1.3a11.7 11.7 0 0 1 .5 3.2V37c0 .4-.2.7-.4 1-.2.2-.5.2-.8.1l-.7-.2a79.6 79.6 0 0 1-1.4-4.9 9 9 0 0 1-.1-2.5c0-.7.4-1.2 1-1.3zm167.5-12.3a1 1 0 0 0-.7.4c-.3.3-.5.7-.6 1.2a103.7 103.7 0 0 0-1.5 9V30c0 .4.2.7.5.8l1 .3c.6.2 1 .2 1.2.1.3 0 .6-.3.7-1l1-3.3a18 18 0 0 1 1.8-3.2 11 11 0 0 1 2.3-2.5 8 8 0 0 1 3-1.5l.3.1.5.1c.2 0 .3 0 .4-.2.2 0 .3-.1.3-.2s0-.2-.2-.3a1 1 0 0 0-.4-.2 1 1 0 0 0-.2-.2c-.8-.2-1.5-.1-2.4 0l-2.3 1A12.6 12.6 0 0 0 191 23l.5-2.5.3-2.6c0-.3-.1-.5-.4-.7l-1-.3h-.5zm43.9-2.2a1 1 0 0 0-.7.4l-.5 1.1-1 2.4a246.8 246.8 0 0 1-4.6 10.6c-.3-.6-.8-1-1.3-1.4a8 8 0 0 0-4.7-1.4 5 5 0 0 0-4 2.3l-1.2 2.6-.6 2.3c-.1.8-.2 1.6 0 2.3 0 .8.3 1.4.8 2 .4.6 1.1 1 2 1.4 1.2.4 2.3.4 3.3 0a9 9 0 0 0 2.7-2l-.4 1.5a79.9 79.9 0 0 0-1 4.4c-.1.7 0 1.1.1 1.3.4.5 1 .9 1.6 1.1.7.3 1.3.3 2 .2l.4-.3V45l-.1-.3c.1-1.9.5-3.8 1-5.6a201.1 201.1 0 0 1 5.2-13.6c1.2-2.6 2.4-5.4 3.3-8.1.3-.8.4-1.3.3-1.7 0-.3-.5-.6-1.3-.9l-1-.2h-.3zm-28.1 6.9-.6.1a6 6 0 0 0-2.3 1 7 7 0 0 0-1.7 1.9 12.5 12.5 0 0 0-1.4 7.3c.2.8.5 1.5 1 2.2.4.7 1 1 1.9 1.3a3.7 3.7 0 0 0 3.1-.4l1.3-1 1-1.4c0 .5 0 1-.2 1.4l-.1 1.2c0 .3.2.7.4 1l1.2.6h.5l.6.1c.2 0 .4 0 .6-.2l.3-.4v-7.9h.2c.3.2.6.2.7 0 .2-.1.3-.4.4-.7a3 3 0 0 0 0-2c-.3-.6-.7-1.2-1.3-1.7a7.7 7.7 0 0 0-3.6-2.1c-.7-.3-1.4-.4-2-.3zm1.2 1.4h.2l.3.1h.4l1 .6 1 1 .8 1.1.4 1.1-1-.5c-.6-.2-1.2 0-1.7.6s-1 1.3-1.4 2.1l-1.7 2.6c-.6 1-1.3 1.6-2 2.1-.3-.4-.5-1-.6-1.4a10.5 10.5 0 0 1 0-3.3 15.8 15.8 0 0 1 .8-3l1-1.5c.3-.5.7-.8 1.2-1.1a3 3 0 0 1 1.3-.5zm15 4.7a5.3 5.3 0 0 1 1.5 0 3 3 0 0 1 1.7 1.5c.4.7.4 1.4.2 2.2l-1 2a14.4 14.4 0 0 1-3.8 4 6 6 0 0 1-2.1.8c-.5-.2-.8-.5-.9-1v-1.8a14.2 14.2 0 0 1 1.2-4.8l.7-1.2 1-.9 1.5-.8zM110.4 38.2c-12 1-23.5 2.8-33.7 4.7a1.8 1.8 0 0 0-1.4 2 1.8 1.8 0 0 0 2 1.5c28.8-5.5 68.1-9.2 97.8-.3a1.8 1.8 0 0 0 2.2-1.2 1.8 1.8 0 0 0-1.1-2.2c-11.6-3.5-24.4-5-37.4-5.4-9.5-.3-19.1 0-28.4.9zm130-7.8-1.2.3c-1 .4-2 1-3 2-.8.8-1.6 1.7-2.4 2.8-.6 1.1-1.2 2-1.5 3l-.9 2.7c-.2 1-.2 1.8 0 2.6s.5 1.6 1 2.2a6 6 0 0 0 2.5 1.8c.8.3 1.6.5 2.3.5l2.4-.3 2.2-1a20.6 20.6 0 0 0 2.8-2c.1-.2 0-.5-.1-.6l-.6-.4c-.3-.1-.9 0-1.5.3a425.6 425.6 0 0 0-4.6 2 3 3 0 0 1-2.1 0 2 2 0 0 1-.9-1.1v-1.8a14.6 14.6 0 0 1 .7-3.3l.4.3c.8.3 1.6.4 2.5.2a10 10 0 0 0 5.9-5c.4-1 .5-2 .2-2.8-.2-.9-.9-1.5-2-2a5 5 0 0 0-2-.4zm.9 1.5c.3 0 .5 0 .8.2l.3.4v.6l-.3.7-.3.6-.6 1.2a11.7 11.7 0 0 1-2 2.6 6 6 0 0 1-1 1 2 2 0 0 1-1 .4c-.3 0-.5-.1-.7-.4l-.3-.7a78.4 78.4 0 0 1 2.5-4.4 9 9 0 0 1 1.8-1.8c.2-.2.5-.4.8-.4zm-194.5 21-.5.1-.5.1-.5.3-.4.4c-.1.1-.2.3-.1.5v.1a205.1 205.1 0 0 0 1.3 7.7 288 288 0 0 1 2 14.2l.5 3a142.8 142.8 0 0 0 .4 2.4c0 .5.4.9.8 1 .5.2 1 .2 1.5 0a2 2 0 0 0 1.4-.6c.3-.2.4-.7.3-1.3l-.3-1.4-1.1-5.9-1-6a230.7 230.7 0 0 0-2.4-13.7c0-.3-.2-.5-.5-.7-.2-.2-.5-.2-1-.2zM157 46.2a1 1 0 0 0-.7.5 77.3 77.3 0 0 0-2.7 10.8 327 327 0 0 0-1.8 11.6l-.2 1.9-.3 3.2c0 1.1 0 2 .2 2.8.4.5.9.7 1.5.8h1c.5-.1.7-.3.9-.6l.4-1.6a154.7 154.7 0 0 1 1.3-5.5c.3-1 .7-1.8 1.1-2.6a6 6 0 0 1 1.6-1.9 3 3 0 0 1 2.2-.4 2 2 0 0 1 1.5 1c.3.5.5 1.2.6 2 .1.9.2 1.8.1 2.8l-.1 3-.2 2.6c0 .7 0 1.3.2 1.8l.4.4.7.2c.6 0 1-.1 1.3-.4v-2.4a41.7 41.7 0 0 0-.3-9.5c-.3-1-.7-1.7-1.2-2.3-.5-.6-1.3-1-2.2-1.1l-2 .1a8.4 8.4 0 0 0-3.3 1.9l-1.3 1.4 1.4-9.3c.5-3 1.2-6.1 2-9.2l.4-.3c.1-.6 0-1-.4-1.2-.3-.3-.7-.4-1.2-.5h-.9zM138.6 51c-.4 0-.6 0-.8.2-.3.1-.5.4-.7.7l-.2 1-.1 1a23.2 23.2 0 0 1-2.5.2 9 9 0 0 0-1.4.2c-.4.1-.6.3-.6.5l.1.4.4.2.5.2h1.9l1.4-.1a70 70 0 0 0-1.2 6.7l-.3 3.7-.3 3.6-.1 2.3c0 .9 0 1.8.2 2.7.1.8.4 1.6.8 2.3.4.6 1 1 1.9 1h1.1l.6-.3.2-.4c0-.3 0-.6-.2-1l-.4-.8c-.2-1-.4-2-.4-3.2a67.6 67.6 0 0 1 .8-10.1l.8-6.9a24.2 24.2 0 0 0 2.5 0l1.4-.4c.4-.1.5-.3.4-.7 0-.3-.2-.4-.4-.4l-.7-.1h-1.5l-1.5.1v-.7l.1-.7v-.4c-.2-.3-.4-.5-.7-.6l-.8-.2h-.3zm-51.7 7.4c-1.2.2-2.2.6-3 1.5-.7.9-1.2 2-1.6 3.1-.4 1.2-.7 2.4-.8 3.7V70a10 10 0 0 0 1.8 5.2 6 6 0 0 0 2 1.4 6 6 0 0 0 3 .4c.8 0 1.6-.3 2.3-.7.7-.3 1.3-.8 1.9-1.4A7 7 0 0 0 94 73a20.6 20.6 0 0 0 1.5-3c0-.3-.1-.5-.4-.5l-.6-.1c-.5 0-.9.4-1.3 1a414.3 414.3 0 0 0-3 3.9 3 3 0 0 1-2 1c-.4 0-.8-.1-1.2-.6-.4-.4-.7-.9-1-1.5a14.6 14.6 0 0 1-.9-3.2h.6c.8-.1 1.6-.4 2.2-1 .7-.6 1.2-1.3 1.6-2.1a10 10 0 0 0 1.2-5 4 4 0 0 0-1-2.7c-.7-.6-1.6-.9-2.8-.8zm0 1.4h.2c.2 0 .4 0 .5.2l.2.6.2.7v2a11.7 11.7 0 0 1-.5 3.3 6 6 0 0 1-.4 1.3 2 2 0 0 1-.7.8c-.2.2-.5.2-.8 0L85 68a78.2 78.2 0 0 1 .2-5 9 9 0 0 1 .6-2.5c.3-.6.6-.9 1-1zm-9 2c-.7.2-1.4.5-2 1-.7.4-1.4 1-1.9 1.7a12.6 12.6 0 0 0-2.3 4.2l-.5-2.5-.5-2.6c-.1-.3-.4-.4-.7-.5h-1c-.6.1-1 .4-1 .8-.2.4-.3.8-.2 1.4a103.3 103.3 0 0 0 1.7 8.8c.3 1 .6 1.8 1 2.5.2.4.4.6.8.6h1c.5-.1 1-.2 1.2-.4.2-.1.3-.5.2-1.1l-.2-3.6c.1-1.2.3-2.4.6-3.5.3-1.2.7-2.2 1.3-3.2a8 8 0 0 1 2.2-2.5h.9c.1 0 .3-.2.3-.4l.2-.2-.3-.3a1 1 0 0 0-.5 0 1 1 0 0 0-.2-.1zm20-1.5c-.5 0-.8.3-1 .6-.2.4-.3.8-.2 1.4a104 104 0 0 0 1 9c.1 1 .4 1.8.7 2.5.1.4.4.6.7.7h1l1.2-.2c.3-.2.4-.5.4-1.1l.1-3.6.8-3.5c.4-1.1 1-2.1 1.6-3a8 8 0 0 1 2.5-2.3h.8c.2 0 .3-.1.3-.3.2-.1.3-.2.2-.3l-.2-.2a1 1 0 0 0-.4-.1 1 1 0 0 0-.3-.1c-.8 0-1.5.2-2.2.7l-2 1.5a12.5 12.5 0 0 0-2.6 4l-.3-2.5c0-1-.2-1.8-.3-2.6-.1-.3-.3-.5-.7-.5a4.1 4.1 0 0 0-1.1-.1zm23.7 0a5.4 5.4 0 0 0-3.8 2.1 7 7 0 0 0-1.1 2.2c-.3.9-.4 1.8-.4 2.7a12.5 12.5 0 0 0 1 4.8c.3.7.8 1.3 1.4 1.9.6.5 1.3.7 2.2.8a3.7 3.7 0 0 0 3-1.3l.8-1.3c.3-.5.6-1 .7-1.6l.2 1.4c0 .4 0 .8.2 1.2.1.3.3.6.6.8.3.2.7.3 1.3.3h.5l.7-.1.4-.4c.2 0 .2-.3.2-.5v-.5l-.3-.6-.8-3.3c-.2-1-.5-2.2-1-3.2h.3c.4 0 .6 0 .7-.2l.2-.8a3 3 0 0 0-.7-2c-.4-.5-.9-1-1.6-1.3-.6-.4-1.3-.6-2-.8a7.7 7.7 0 0 0-2.7-.3zM59.3 66a4.4 4.4 0 0 0-2.7 1c-.6.6-1 1.2-1.4 1.9l-.5 2.3c0 .8 0 1.6.2 2.4 0 .7.3 1.4.6 2 .3.6.7 1.2 1.2 1.6.4.4 1 .7 1.6.9a6.3 6.3 0 0 0 4.7-1 7.2 7.2 0 0 0 2.9-7.2c0-.7-.4-1.4-1-2-.4-.5-1-1-1.7-1.3A7 7 0 0 0 61 66h-1.7zm62.7-4.4h.8c.3 0 .7 0 1.1.2l1.2.7c.4.2.7.5 1 .9l.7 1a2 2 0 0 0-1-.3c-.7 0-1.2.3-1.6 1a56 56 0 0 1-1.8 5.3c-.3 1-.8 2-1.4 2.7l-1-1.3a10.5 10.5 0 0 1-.8-3.2 15.8 15.8 0 0 1 0-3.1l.6-1.7c.2-.5.5-1 .9-1.4.3-.4.8-.7 1.3-.8zm-92.3 8.1h-.3c-.6.2-1 .5-1.2.9-.2.3-.2.8 0 1.4A147.6 147.6 0 0 0 33 87.7a95 95 0 0 0 2.7 6.3c.2.4.5.6 1 .6a6 6 0 0 0 1.5-.4l.6-.2.5-.4c.1-.2.2-.3.1-.5a40 40 0 0 1-4-12c-.1-.8-.3-1.7-.3-2.8l.1-3.3c.2-1.1.5-2.1 1-3 .4-.8 1-1.4 1.8-1.6.5-.1 1 0 1.4.4.4.3.8.8 1.2 1.4l.9 1.9.5 1.6c.2.6.2 1.1 0 1.7 0 .6-.3 1-.5 1.5-.3.5-.6 1-1 1.3l-1.2.6-.7-.1-.6-.4c-.3-.2-.7-.3-1-.1a5 5 0 0 0-.7.2c-.3.1-.4.3-.4.5.5.7 1 1.1 1.6 1.2a5 5 0 0 0 2.1 0l2.3-1c.7-.3 1.3-.7 1.8-1.3a5 5 0 0 0 1-2.3 9.2 9.2 0 0 0-1.1-5.4c-.4-.7-.8-1.4-1.4-1.9a4.9 4.9 0 0 0-4.6-1c-.7.1-1.3.4-1.8.8s-1 .9-1.4 1.5a10 10 0 0 0-1.6 3.6 13 13 0 0 1-.8-2.2l-.7-2.4c-.2-.5-.4-.8-.8-.9h-.8zM59 67.2l.6.3.6.1h.5c.6.3 1.1.6 1.5 1 .4.4.6 1 .7 1.8l.2 1.8a5.7 5.7 0 0 1-1.2 3.4 3 3 0 0 1-1.6 1c-.3.1-.6 0-1-.3A5.7 5.7 0 0 1 58 74l-.2-1a45.5 45.5 0 0 1-.4-3.7l.5-1.2 1-1zm1.7.5h-.1zm-35.8 5.5h-.3l-1 .7-.9 1.2-.7 1.3-.6 1-.6-.3a48.3 48.3 0 0 1-3.5-2.4 2 2 0 0 0-.8.1l-1 .5c-.4.3-.5.6-.4 1l.8.9 1.5 1.2a62.3 62.3 0 0 1 2.8 2.1 102.5 102.5 0 0 0-2.2 9c.1.1.3.3.7.2l.8-.1c.4-.2.7-.6 1-1.3l.8-2.4a25.6 25.6 0 0 0 .7-4c.7.6 1.4 1.2 2 2l2 1.8c.3.2.6.3 1 .2a5.6 5.6 0 0 0 1.6-.4c.2 0 .4-.2.5-.3l.5-.4c.1-.1.2-.3.1-.5a33.7 33.7 0 0 0-5.3-4.6 34 34 0 0 1-1.4-1.1 20.8 20.8 0 0 1 1.4-2.8l.7-1 .7-1.4c0-.2-.2-.2-.5-.2a4 4 0 0 0-.4 0zM176.6 62c-.7 0-1.4.3-2 .7a10 10 0 0 0-2.4 2.6 22.4 22.4 0 0 0-2.5 6.6l-.2 2.9c0 .9.3 1.7.6 2.5.4.8.9 1.4 1.6 2a6 6 0 0 0 2.7 1c1 .2 1.7.2 2.5 0s1.5-.5 2.2-.9l2-1.4a20.6 20.6 0 0 0 2.2-2.6c0-.3 0-.5-.3-.6l-.6-.2c-.4-.1-1 .1-1.5.6a418.7 418.7 0 0 0-4 3 3 3 0 0 1-2 .5c-.5 0-.8-.4-1-.9-.3-.5-.5-1-.6-1.7a14.5 14.5 0 0 1 0-3.3h.4c.9.2 1.7.1 2.5-.3s1.5-1 2-1.6a10 10 0 0 0 2.5-4.6 4 4 0 0 0-.4-2.8c-.4-.8-1.3-1.2-2.4-1.4h-1.3zM5.9 76.4l-1.1.3a4 4 0 0 0-2.5 2.2c-.4 1-.7 2.2-.7 3.4-.1 1.3 0 2.5.2 3.8.3 1.3.6 2.3 1 3.2.3 1 .7 1.8 1.2 2.6a8 8 0 0 0 1.9 1.8c.6.5 1.4.8 2.3 1a6 6 0 0 0 2.9-.5 7.3 7.3 0 0 0 3.5-3.2c.4-.7.8-1.5 1-2.2a20.6 20.6 0 0 0 .6-3.4c-.1-.3-.3-.4-.5-.4-.3 0-.5 0-.7.2-.4.1-.7.5-1 1.2a423.8 423.8 0 0 0-1.8 4.6 3 3 0 0 1-1.5 1.5c-.5.2-1 .1-1.4-.2-.5-.3-1-.7-1.3-1.2a14.6 14.6 0 0 1-1.8-2.9l.5-.1c.8-.3 1.4-.8 1.9-1.6.5-.7.8-1.5 1-2.4a10 10 0 0 0-.3-5.2 4 4 0 0 0-1.7-2.2c-.5-.3-1-.4-1.7-.3Zm171.4-13h.4c.2 0 .4.2.4.3l.1.6v.8l-.1.6c0 .4-.2.8-.4 1.3a11.7 11.7 0 0 1-1.3 3 6 6 0 0 1-.8 1.3 2 2 0 0 1-.8.6c-.3 0-.6 0-.8-.3l-.5-.6a79 79 0 0 1 1.5-4.8 9 9 0 0 1 1.2-2.2c.4-.4.8-.7 1.1-.7zM5.5 77.8h.3l.4.6c.2.1.3.4.4.6l.2.6.4 1.3a11.7 11.7 0 0 1 .4 3.3l-.1 1.5c0 .4-.2.7-.4 1-.2.1-.5.2-.8 0l-.7-.2a80.6 80.6 0 0 1-1.2-5 9 9 0 0 1 0-2.4c0-.8.4-1.2.9-1.3h.2Zm185.3-10-1 .3c-.7.2-1.5.6-2 1a7 7 0 0 0-1.7 2 12.5 12.5 0 0 0-1 7.4c.3.8.6 1.6 1.1 2.2.5.6 1.2 1 2 1.2a3.7 3.7 0 0 0 3.1-.6 8.3 8.3 0 0 0 2.2-2.5l-.1 1.3v1.3c0 .3.1.6.4.9.2.3.6.4 1.2.6h1.1c.3 0 .4 0 .6-.2l.3-.4v-.6l-.1-.6-.1-3.4-.3-3.3h.2c.4.1.6 0 .8 0l.3-.8a3 3 0 0 0-.2-2 7 7 0 0 0-1.3-1.7l-1.9-1.2-1.8-.7c-.7-.1-1.2-.2-1.8-.1zm32.2-1.7h-.2l-.8.5a2 2 0 0 0-.5.9l-.4 1a23.6 23.6 0 0 1-2.4-.5 9 9 0 0 0-1.4 0c-.4 0-.7 0-.7.2v.5l.4.3.4.3.4.1 1.4.3 1.4.3a70 70 0 0 0-2.8 6.2l-1.3 3.5-1.1 3.4-.7 2.2-.5 2.7c0 .8 0 1.7.2 2.4.3.7.8 1.2 1.6 1.5l.5.1h1.2c.2 0 .3-.2.4-.4v-.9l-.2-1c0-1 .2-2 .4-3.1a67 67 0 0 1 3.3-9.6l2.5-6.5a23.5 23.5 0 0 0 2.4.5h1.4c.4 0 .6-.1.6-.5 0-.3-.1-.5-.2-.5l-.7-.3a9 9 0 0 0-1.5-.3l-1.5-.3.3-.6.2-.7v-.5c0-.3-.2-.6-.4-.7l-.8-.4c-.3-.1-.6-.2-.9-.1zm-31 3.2h.7c.4.1.7.3 1.1.6.4.2.7.5 1 .9l.8 1c.3.4.4.8.5 1.1l-1-.4c-.6-.2-1.2 0-1.7.7l-1.3 2.2-1.5 2.7a6 6 0 0 1-2 2.2L188 79a10.4 10.4 0 0 1-.2-3.3 15.8 15.8 0 0 1 .7-3.1l.9-1.5c.3-.5.7-.9 1.1-1.2.4-.3 1-.5 1.5-.5zm11.8 1a1 1 0 0 0-.7.3c-.3.3-.5.7-.7 1.2a103.3 103.3 0 0 0-1.8 8.8v2.7c0 .4.1.7.4.8l1 .4c.5.1 1 .2 1.2.1.3 0 .6-.3.7-.9l1.2-3.4a18 18 0 0 1 1.9-3c.7-1 1.5-1.8 2.4-2.5a8 8 0 0 1 3-1.4l.4.2h.4c.2.1.3 0 .4-.1.2 0 .3-.1.3-.2s0-.2-.2-.3a1 1 0 0 0-.3-.3 1 1 0 0 0-.3-.1c-.7-.2-1.5-.2-2.3 0a5 5 0 0 0-2.3.9 12.5 12.5 0 0 0-3.8 3l.6-2.6c.2-.9.4-1.7.4-2.5 0-.3 0-.6-.4-.7l-.9-.4h-.6zm36-1.1a10.8 10.8 0 0 0-7.1 3.8c-2.5 3.3-2.6 7.7-2.3 11.2.3 3.5 1.2 6.4 1.2 6.4a1.4 1.4 0 0 0 1.7.9 1.4 1.4 0 0 0 1-1.8s-.8-2.5-1-5.7c-.4-3.2 0-7 1.6-9.3.9-1.1 2.4-2 4-2.5 1.6-.4 3.3-.3 4.4.4l.5 1c.2.6.3 1.4.3 2.3.1 1.6-.1 3.2-.1 3.2l-.3 2.2 2.1-.7s1.8-.5 3.8-.7c1-.1 2-.2 2.7 0 .8 0 1.2.3 1.4.5.9 1.1 1.2 3 .9 4.7a6.2 6.2 0 0 1-2.5 4.2c-3 1.9-7.4 2.7-11 2.9-3.7.2-6.5 0-6.5 0a1.4 1.4 0 0 0-1.6 1.2 1.4 1.4 0 0 0 1.3 1.6s3 .3 6.9 0c3.9-.2 8.7-1 12.5-3.3a8.8 8.8 0 0 0 3.7-6 9 9 0 0 0-1.4-7c-.9-1.1-2-1.5-3.3-1.7-1.1-.2-2.3 0-3.5 0l-2.3.5V76c0-1 0-2-.3-3s-.8-2-1.9-2.7c-1-.5-2-.9-3.1-1h-1.7z" transform="rotate(5 116.1 153.2)" fill="currentColor" />
</svg>
