<svg xmlns="http://www.w3.org/2000/svg" viewBox="-2 -2 252.8 104.8">
  <path d="M143.6-3h-.5c-.3 0-.5.2-.6.6a158.6 158.6 0 0 0-3.5 15.9 25.8 25.8 0 0 0 .1 9.3c.1.6.3 1.1.6 1.5.2.4.7.7 1.5.8h1.1c.2 0 .4-.2.5-.3.2 0 .2-.2.3-.3v-1l-.4-1.1-.2-1v-1a37.9 37.9 0 0 1 1-4.8l1.2-2.1c.5-.7 1-1 1.6-.8.6 0 1 .3 1.3.8.3.4.6 1 .7 1.6a10 10 0 0 1-.3 5.7 21 21 0 0 1-2.6 5.6c-.5.8-1.1 1.3-1.8 1.5h-.6c-.3 0-.4.2-.5.4 0 .2 0 .4.2.5l.5.4.7.2.5.2a3 3 0 0 0 1.9-.4c.6-.3 1.1-.8 1.6-1.4.5-.6 1-1.2 1.4-2a21.2 21.2 0 0 0 2.1-6.5v-2.6c0-1-.3-1.8-.7-2.5a5 5 0 0 0-4.1-2.7c-.8-.1-1.5 0-2.2.2-.7.2-1.3.6-1.8 1.2a66 66 0 0 1 1.4-7.2 60 60 0 0 0 1.4-7.3c0-.5 0-.8-.3-1l-1-.4h-.5zM64.2-.3l-.5.1-.4.1-.6.3c-.2 0-.3.2-.4.3-.2.1-.2.3-.2.5l.1.2a205.2 205.2 0 0 0 .9 7.7 287.9 287.9 0 0 1 1.2 14.3l.4 3a139.8 139.8 0 0 0 .2 2.4c.1.5.4.9.8 1 .5.2 1 .3 1.5.2.6 0 1.1-.3 1.4-.5.3-.3.5-.7.4-1.4l-.3-1.3-.8-6-.6-6.1A230.6 230.6 0 0 0 65.6.7c0-.3-.2-.5-.4-.7-.3-.2-.6-.3-1-.3Zm45.6 8c-1.3 0-2.3.3-3.1 1.1-.8.8-1.5 1.8-2 3a22.4 22.4 0 0 0-1.4 7l.3 2.7c.2 1 .6 1.7 1 2.4.5.7 1.1 1.3 1.9 1.7a6 6 0 0 0 2.9.6 6 6 0 0 0 2.4-.4 11.2 11.2 0 0 0 3.7-3 20.6 20.6 0 0 0 1.8-3c0-.2-.2-.4-.4-.5h-.6c-.5 0-1 .2-1.4.7a412.3 412.3 0 0 0-3.4 3.7 3 3 0 0 1-2 .8c-.4 0-.8-.2-1.2-.6-.3-.5-.6-1-.8-1.7a14.6 14.6 0 0 1-.6-3.3h.6c.8 0 1.6-.2 2.3-.7a10 10 0 0 0 3.5-6.9 4 4 0 0 0-1-2.7c-.5-.6-1.4-1-2.5-1zm-.2 1.2h.2c.2 0 .4.2.5.3l.2.6v2.7a11.7 11.7 0 0 1-.9 3.3 6 6 0 0 1-.6 1.3 2 2 0 0 1-.7.7c-.3.2-.5.1-.8-.1l-.6-.5a80.2 80.2 0 0 1 .7-5 9 9 0 0 1 .8-2.4c.3-.6.7-.9 1.2-.9zm-23.2.6c-.6 0-1 .2-1.3.5-.3.3-.3.8-.3 1.4a144.5 144.5 0 0 0 1.7 16.4 95.2 95.2 0 0 0 1.3 6.8c.2.4.5.7.9.7a6 6 0 0 0 1.6 0c.2 0 .5 0 .7-.2l.5-.2c.2-.2.2-.3.2-.5l-.3-2.8a200 200 0 0 0-1-7l-.3-2.8c0-.7 0-1.7.2-2.8l.8-3.2c.4-1 .9-2 1.5-2.7.6-.8 1.3-1.2 2-1.2.6 0 1 .2 1.4.6l1 1.7.4 2 .3 1.7c0 .5-.1 1-.4 1.6a4.8 4.8 0 0 1-2 2.4c-.5.3-1 .4-1.3.4-.2 0-.5 0-.7-.2l-.5-.6c-.3-.2-.6-.3-1-.3a5 5 0 0 0-.7.2c-.3 0-.5.2-.5.4.3.7.8 1.2 1.4 1.5a5 5 0 0 0 2 .3c.8 0 1.6-.2 2.4-.4.8-.2 1.5-.5 2.1-1a5 5 0 0 0 1.4-2c.4-.8.5-1.9.4-3.1 0-.9-.1-1.7-.4-2.5-.2-.8-.6-1.5-1-2a4.9 4.9 0 0 0-4.3-2c-.7 0-1.4.2-2 .5-.6.3-1.1.6-1.6 1.1a10 10 0 0 0-2.3 3.2 13 13 0 0 1-.4-2.3l-.2-2.4c0-.5-.2-.9-.6-1-.3-.2-.7-.2-1-.2Zm34.2 1c-.5 0-.9.2-1 .5-.3.3-.4.8-.4 1.3a103.7 103.7 0 0 0 0 9l.5 2.7c.2.4.4.6.7.7l1 .1h1.2c.3-.2.5-.5.5-1.1a18 18 0 0 1 1.6-7c.6-1 1.2-2 2-2.9a8 8 0 0 1 2.6-2l.3.1h.5c.2 0 .3 0 .4-.2.2-.1.2-.2.2-.3 0-.1 0-.2-.2-.2a1 1 0 0 0-.4-.2 1 1 0 0 0-.3-.1c-.8 0-1.5 0-2.3.4-.7.4-1.4.8-2 1.4a12.5 12.5 0 0 0-3 3.7l-.1-2.6v-2.6c-.1-.3-.3-.5-.7-.5a4.2 4.2 0 0 0-1.1-.2zm64-.2-.6.1c-.3.1-.5.3-.7.6-.2.2-.4.5-.5.9l-.3 1a23.1 23.1 0 0 1-2.5-.3h-1.4c-.4 0-.6.1-.7.3l.1.4.4.3.4.3h.4l1.4.3 1.4.2a70.2 70.2 0 0 0-4.4 13.4l-.5 2.2c-.2 1-.4 1.8-.4 2.7 0 1 .1 1.7.4 2.4.3.8.8 1.2 1.6 1.4l.5.1h1.2l.4-.4v-1l-.3-.9c0-1 0-2 .2-3.2a67 67 0 0 1 2.7-9.8l2.2-6.6a24.1 24.1 0 0 0 2.4.4h1.4c.4 0 .6-.3.6-.6s-.2-.5-.3-.5l-.7-.3a9 9 0 0 0-1.5-.2l-1.5-.2.2-.6.2-.7v-.5c-.1-.3-.3-.6-.5-.7-.1-.2-.4-.3-.8-.4h-.6zm-131 2.8a5 5 0 0 0-.9 0c-1.2.3-2.1 1-2.7 1.9-.7.9-1.1 2-1.4 3.2-.2 1.2-.3 2.5-.3 3.8 0 1.3.2 2.4.4 3.3.2 1 .5 1.9.9 2.7.4.9.8 1.6 1.4 2.2.6.6 1.4 1 2.2 1.2a6 6 0 0 0 3 0 6 6 0 0 0 2.2-.9c.7-.4 1.3-1 1.8-1.6l1.3-2a20.6 20.6 0 0 0 1.1-3.3c0-.3-.2-.4-.5-.4h-.6c-.4 0-.8.4-1.2 1a410.3 410.3 0 0 0-2.5 4.3 3 3 0 0 1-1.8 1.3c-.5 0-1 0-1.3-.5-.4-.3-.8-.8-1.2-1.4a14.6 14.6 0 0 1-1.2-3l.5-.1c.8-.2 1.5-.6 2.1-1.3.6-.6 1-1.4 1.4-2.3a10 10 0 0 0 .6-5.1 4 4 0 0 0-1.4-2.5 3 3 0 0 0-2-.5zm22.5.2a4.4 4.4 0 0 0-2.8 1c-.5.4-1 1-1.4 1.8-.3.6-.5 1.4-.6 2.2a10 10 0 0 0 0 2.4c0 .7.2 1.4.5 2 .2.7.6 1.2 1 1.7l1.7 1a6.3 6.3 0 0 0 4.7-.7 6.8 6.8 0 0 0 3.1-4.2c.3-1 .4-1.9.3-2.8-.1-.8-.4-1.4-.9-2-.5-.6-1-1-1.7-1.5a7 7 0 0 0-2.2-.7l-1.7-.2zm-23 1.1c.2 0 .3 0 .5.2l.3.6.2.7.1.6.2 1.3a11.7 11.7 0 0 1-.1 3.4l-.3 1.4a2 2 0 0 1-.6.9c-.2.1-.5.1-.8 0l-.7-.4a79.7 79.7 0 0 1-.4-5c0-1 .2-1.8.4-2.5s.6-1.1 1.2-1.2zm22.7.3.6.3.5.1.5.1c.6.3 1.1.6 1.5 1 .3.5.5 1.1.6 1.8v2a5.7 5.7 0 0 1-1.3 3.3c-.4.4-1 .7-1.7.9-.3 0-.6 0-.9-.4a5.7 5.7 0 0 1-1.2-2.4 45.3 45.3 0 0 1-.3-4.7c0-.5.3-.9.5-1.2.3-.3.7-.6 1.2-.8zm1.6.5zm-76 1.3c-1.8 0-3.7.7-5.7 2a3 3 0 0 0-1 .3c-.6.3-1 .6-1 1-.2.4-.1 1 .3 2A163.9 163.9 0 0 0 .4 35a329 329 0 0 1 6.9 13.6h.6l.8-.1a5.6 5.6 0 0 0 1.2-.5l.5-.5.4-.5-.1-.7V46a9 9 0 0 0 2.1-2.5c.7-1 1.2-2.1 1.7-3.3a23.4 23.4 0 0 0 1.2-7c0-1.1-.2-2.3-.5-3.4a22.5 22.5 0 0 0-4.3-8.5 14 14 0 0 0-4.3-3.6c-1.6-.9-3.3-1.3-5.1-1.3Zm163.3-1.6c-.3 0-.5 0-.6.2-.3.2-.5.6-.6 1.1a40.4 40.4 0 0 1-3.9 9.4c-.5.7-1 1-1.5.9-.3 0-.5-.4-.6-1.1a17 17 0 0 1-.2-5.2l.3-2.4c.1-.5 0-.9-.2-1.1-.3-.3-.7-.5-1.2-.6l-.9.1c-.2 0-.3.3-.4.7 0 .5 0 1.1-.2 1.8l-.3 2.3-.2 2.4c0 .8 0 1.6.2 2.3.2.6.5 1.2.9 1.7s1 .8 1.7 1c.6 0 1 0 1.5-.2a5 5 0 0 0 1.2-.7l1.1-1 .9-1.1a60.6 60.6 0 0 0-.8 6.2 62.1 62.1 0 0 1-1.1 6l-.1.3.1.6.5.4.7.3.6.1a3 3 0 0 0 1.7 0c.3-.2.6-.6.7-1.4v-.5l.1-.6.3-2 1.6-12.3a48.1 48.1 0 0 1 .7-4.5c0-.8 0-1.5-.2-2-.2-.6-.6-1-1.2-1l-.6-.1zm-121 2h-.6l-.6.3c-.3.2-.4.3-.4.6a110.7 110.7 0 0 1 .5 10.7c0 1.2-.1 2.2-.3 3.1-.4-.4-.7-1-1.1-1.7a825.6 825.6 0 0 1-4.3-7.8c-.5-.7-1-1.3-1.6-1.7a1.9 1.9 0 0 0-2-.2c-.2 0-.3 0-.5.2l-.4.3v.3l.1.4a11.7 11.7 0 0 0 1 1l.2.4c.6.9 1.1 1.9 1.6 3l1.3 3.3c.5 1.1 1.1 2.1 1.8 3.1.6 1 1.4 1.7 2.4 2.2.6.3 1.3.3 2.1 0 .2 0 .5 0 .8-.2l.6-.6c.3-.4.4-1 .6-1.9L45 29a48.3 48.3 0 0 0-.7-11.6c0-.2-.2-.4-.5-.4h-.2zM.3 18.3c1.1 0 2.1.2 3 .7a16.8 16.8 0 0 1 5.4 5.3 24.3 24.3 0 0 1 3 7.3 17.4 17.4 0 0 1-.2 8.4c-.4 1.3-1 2.7-1.9 4-1.3-3-2.8-6-4.4-9A583.5 583.5 0 0 1-3 19.3l.2-.2h.3a11 11 0 0 1 2.4-.8h.4zm24.2 2.6-1.5.3c-1.2.4-2 1.1-2.6 2.1-.5 1-.8 2.2-.9 3.4a22.4 22.4 0 0 0 1 7l1.1 2.7c.6.7 1.1 1.4 1.8 1.9s1.4.8 2.3 1a6 6 0 0 0 3-.4 7.3 7.3 0 0 0 3.6-3c.4-.7.8-1.4 1-2.2a20.6 20.6 0 0 0 .8-3.4c-.2-.2-.3-.4-.6-.3H33c-.4.2-.8.6-1 1.3a426.5 426.5 0 0 0-2 4.5 3 3 0 0 1-1.7 1.5c-.4.1-.8 0-1.3-.3s-.9-.7-1.3-1.2a14.6 14.6 0 0 1-1.7-3l.6-.1c.8-.3 1.4-.8 1.9-1.5s.9-1.5 1.1-2.4a10 10 0 0 0 0-5.2 4 4 0 0 0-1.8-2.3l-1.2-.4zm-1 1.5c.2 0 .3 0 .4.2.2 0 .3.2.4.4l.3.7.3.7.3 1.2a11.7 11.7 0 0 1 .3 3.3c0 .6 0 1-.2 1.5 0 .4-.2.7-.4 1-.2.1-.5.2-.8 0l-.7-.3a79.6 79.6 0 0 1-1-4.9v-2.5c.1-.7.5-1.2 1-1.3h.2zm168-.5a1 1 0 0 0-.7.3c-.3.3-.5.7-.7 1.2a103.7 103.7 0 0 0-2 8.8l-.3 2.7c0 .4.2.6.5.8l1 .4c.5.2 1 .2 1.2.2.3 0 .5-.4.7-1l1.3-3.2a18 18 0 0 1 2-3c.7-1 1.5-1.8 2.4-2.4a8 8 0 0 1 3.1-1.3l.4.1.4.1.4-.1c.2 0 .3-.1.3-.2s0-.2-.2-.3a1 1 0 0 0-.3-.3 1 1 0 0 0-.3-.2c-.7-.2-1.4-.2-2.3 0-.8.1-1.5.4-2.3.8a12.6 12.6 0 0 0-3.8 2.9l.5-2.6.6-2.5c0-.3-.1-.5-.4-.7l-.9-.4h-.6zm44 .8a1 1 0 0 0-.7.4l-.6 1-1.2 2.4a246.8 246.8 0 0 1-5.3 10.3c-.3-.7-.7-1.2-1.2-1.6a8 8 0 0 0-4.5-1.7 5 5 0 0 0-4.2 2 14.1 14.1 0 0 0-2.2 4.8c-.2.8-.2 1.6-.2 2.3 0 .8.3 1.4.7 2 .4.7 1 1.2 2 1.6 1 .5 2.2.5 3.2.2 1-.4 2-1 2.9-1.8l-.6 1.5a79.8 79.8 0 0 0-1.3 4.3v1.3c.4.6 1 1 1.6 1.2.6.3 1.3.4 1.9.3l.4-.3V52.3c.3-2 .8-3.7 1.5-5.5a201.1 201.1 0 0 1 6-13.2c1.5-2.6 2.8-5.2 4-8 .3-.7.4-1.2.3-1.5 0-.4-.5-.7-1.2-1-.3-.2-.7-.3-1-.3h-.3zm-28.5 5h-.7c-.8.1-1.6.4-2.2.9a7 7 0 0 0-1.9 1.7 12.5 12.5 0 0 0-1.9 7.2c.1.8.4 1.6.8 2.3.4.7 1 1.2 1.8 1.5a3.8 3.8 0 0 0 3.2-.3c.5-.2.9-.6 1.3-1l1.1-1.1-.2 1.3-.3 1.1c0 .4.2.7.3 1 .3.3.6.6 1.2.8l.5.1.6.1c.2 0 .4 0 .6-.2.1 0 .3-.2.3-.4l.1-.5v-.6l.3-3.4c.2-1.1.2-2.3.2-3.4l.2.1c.3.2.6.2.7 0 .2-.1.4-.3.5-.6a3 3 0 0 0 0-2c-.2-.7-.6-1.3-1-1.9-.5-.5-1-1-1.7-1.4-.6-.5-1.2-.8-1.8-1l-2-.3zm1.1 1.5h.5l.4.2c.3.1.7.3 1 .6l.9 1 .7 1.2.3 1.1c-.2-.2-.5-.4-1-.5-.6-.2-1.1 0-1.7.4l-1.6 2a56 56 0 0 1-1.8 2.5c-.6.9-1.4 1.5-2.3 2l-.4-1.5a10.5 10.5 0 0 1 .2-3.3 15.8 15.8 0 0 1 1.1-3l1-1.3c.4-.5.9-.8 1.3-1 .5-.3 1-.4 1.4-.4zm-148.7 7H59l-.5.2-.6.2-.4.4-.2.4.1.2a205.1 205.1 0 0 0 .7 7.8 287.8 287.8 0 0 1 1 14.2l.3 3a142.8 142.8 0 0 0 .2 2.5c.1.5.4.9.8 1 .4.3 1 .3 1.5.2.6 0 1-.2 1.4-.5.3-.2.5-.7.4-1.3l-.2-1.4-.7-6-.5-6a230.5 230.5 0 0 0-1.5-13.9c0-.3-.2-.5-.4-.7-.2-.2-.6-.3-1-.3zM222.7 35a5.3 5.3 0 0 1 1.6.2 3 3 0 0 1 1.5 1.5c.4.7.4 1.4 0 2.2a14.4 14.4 0 0 1-5.2 5.6c-.7.4-1.4.7-2.1.7-.5-.2-.7-.5-.8-1.1v-1.7a14.2 14.2 0 0 1 1.6-4.7l.8-1.1 1-.9 1.6-.7zM170 37.3a1 1 0 0 0-.8.4 77 77 0 0 0-4.5 15.2 272.5 272.5 0 0 0-1.5 6.8l-.3 1.9-.6 3.2v2.8c.4.5.9.8 1.5.9h1c.5 0 .7-.2.9-.5l.5-1.6a156.2 156.2 0 0 1 1.7-5.3l1.3-2.6a6 6 0 0 1 1.7-1.7 3 3 0 0 1 2.3-.3 2 2 0 0 1 1.3 1c.3.7.5 1.4.5 2.2v2.8l-.4 2.9-.3 2.6v1.8c0 .2.2.3.4.4l.7.2c.5.1 1 0 1.3-.3 0-.6 0-1.4.2-2.3a41.8 41.8 0 0 0 .3-9.5c-.2-1-.5-1.7-1-2.4-.5-.6-1.2-1-2.1-1.2-.7-.2-1.4-.2-2 0a7 7 0 0 0-1.8.5l-1.7 1.1-1.4 1.3 2-9.2 2.7-9 .5-.3c0-.6 0-1-.3-1.2-.4-.3-.7-.5-1.2-.6h-1zm71 1.6c-.4 0-.8 0-1.2.2-1 .3-2.1.9-3 1.7-1 .8-2 1.7-2.7 2.7-.8 1-1.4 2-1.8 2.8-.4 1-.8 1.8-1 2.7-.3 1-.3 1.8-.2 2.6 0 .8.4 1.6.9 2.3a6 6 0 0 0 2.2 1.9c.8.4 1.6.6 2.4.7.8 0 1.6 0 2.4-.2.8-.1 1.5-.4 2.3-.7a20.6 20.6 0 0 0 2.9-1.8c.1-.3 0-.5-.1-.7l-.5-.4c-.4-.2-1-.1-1.6.1a426.2 426.2 0 0 0-4.7 1.8 3 3 0 0 1-2.1-.2c-.4-.2-.7-.6-.8-1.2v-1.8a14.6 14.6 0 0 1 1-3.2l.4.3c.8.4 1.6.5 2.5.4a10 10 0 0 0 6.2-4.6c.5-1 .7-2 .4-2.8-.2-.8-.8-1.5-1.8-2-.7-.4-1.4-.6-2-.6zm-89.9 1.7c-.3 0-.5 0-.8.2-.2 0-.5.3-.6.6-.2.2-.3.6-.4 1l-.1 1a23.3 23.3 0 0 1-2.5 0l-1.4.1c-.4.1-.6.3-.7.5 0 .1 0 .3.2.4l.3.2.5.2a146.3 146.3 0 0 0 1.8.2h1.4a70 70 0 0 0-1.5 6.6l-.7 3.6-.5 3.6-.3 2.3v2.7c.1.9.3 1.7.7 2.3.3.7 1 1.1 1.8 1.2h1.1c.3 0 .4 0 .6-.2.2 0 .3-.2.3-.4 0-.3 0-.6-.2-.9l-.3-.9c-.2-1-.2-2-.2-3.2a67 67 0 0 1 1.5-10l1.3-6.8a25.8 25.8 0 0 0 2.5 0c.6 0 1 0 1.4-.2.4 0 .6-.3.5-.6-.1-.3-.2-.5-.4-.5l-.7-.2h-3l.1-.7.1-.7v-.5l-.6-.6-.8-.3a3 3 0 0 0-.4 0zm90.7-.2c.2 0 .5 0 .7.2.2.2.3.3.3.5l-.1.6c0 .2-.1.5-.3.7l-.3.6-.7 1.1a11.7 11.7 0 0 1-2.2 2.5 6 6 0 0 1-1 1 2 2 0 0 1-1 .2c-.4 0-.6-.1-.7-.5l-.3-.7a78.4 78.4 0 0 1 2.9-4.1 9 9 0 0 1 1.8-1.7c.3-.2.6-.4.9-.4zM99 44.4c-1.2 0-2.2.5-3 1.3-.8.8-1.5 1.8-2 3l-1 3.6-.2 3.3c0 1 .2 2 .4 2.9.2.9.6 1.7 1 2.4.5.7 1.2 1.2 2 1.6a6 6 0 0 0 2.8.6c1 0 1.7-.2 2.4-.5.8-.4 1.4-.8 2-1.3.6-.5 1.2-1.1 1.7-1.8a20.6 20.6 0 0 0 1.7-3c0-.2-.1-.4-.4-.5h-.6c-.4 0-.9.2-1.4.8a424 424 0 0 0-3.3 3.7 3 3 0 0 1-2 .9c-.4 0-.8-.2-1.1-.7-.4-.4-.7-1-.9-1.6a14.6 14.6 0 0 1-.7-3.3h.6c.8 0 1.6-.2 2.3-.8.7-.5 1.3-1.2 1.7-2a10 10 0 0 0 1.6-5 4 4 0 0 0-1-2.6c-.5-.6-1.4-1-2.6-1zm-.1 1.4h.2c.2 0 .4.1.5.3l.2.5v2.8a11.7 11.7 0 0 1-.7 3.2 6 6 0 0 1-.6 1.3 2 2 0 0 1-.7.8c-.3.1-.5 0-.8-.2l-.6-.4a78.2 78.2 0 0 1 .5-5 9 9 0 0 1 .8-2.4c.4-.6.7-1 1.2-1zm-9 1.5c-.8 0-1.6.2-2.3.7-.7.4-1.3 1-1.9 1.6a12.5 12.5 0 0 0-2.6 4l-.3-2.5c0-1-.2-1.8-.4-2.6 0-.3-.2-.5-.6-.5l-1-.1c-.6 0-1 .3-1.1.7-.2.3-.3.8-.2 1.3a103.3 103.3 0 0 0 1 9l.8 2.6c.2.3.4.5.8.6h1c.5 0 1-.1 1.2-.3.3-.1.4-.5.3-1l.1-3.6c.2-1.2.4-2.4.8-3.5.4-1.2.9-2.2 1.5-3.1a8 8 0 0 1 2.4-2.3h.9l.3-.3c.2-.1.2-.2.2-.3 0-.1-.1-.2-.3-.2a1 1 0 0 0-.4-.2 1 1 0 0 0-.3 0zm20-.2c-.6 0-1 .2-1.1.5-.2.4-.3.8-.3 1.4a103.1 103.1 0 0 0 .3 9l.5 2.6c.2.4.4.6.7.7h2.3c.2-.2.4-.5.4-1.1 0-1.2.2-2.3.4-3.6a18 18 0 0 1 1-3.4l1.8-3a8 8 0 0 1 2.6-2h.9c.2 0 .3 0 .3-.2l.3-.3s-.1-.2-.3-.2a1 1 0 0 0-.4-.2 1 1 0 0 0-.3-.1c-.7 0-1.5.2-2.2.5a12.6 12.6 0 0 0-5 5.3l-.1-2.6-.1-2.6c0-.3-.3-.5-.6-.6a4.2 4.2 0 0 0-1.2-.1zm23.6 1.6a5.4 5.4 0 0 0-4 1.8 7 7 0 0 0-1.2 2.2c-.4.9-.6 1.7-.6 2.6a12.5 12.5 0 0 0 .6 4.8c.3.8.8 1.5 1.3 2 .6.6 1.3 1 2.2 1a3.7 3.7 0 0 0 3-1l1-1.3.8-1.5v1.3l.1 1.3c.1.3.3.6.6.8.3.2.7.4 1.3.4a3.8 3.8 0 0 0 1.1 0l.5-.3c.2-.2.3-.3.3-.5v-.5l-.3-.6-.5-3.4-.7-3.3h.2l.7-.1.2-.8a3 3 0 0 0-.5-2c-.3-.5-.8-1-1.5-1.4-.6-.5-1.2-.8-2-1a7.7 7.7 0 0 0-2.6-.5zM71 50a6 6 0 0 0-.5 0c-.9.1-1.7.4-2.3 1-.6.4-1 1-1.4 1.7-.4.6-.6 1.4-.7 2.3a10 10 0 0 0 0 2.3c0 .8.2 1.5.5 2 .2.7.6 1.3 1 1.7.5.5 1 .8 1.6 1a6.3 6.3 0 0 0 4.8-.7 6.8 6.8 0 0 0 3.2-4.2c.2-.8.3-1.7.2-2.7 0-.7-.4-1.4-.8-2-.5-.6-1-1-1.7-1.4a7 7 0 0 0-2.2-.8L71 50zm63 0h.6c.4 0 .8.2 1.2.4l1.1.8c.4.2.7.6 1 1l.5 1c-.2-.2-.6-.3-1-.4-.6 0-1.2.3-1.5 1a55.9 55.9 0 0 1-2.1 5.2c-.5 1-1 1.8-1.7 2.4-.4-.4-.6-.8-.8-1.3a10.5 10.5 0 0 1-.7-3.3 15.7 15.7 0 0 1 .3-3c.1-.6.4-1.2.6-1.7.3-.5.6-1 1-1.3.4-.4.9-.6 1.4-.8zm-92.8 1.7H41c-.6.2-1 .4-1.2.7-.2.4-.2.9-.1 1.5a145.2 145.2 0 0 0 3.7 16 95.2 95.2 0 0 0 2.2 6.6c.2.4.5.6.9.6a6 6 0 0 0 1.6-.2c.3 0 .5-.2.7-.3.2 0 .3-.2.5-.3l.1-.5a39.8 39.8 0 0 1-3.1-12.3c-.2-.7-.2-1.6-.2-2.8 0-1.1.2-2.2.4-3.3.2-1 .6-2 1.1-2.8.5-.9 1.1-1.4 2-1.5.4-.1.9 0 1.3.4s.8 1 1.1 1.6l.8 1.9c.2.6.4 1.2.4 1.7.1.5.1 1 0 1.6a4.8 4.8 0 0 1-1.9 2.7c-.3.3-.7.5-1.2.6-.2 0-.4 0-.6-.2l-.7-.5c-.2-.2-.6-.3-1-.2l-.7.2c-.3.1-.4.3-.3.5.3.7.9 1.2 1.5 1.3a5 5 0 0 0 2 0c.9 0 1.6-.3 2.4-.6.7-.3 1.4-.7 2-1.3a5 5 0 0 0 1-2.1c.3-.9.3-2 .1-3.2l-.7-2.3c-.4-.8-.8-1.5-1.4-2a4.9 4.9 0 0 0-4.4-1.4c-.7.1-1.3.4-1.9.7L45.8 54a10 10 0 0 0-1.9 3.5 13 13 0 0 1-.6-2.3l-.5-2.4c-.1-.5-.4-.8-.8-1h-.8zm29.4-.4.7.4.5.1.5.1c.6.3 1.1.6 1.4 1 .4.5.6 1.1.7 1.9v1.8A5.7 5.7 0 0 1 73 60c-.4.4-1 .7-1.7.9-.3 0-.6-.1-1-.4a5.7 5.7 0 0 1-1-2.5 45.2 45.2 0 0 1-.3-4.7c0-.4.2-.8.5-1.1l1.1-.9zm1.7.6h-.1zm-36.1 3h-.3l-1 .7-1 1-.8 1.3-.6 1-.7-.4a48.2 48.2 0 0 1-3.3-2.6 2 2 0 0 0-.8 0l-1 .5c-.4.2-.5.5-.4.9 0 .2.3.6.7 1l1.4 1.3a62.3 62.3 0 0 1 2.6 2.3 102.5 102.5 0 0 0-2.8 8.7c0 .3.3.4.6.4l.8-.1c.5-.1.9-.5 1.2-1.2l1-2.4a25.6 25.6 0 0 0 .9-3.9l2 2c.5.8 1.1 1.5 1.8 2 .2.3.6.4 1 .4l1-.1a4.4 4.4 0 0 0 1.6-.8l.2-.5a33.6 33.6 0 0 0-5-5l-1.4-1.2a20.7 20.7 0 0 1 1.6-2.7l.8-1 .8-1.3c0-.2-.2-.3-.5-.2a4 4 0 0 0-.4 0zm152.1-.5c-.7 0-1.4.2-2 .5-1 .6-1.8 1.4-2.6 2.4-.7 1-1.3 2.1-1.9 3.3-.5 1.2-.8 2.2-1 3.2-.3 1-.4 1.9-.4 2.8 0 1 .1 1.8.4 2.6.3.7.8 1.4 1.4 2a6 6 0 0 0 2.7 1.3c.8.2 1.7.3 2.4.1.8 0 1.6-.3 2.3-.7l2-1.3a20.6 20.6 0 0 0 2.5-2.4c0-.3 0-.5-.3-.6l-.6-.3c-.4 0-.9 0-1.5.5a422.5 422.5 0 0 0-4.1 2.8 3 3 0 0 1-2.2.3c-.4-.1-.7-.4-1-1l-.4-1.7a14.5 14.5 0 0 1 .2-3.4l.5.2c.8.2 1.7.1 2.4-.2.9-.3 1.6-.8 2.3-1.5A10 10 0 0 0 192 59a4 4 0 0 0-.2-2.8c-.4-.8-1.2-1.3-2.3-1.6l-1.3-.1zM17.1 56.8c-.4 0-.8 0-1.2.2-1.2.4-2 1-2.6 2-.5 1-.9 2.2-1 3.4-.2 1.2-.2 2.5 0 3.8.2 1.3.4 2.4.7 3.3l1 2.6c.6.8 1.1 1.5 1.8 2 .6.5 1.4.9 2.2 1a6 6 0 0 0 3-.2c.8-.3 1.5-.6 2.1-1.1.7-.5 1.2-1.1 1.6-1.8.5-.7.8-1.4 1.1-2.2a20.6 20.6 0 0 0 .9-3.3c-.1-.3-.3-.4-.5-.4h-.7c-.4.2-.7.6-1 1.3a412.6 412.6 0 0 0-2.2 4.5 3 3 0 0 1-1.7 1.3c-.4.2-.8 0-1.3-.3-.4-.3-.9-.7-1.3-1.3a14.6 14.6 0 0 1-1.5-3h.5c.8-.3 1.5-.8 2-1.5s1-1.5 1.2-2.4a10 10 0 0 0 .1-5.2 4 4 0 0 0-1.6-2.3c-.5-.3-1-.4-1.6-.4zm171.9-1h.3c.3 0 .4.2.4.4V57.5l-.2.7-.4 1.2a11.7 11.7 0 0 1-1.5 3 6 6 0 0 1-1 1.1 2 2 0 0 1-.8.6c-.3 0-.5 0-.7-.4l-.5-.6a80.3 80.3 0 0 1 1.8-4.7 9 9 0 0 1 1.4-2c.4-.5.8-.7 1.2-.7zM16.5 58.1l.3.2.4.5.3.7.2.6.3 1.3a11.7 11.7 0 0 1 .1 3.3l-.1 1.5a2 2 0 0 1-.5.9c-.2.2-.5.2-.8 0L16 67a79 79 0 0 1-.9-5c0-1 0-1.8.2-2.5.1-.8.5-1.2 1-1.2h.2zM202 61.3l-1 .1c-.8.2-1.5.5-2.2 1a7 7 0 0 0-1.7 1.9c-.5.7-.9 1.5-1.1 2.4a12.5 12.5 0 0 0-.4 4.9c.2.8.5 1.5 1 2.2.3.6 1 1.1 1.8 1.3a3.7 3.7 0 0 0 3.2-.4c.4-.3.9-.6 1.2-1l1.1-1.3-.2 1.3-.2 1.2c0 .4.2.7.4 1 .2.3.6.5 1.2.7h.5l.6.1c.3 0 .4 0 .6-.2.1 0 .3-.2.3-.4V75l.2-3.4v-3.4h.1c.4.2.6.2.8 0l.3-.7a3 3 0 0 0 0-2 7.5 7.5 0 0 0-3-3.1c-.6-.4-1.2-.7-1.8-.8l-1.7-.3zm32.2.4h-.2l-.8.5-.6.9-.4 1a22.3 22.3 0 0 1-2.4-.7 9 9 0 0 0-1.4-.2c-.4 0-.7 0-.7.3v.4l.3.4.4.3.4.1 1.3.4 1.4.4a70 70 0 0 0-3.2 6l-1.5 3.4-1.4 3.3-.8 2.1-.7 2.7v2.4c.3.8.7 1.3 1.5 1.6l.5.2h1.2c.2 0 .4-.1.4-.3.1-.3.2-.6 0-.9v-1c0-1 .3-2 .6-3a67 67 0 0 1 4-9.5l2.9-6.2a24.3 24.3 0 0 0 2.4.7h1.4c.4 0 .6 0 .6-.4 0-.3 0-.5-.2-.6l-.7-.3a9 9 0 0 0-1.4-.4l-1.5-.4.3-.6.3-.7v-.4c0-.4-.2-.6-.3-.8l-.8-.5-.9-.2zm-31.1 1 .3.2h.4c.3.1.7.3 1 .6l1 1 .7 1.1.4 1.1c-.2-.2-.5-.4-1-.5-.6-.2-1.2 0-1.7.6l-1.5 2-1.6 2.6c-.6 1-1.3 1.6-2.1 2.1-.3-.4-.5-.9-.6-1.4a10.5 10.5 0 0 1 0-3.3 15.8 15.8 0 0 1 1-3c.2-.6.5-1 1-1.5.3-.4.7-.8 1.1-1 .5-.4 1-.5 1.6-.5zm11.7 1.9a1 1 0 0 0-.8.2c-.3.3-.5.7-.7 1.2a103.6 103.6 0 0 0-2.4 8.7l-.3 2.7c0 .4.2.7.5.8l.9.4 1.2.3c.3 0 .5-.3.7-.9.4-1 .9-2.2 1.5-3.2.6-1.1 1.3-2.1 2-3 .8-.9 1.7-1.7 2.6-2.3 1-.6 2-1 3.1-1.2l.4.2.4.2c.2 0 .3 0 .5-.2.1 0 .2 0 .2-.2l-.1-.3a1 1 0 0 0-.4-.3 1 1 0 0 0-.2-.1c-.7-.3-1.5-.3-2.3-.2-.8.1-1.6.4-2.4.7a12.6 12.6 0 0 0-4 2.8l.8-2.5.6-2.6c0-.3 0-.5-.4-.7l-.8-.4-.6-.1zM105.5 68c-4 0-8 .2-12.2.5a1.8 1.8 0 0 0-1.6 2 1.8 1.8 0 0 0 2 1.5c16-1.3 31.1-.2 45.4 3.2a1.8 1.8 0 0 0 2-1.3 1.8 1.8 0 0 0-1.2-2 136.4 136.4 0 0 0-34.4-4z" transform="rotate(4.8 65 95)" fill="currentColor" />
</svg>
