<svg
  xmlns="http://www.w3.org/2000/svg"
  width="79"
  height="32"
  viewBox="0 0 79 32"
  fill="currentColor"
>
  <path
    d="M18.3352 31.6938V23.6708L18.5036 23.5177H20.1878L20.3409 23.6708V31.6938L20.1878 31.8622H18.5036L18.3505 31.7091L18.3352 31.6938ZM18.3352 8.19139V0.168421L18.5036 0H20.1878L20.3409 0.15311V8.19139L20.1878 8.35981H18.5036L18.3505 8.2067L18.3352 8.19139ZM11.0777 25.9062H10.8328L9.65382 24.7273V24.4976L12.4098 21.7416H13.6806L13.8337 21.8947V23.1502L11.0777 25.9062ZM11.0777 5.95598H10.8328L9.65382 7.13493V7.37991L12.4098 10.1359H13.6806L13.8337 9.96746V8.71196L11.0777 5.97129V5.95598ZM0.513148 14.9282H11.9045L12.0576 15.0967V16.7809L11.9045 16.934H0.513148L0.344727 16.7809V15.0967L0.497837 14.9435L0.513148 14.9282ZM67.8816 14.9282H78.5993L78.7524 15.0967V16.7809L78.5993 16.934H67.2079L67.0548 16.7809L67.7131 15.0967L67.8816 14.9435V14.9282Z"
    fill-opacity="0.55"></path>
  <path
    d="M32.8193 16.6432L32.6661 16.8116H27.4604L27.3073 16.9801C27.3073 17.3169 27.6441 18.3274 28.9915 18.3274C29.4815 18.3274 29.9867 18.159 30.1551 17.8222L30.3083 17.6537H32.3293L32.4824 17.8069C32.3293 18.8174 31.4872 20.3332 28.9762 20.3332C26.1283 20.3332 24.7963 18.3274 24.7963 15.9848C24.7963 13.6423 26.1283 11.6212 28.8078 11.6212C31.4872 11.6212 32.8346 13.6423 32.8346 15.9848V16.6432H32.8193ZM30.3236 14.9743C30.3236 14.8059 30.1551 13.6423 28.8078 13.6423C28.4325 13.6213 28.0641 13.7496 27.7831 13.9991C27.502 14.2487 27.331 14.5992 27.3073 14.9743L27.4604 15.1274H30.1551L30.3083 14.9743H30.3236ZM37.5197 17.6537C37.5197 17.9906 37.6728 18.159 38.0097 18.159H39.5255L39.6786 18.3121V19.9963L39.5255 20.1494H38.0097C36.5092 20.1494 35.1771 19.4911 35.1771 17.6537V13.9791L35.0087 13.7954H33.8298L33.6767 13.6423V11.9427L33.8298 11.7896H35.0087L35.1618 11.6059V10.1054L35.3456 9.937H37.336L37.5197 10.1054V11.6059L37.6728 11.7743H39.5102L39.6939 11.9427V13.627L39.5255 13.7801H37.6882L37.5197 13.9485V17.6231V17.6537ZM43.7054 20.1648H41.6996L41.5312 19.9963V8.62026L41.6843 8.45183H43.7054L43.8585 8.60494V19.9963L43.7054 20.1494V20.1648ZM48.2221 10.4576H46.2164L46.048 10.2892V8.60494L46.2011 8.45183H48.2221L48.3905 8.60494V10.2892L48.2374 10.4423L48.2221 10.4576ZM48.2221 20.1648H46.2164L46.048 19.9963V11.9427L46.2011 11.7896H48.2221L48.3905 11.9427V19.981L48.2374 20.1341L48.2221 20.1648ZM56.092 8.62026V10.2892L55.9236 10.4423H54.4078C54.0709 10.4423 53.9025 10.626 53.9025 10.9628V11.6212L54.0556 11.7896H55.7398L55.8929 11.9581V13.6423L55.7398 13.7954H54.0556L53.9025 13.9638V19.9963L53.7341 20.1494H51.7283L51.5599 19.9963V13.9638L51.3915 13.8107H50.2126L50.0594 13.6423V11.9427L50.2126 11.7896H51.3915L51.5446 11.6059V10.9475C51.5446 9.11021 52.892 8.43652 54.3925 8.43652H55.9082L56.0614 8.58963L56.092 8.62026ZM62.2776 20.3332C61.6039 22.0021 60.9456 23.0126 58.603 23.0126H57.7609L57.6078 22.8442V21.16L57.7609 21.0069H58.603C59.4298 21.0069 59.5982 20.8384 59.7666 20.3332V20.1648L57.0872 13.627V11.9427L57.2556 11.7896H58.7714L58.9245 11.9427L60.9456 17.6384H61.0987L63.135 11.9427L63.2882 11.7896H64.8193L64.9724 11.9427V13.627L62.2929 20.3179L62.2776 20.3332ZM21.1063 20.1648L20.9379 19.9963V15.1427C20.9379 14.3159 20.6011 13.6576 19.5905 13.6423C19.07 13.627 18.4882 13.6423 17.8451 13.6576L17.7532 13.7648V19.9963L17.5848 20.1494H15.5791L15.4106 19.9963V11.8815L15.5638 11.6978L20.0958 11.6671C22.3618 11.6671 23.2805 13.2136 23.2805 14.9743V19.9963L23.1121 20.1494H21.1063V20.1648Z"
    fill-opacity="0.8"></path>
</svg>
